<mxfile type="device" compressed="false">
    <diagram id="Network Topology" name="Network Topology">
          <mxGraphModel dx="1360" dy="864" grid="0" gridSize="10" guides="1" tooltips="1" connect="1" arrows="1" fold="1" page="1" pageScale="1" pageWidth="1055.0" pageHeight="908.75" math="0" shadow="0" background="none">
            <root>
              <mxCell id="0" />   
              <mxCell id="1" parent="0" />
            <object id="clab-red-hospital-spine1" label="spine1">
      <mxCell style="shape=image;imageAlign=center;imageVerticalAlign=middle;labelPosition=left;align=right;verticalLabelPosition=top;spacingLeft=0;verticalAlign=bottom;spacingTop=0;spacing=0;editableCssRules=\.st[0-2]$;labelBackgroundColor=none;aspect=fixed;imageAspect=0;image=data:image/svg+xml,PHN2ZyB4bWxuczp4bGluaz0iaHR0cDovL3d3dy53My5vcmcvMTk5OS94bGluayIgeG1sbnM9Imh0dHA6Ly93d3cudzMub3JnLzIwMDAvc3ZnIiB4bWw6c3BhY2U9InByZXNlcnZlIiBzdHlsZT0iZW5hYmxlLWJhY2tncm91bmQ6bmV3IDAgMCAxMjAgMTIwO2VkaXRhYmxlQ3NzUnVsZXM9Lio7IiB2aWV3Qm94PSIwIDAgMTIwIDEyMCIgeT0iMHB4IiB4PSIwcHgiIGlkPSJMYXllcl8xIiB2ZXJzaW9uPSIxLjEiPiYjeGE7PHN0eWxlIHR5cGU9InRleHQvY3NzIj4mI3hhOwkuc3Qwe2ZpbGw6IzAwMTEzNTt9JiN4YTsJLnN0MXtmaWxsOm5vbmU7c3Ryb2tlOiNGRkZGRkY7c3Ryb2tlLXdpZHRoOjQ7c3Ryb2tlLWxpbmVjYXA6cm91bmQ7c3Ryb2tlLWxpbmVqb2luOnJvdW5kO3N0cm9rZS1taXRlcmxpbWl0OjEwO30mI3hhOwkuc3Qye2ZpbGw6I0ZGRkZGRjt9JiN4YTsJLnN0M3tmaWxsOm5vbmU7c3Ryb2tlOiNGRkZGRkY7c3Ryb2tlLXdpZHRoOjQ7c3Ryb2tlLW1pdGVybGltaXQ6MTA7fSYjeGE7CS5zdDR7ZmlsbDpub25lO3N0cm9rZTojRkZGRkZGO3N0cm9rZS13aWR0aDo0O3N0cm9rZS1saW5lY2FwOnJvdW5kO3N0cm9rZS1saW5lam9pbjpyb3VuZDt9JiN4YTsJLnN0NXtmaWxsOiNGRkZGRkY7c3Ryb2tlOiNGRkZGRkY7c3Ryb2tlLXdpZHRoOjQ7c3Ryb2tlLWxpbmVjYXA6cm91bmQ7c3Ryb2tlLWxpbmVqb2luOnJvdW5kO3N0cm9rZS1taXRlcmxpbWl0OjEwO30mI3hhOwkuc3Q2e2ZpbGw6bm9uZTtzdHJva2U6I0ZGRkZGRjtzdHJva2Utd2lkdGg6NC4yMzMzO3N0cm9rZS1saW5lY2FwOnJvdW5kO3N0cm9rZS1saW5lam9pbjpyb3VuZDtzdHJva2UtbWl0ZXJsaW1pdDoxMDt9JiN4YTsJLnN0N3tmaWxsOm5vbmU7c3Ryb2tlOiNGRkZGRkY7c3Ryb2tlLXdpZHRoOjQ7c3Ryb2tlLWxpbmVjYXA6cm91bmQ7c3Ryb2tlLW1pdGVybGltaXQ6MTA7fSYjeGE7CS5zdDh7ZmlsbDojRkZGRkZGO3N0cm9rZTojRkZGRkZGO3N0cm9rZS13aWR0aDo0O3N0cm9rZS1taXRlcmxpbWl0OjEwO30mI3hhOwkuc3Q5e2ZpbGw6I0ZGRkZGRjtzdHJva2U6I0ZGRkZGRjtzdHJva2Utd2lkdGg6NDt9JiN4YTsJLnN0MTB7ZmlsbDpub25lO3N0cm9rZTojRkZGRkZGO3N0cm9rZS13aWR0aDo0O30mI3hhOwkuc3QxMXtmaWxsOiMyNjI2MjY7c3Ryb2tlOiNGRkZGRkY7c3Ryb2tlLXdpZHRoOjQuMjMzMzt9JiN4YTsJLnN0MTJ7ZmlsbC1ydWxlOmV2ZW5vZGQ7Y2xpcC1ydWxlOmV2ZW5vZGQ7ZmlsbDpub25lO3N0cm9rZTojRkZGRkZGO3N0cm9rZS13aWR0aDo0O3N0cm9rZS1taXRlcmxpbWl0OjEwO30mI3hhOwkuc3QxM3tmaWxsLXJ1bGU6ZXZlbm9kZDtjbGlwLXJ1bGU6ZXZlbm9kZDtmaWxsOiNGRkZGRkY7c3Ryb2tlOiNGRkZGRkY7c3Ryb2tlLXdpZHRoOjQ7fSYjeGE7CS5zdDE0e2ZpbGw6bm9uZTtzdHJva2U6I0ZGRkZGRjtzdHJva2Utd2lkdGg6NC4yMzMzO3N0cm9rZS1saW5lY2FwOnJvdW5kO3N0cm9rZS1saW5lam9pbjpyb3VuZDt9JiN4YTsJLnN0MTV7ZmlsbDpub25lO3N0cm9rZTojRkZGRkZGO3N0cm9rZS13aWR0aDo0O3N0cm9rZS1saW5lY2FwOnJvdW5kO30mI3hhOwkuc3QxNntmaWxsOiNGRkZGRkY7c3Ryb2tlOiNGRkZGRkY7c3Ryb2tlLW1pdGVybGltaXQ6MTA7fSYjeGE7CS5zdDE3e2ZpbGw6IzI2MjYyNjtzdHJva2U6I0ZGRkZGRjtzdHJva2Utd2lkdGg6NDtzdHJva2UtbWl0ZXJsaW1pdDoxMDt9JiN4YTsJLnN0MTh7ZmlsbDojRkZGRkZGO3N0cm9rZTojRkZGRkZGO3N0cm9rZS13aWR0aDo0O3N0cm9rZS1saW5lY2FwOnJvdW5kO3N0cm9rZS1saW5lam9pbjpyb3VuZDt9JiN4YTs8L3N0eWxlPiYjeGE7PHJlY3QgaGVpZ2h0PSIxMjAiIHdpZHRoPSIxMjAiIGNsYXNzPSJzdDAiLz4mI3hhOzxnPiYjeGE7CTxnPiYjeGE7CQk8cGF0aCBkPSJNNzEuNywxOS43VjQ4aDI4IiBjbGFzcz0ic3QxIi8+JiN4YTsJCTxwYXRoIGQ9Ik05MS4yLDM4LjVsNy41LDcuNmMxLjMsMS4zLDEuMywzLjEsMCw0LjNMOTEuMSw1OCIgY2xhc3M9InN0MSIvPiYjeGE7CTwvZz4mI3hhOwk8Zz4mI3hhOwkJPHBhdGggZD0iTTIwLDQ3LjhoMjguNHYtMjgiIGNsYXNzPSJzdDEiLz4mI3hhOwkJPHBhdGggZD0iTTM4LjgsMjguM2w3LjYtNy41YzEuMy0xLjMsMy4xLTEuMyw0LjMsMGw3LjcsNy42IiBjbGFzcz0ic3QxIi8+JiN4YTsJPC9nPiYjeGE7CTxnPiYjeGE7CQk8cGF0aCBkPSJNNDgsMTAwLjNWNzJIMjAiIGNsYXNzPSJzdDEiLz4mI3hhOwkJPHBhdGggZD0iTTI4LjUsODEuNUwyMSw3My45Yy0xLjMtMS4zLTEuMy0zLjEsMC00LjNsNy42LTcuNyIgY2xhc3M9InN0MSIvPiYjeGE7CTwvZz4mI3hhOwk8Zz4mI3hhOwkJPHBhdGggZD0iTTEwMCw3MS45SDcxLjZ2MjgiIGNsYXNzPSJzdDEiLz4mI3hhOwkJPHBhdGggZD0iTTgxLjIsOTEuNGwtNy42LDcuNWMtMS4zLDEuMy0zLjEsMS4zLTQuMywwbC03LjctNy42IiBjbGFzcz0ic3QxIi8+JiN4YTsJPC9nPiYjeGE7PC9nPiYjeGE7PC9zdmc+;" vertex="1" parent="1">
          <mxGeometry x="437.5" y="493.75" width="75" height="75" as="geometry" />
      </mxCell>
    </object><object id="clab-red-hospital-spine2" label="spine2">
      <mxCell style="shape=image;imageAlign=center;imageVerticalAlign=middle;labelPosition=left;align=right;verticalLabelPosition=top;spacingLeft=0;verticalAlign=bottom;spacingTop=0;spacing=0;editableCssRules=\.st[0-2]$;labelBackgroundColor=none;aspect=fixed;imageAspect=0;image=data:image/svg+xml,PHN2ZyB4bWxuczp4bGluaz0iaHR0cDovL3d3dy53My5vcmcvMTk5OS94bGluayIgeG1sbnM9Imh0dHA6Ly93d3cudzMub3JnLzIwMDAvc3ZnIiB4bWw6c3BhY2U9InByZXNlcnZlIiBzdHlsZT0iZW5hYmxlLWJhY2tncm91bmQ6bmV3IDAgMCAxMjAgMTIwO2VkaXRhYmxlQ3NzUnVsZXM9Lio7IiB2aWV3Qm94PSIwIDAgMTIwIDEyMCIgeT0iMHB4IiB4PSIwcHgiIGlkPSJMYXllcl8xIiB2ZXJzaW9uPSIxLjEiPiYjeGE7PHN0eWxlIHR5cGU9InRleHQvY3NzIj4mI3hhOwkuc3Qwe2ZpbGw6IzAwMTEzNTt9JiN4YTsJLnN0MXtmaWxsOm5vbmU7c3Ryb2tlOiNGRkZGRkY7c3Ryb2tlLXdpZHRoOjQ7c3Ryb2tlLWxpbmVjYXA6cm91bmQ7c3Ryb2tlLWxpbmVqb2luOnJvdW5kO3N0cm9rZS1taXRlcmxpbWl0OjEwO30mI3hhOwkuc3Qye2ZpbGw6I0ZGRkZGRjt9JiN4YTsJLnN0M3tmaWxsOm5vbmU7c3Ryb2tlOiNGRkZGRkY7c3Ryb2tlLXdpZHRoOjQ7c3Ryb2tlLW1pdGVybGltaXQ6MTA7fSYjeGE7CS5zdDR7ZmlsbDpub25lO3N0cm9rZTojRkZGRkZGO3N0cm9rZS13aWR0aDo0O3N0cm9rZS1saW5lY2FwOnJvdW5kO3N0cm9rZS1saW5lam9pbjpyb3VuZDt9JiN4YTsJLnN0NXtmaWxsOiNGRkZGRkY7c3Ryb2tlOiNGRkZGRkY7c3Ryb2tlLXdpZHRoOjQ7c3Ryb2tlLWxpbmVjYXA6cm91bmQ7c3Ryb2tlLWxpbmVqb2luOnJvdW5kO3N0cm9rZS1taXRlcmxpbWl0OjEwO30mI3hhOwkuc3Q2e2ZpbGw6bm9uZTtzdHJva2U6I0ZGRkZGRjtzdHJva2Utd2lkdGg6NC4yMzMzO3N0cm9rZS1saW5lY2FwOnJvdW5kO3N0cm9rZS1saW5lam9pbjpyb3VuZDtzdHJva2UtbWl0ZXJsaW1pdDoxMDt9JiN4YTsJLnN0N3tmaWxsOm5vbmU7c3Ryb2tlOiNGRkZGRkY7c3Ryb2tlLXdpZHRoOjQ7c3Ryb2tlLWxpbmVjYXA6cm91bmQ7c3Ryb2tlLW1pdGVybGltaXQ6MTA7fSYjeGE7CS5zdDh7ZmlsbDojRkZGRkZGO3N0cm9rZTojRkZGRkZGO3N0cm9rZS13aWR0aDo0O3N0cm9rZS1taXRlcmxpbWl0OjEwO30mI3hhOwkuc3Q5e2ZpbGw6I0ZGRkZGRjtzdHJva2U6I0ZGRkZGRjtzdHJva2Utd2lkdGg6NDt9JiN4YTsJLnN0MTB7ZmlsbDpub25lO3N0cm9rZTojRkZGRkZGO3N0cm9rZS13aWR0aDo0O30mI3hhOwkuc3QxMXtmaWxsOiMyNjI2MjY7c3Ryb2tlOiNGRkZGRkY7c3Ryb2tlLXdpZHRoOjQuMjMzMzt9JiN4YTsJLnN0MTJ7ZmlsbC1ydWxlOmV2ZW5vZGQ7Y2xpcC1ydWxlOmV2ZW5vZGQ7ZmlsbDpub25lO3N0cm9rZTojRkZGRkZGO3N0cm9rZS13aWR0aDo0O3N0cm9rZS1taXRlcmxpbWl0OjEwO30mI3hhOwkuc3QxM3tmaWxsLXJ1bGU6ZXZlbm9kZDtjbGlwLXJ1bGU6ZXZlbm9kZDtmaWxsOiNGRkZGRkY7c3Ryb2tlOiNGRkZGRkY7c3Ryb2tlLXdpZHRoOjQ7fSYjeGE7CS5zdDE0e2ZpbGw6bm9uZTtzdHJva2U6I0ZGRkZGRjtzdHJva2Utd2lkdGg6NC4yMzMzO3N0cm9rZS1saW5lY2FwOnJvdW5kO3N0cm9rZS1saW5lam9pbjpyb3VuZDt9JiN4YTsJLnN0MTV7ZmlsbDpub25lO3N0cm9rZTojRkZGRkZGO3N0cm9rZS13aWR0aDo0O3N0cm9rZS1saW5lY2FwOnJvdW5kO30mI3hhOwkuc3QxNntmaWxsOiNGRkZGRkY7c3Ryb2tlOiNGRkZGRkY7c3Ryb2tlLW1pdGVybGltaXQ6MTA7fSYjeGE7CS5zdDE3e2ZpbGw6IzI2MjYyNjtzdHJva2U6I0ZGRkZGRjtzdHJva2Utd2lkdGg6NDtzdHJva2UtbWl0ZXJsaW1pdDoxMDt9JiN4YTsJLnN0MTh7ZmlsbDojRkZGRkZGO3N0cm9rZTojRkZGRkZGO3N0cm9rZS13aWR0aDo0O3N0cm9rZS1saW5lY2FwOnJvdW5kO3N0cm9rZS1saW5lam9pbjpyb3VuZDt9JiN4YTs8L3N0eWxlPiYjeGE7PHJlY3QgaGVpZ2h0PSIxMjAiIHdpZHRoPSIxMjAiIGNsYXNzPSJzdDAiLz4mI3hhOzxnPiYjeGE7CTxnPiYjeGE7CQk8cGF0aCBkPSJNNzEuNywxOS43VjQ4aDI4IiBjbGFzcz0ic3QxIi8+JiN4YTsJCTxwYXRoIGQ9Ik05MS4yLDM4LjVsNy41LDcuNmMxLjMsMS4zLDEuMywzLjEsMCw0LjNMOTEuMSw1OCIgY2xhc3M9InN0MSIvPiYjeGE7CTwvZz4mI3hhOwk8Zz4mI3hhOwkJPHBhdGggZD0iTTIwLDQ3LjhoMjguNHYtMjgiIGNsYXNzPSJzdDEiLz4mI3hhOwkJPHBhdGggZD0iTTM4LjgsMjguM2w3LjYtNy41YzEuMy0xLjMsMy4xLTEuMyw0LjMsMGw3LjcsNy42IiBjbGFzcz0ic3QxIi8+JiN4YTsJPC9nPiYjeGE7CTxnPiYjeGE7CQk8cGF0aCBkPSJNNDgsMTAwLjNWNzJIMjAiIGNsYXNzPSJzdDEiLz4mI3hhOwkJPHBhdGggZD0iTTI4LjUsODEuNUwyMSw3My45Yy0xLjMtMS4zLTEuMy0zLjEsMC00LjNsNy42LTcuNyIgY2xhc3M9InN0MSIvPiYjeGE7CTwvZz4mI3hhOwk8Zz4mI3hhOwkJPHBhdGggZD0iTTEwMCw3MS45SDcxLjZ2MjgiIGNsYXNzPSJzdDEiLz4mI3hhOwkJPHBhdGggZD0iTTgxLjIsOTEuNGwtNy42LDcuNWMtMS4zLDEuMy0zLjEsMS4zLTQuMywwbC03LjctNy42IiBjbGFzcz0ic3QxIi8+JiN4YTsJPC9nPiYjeGE7PC9nPiYjeGE7PC9zdmc+;" vertex="1" parent="1">
          <mxGeometry x="662.5" y="493.75" width="75" height="75" as="geometry" />
      </mxCell>
    </object><object id="clab-red-hospital-leaf1" label="leaf1">
      <mxCell style="shape=image;imageAlign=center;imageVerticalAlign=middle;labelPosition=left;align=right;verticalLabelPosition=top;spacingLeft=0;verticalAlign=bottom;spacingTop=0;spacing=0;editableCssRules=\.st[0-2]$;labelBackgroundColor=none;aspect=fixed;imageAspect=0;image=data:image/svg+xml,PHN2ZyB4bWxuczp4bGluaz0iaHR0cDovL3d3dy53My5vcmcvMTk5OS94bGluayIgeG1sbnM9Imh0dHA6Ly93d3cudzMub3JnLzIwMDAvc3ZnIiB4bWw6c3BhY2U9InByZXNlcnZlIiBzdHlsZT0iZW5hYmxlLWJhY2tncm91bmQ6bmV3IDAgMCAxMjAgMTIwO2VkaXRhYmxlQ3NzUnVsZXM9Lio7IiB2aWV3Qm94PSIwIDAgMTIwIDEyMCIgeT0iMHB4IiB4PSIwcHgiIGlkPSJMYXllcl8xIiB2ZXJzaW9uPSIxLjEiPiYjeGE7PHN0eWxlIHR5cGU9InRleHQvY3NzIj4mI3hhOwkuc3Qwe2ZpbGw6IzAwMTEzNTt9JiN4YTsJLnN0MXtmaWxsOm5vbmU7c3Ryb2tlOiNGRkZGRkY7c3Ryb2tlLXdpZHRoOjQ7c3Ryb2tlLWxpbmVjYXA6cm91bmQ7c3Ryb2tlLWxpbmVqb2luOnJvdW5kO3N0cm9rZS1taXRlcmxpbWl0OjEwO30mI3hhOwkuc3Qye2ZpbGw6I0ZGRkZGRjt9JiN4YTsJLnN0M3tmaWxsOm5vbmU7c3Ryb2tlOiNGRkZGRkY7c3Ryb2tlLXdpZHRoOjQ7c3Ryb2tlLW1pdGVybGltaXQ6MTA7fSYjeGE7CS5zdDR7ZmlsbDpub25lO3N0cm9rZTojRkZGRkZGO3N0cm9rZS13aWR0aDo0O3N0cm9rZS1saW5lY2FwOnJvdW5kO3N0cm9rZS1saW5lam9pbjpyb3VuZDt9JiN4YTsJLnN0NXtmaWxsOiNGRkZGRkY7c3Ryb2tlOiNGRkZGRkY7c3Ryb2tlLXdpZHRoOjQ7c3Ryb2tlLWxpbmVjYXA6cm91bmQ7c3Ryb2tlLWxpbmVqb2luOnJvdW5kO3N0cm9rZS1taXRlcmxpbWl0OjEwO30mI3hhOwkuc3Q2e2ZpbGw6bm9uZTtzdHJva2U6I0ZGRkZGRjtzdHJva2Utd2lkdGg6NC4yMzMzO3N0cm9rZS1saW5lY2FwOnJvdW5kO3N0cm9rZS1saW5lam9pbjpyb3VuZDtzdHJva2UtbWl0ZXJsaW1pdDoxMDt9JiN4YTsJLnN0N3tmaWxsOm5vbmU7c3Ryb2tlOiNGRkZGRkY7c3Ryb2tlLXdpZHRoOjQ7c3Ryb2tlLWxpbmVjYXA6cm91bmQ7c3Ryb2tlLW1pdGVybGltaXQ6MTA7fSYjeGE7CS5zdDh7ZmlsbDojRkZGRkZGO3N0cm9rZTojRkZGRkZGO3N0cm9rZS13aWR0aDo0O3N0cm9rZS1taXRlcmxpbWl0OjEwO30mI3hhOwkuc3Q5e2ZpbGw6I0ZGRkZGRjtzdHJva2U6I0ZGRkZGRjtzdHJva2Utd2lkdGg6NDt9JiN4YTsJLnN0MTB7ZmlsbDpub25lO3N0cm9rZTojRkZGRkZGO3N0cm9rZS13aWR0aDo0O30mI3hhOwkuc3QxMXtmaWxsOiMyNjI2MjY7c3Ryb2tlOiNGRkZGRkY7c3Ryb2tlLXdpZHRoOjQuMjMzMzt9JiN4YTsJLnN0MTJ7ZmlsbC1ydWxlOmV2ZW5vZGQ7Y2xpcC1ydWxlOmV2ZW5vZGQ7ZmlsbDpub25lO3N0cm9rZTojRkZGRkZGO3N0cm9rZS13aWR0aDo0O3N0cm9rZS1taXRlcmxpbWl0OjEwO30mI3hhOwkuc3QxM3tmaWxsLXJ1bGU6ZXZlbm9kZDtjbGlwLXJ1bGU6ZXZlbm9kZDtmaWxsOiNGRkZGRkY7c3Ryb2tlOiNGRkZGRkY7c3Ryb2tlLXdpZHRoOjQ7fSYjeGE7CS5zdDE0e2ZpbGw6bm9uZTtzdHJva2U6I0ZGRkZGRjtzdHJva2Utd2lkdGg6NC4yMzMzO3N0cm9rZS1saW5lY2FwOnJvdW5kO3N0cm9rZS1saW5lam9pbjpyb3VuZDt9JiN4YTsJLnN0MTV7ZmlsbDpub25lO3N0cm9rZTojRkZGRkZGO3N0cm9rZS13aWR0aDo0O3N0cm9rZS1saW5lY2FwOnJvdW5kO30mI3hhOwkuc3QxNntmaWxsOiNGRkZGRkY7c3Ryb2tlOiNGRkZGRkY7c3Ryb2tlLW1pdGVybGltaXQ6MTA7fSYjeGE7CS5zdDE3e2ZpbGw6IzI2MjYyNjtzdHJva2U6I0ZGRkZGRjtzdHJva2Utd2lkdGg6NDtzdHJva2UtbWl0ZXJsaW1pdDoxMDt9JiN4YTsJLnN0MTh7ZmlsbDojRkZGRkZGO3N0cm9rZTojRkZGRkZGO3N0cm9rZS13aWR0aDo0O3N0cm9rZS1saW5lY2FwOnJvdW5kO3N0cm9rZS1saW5lam9pbjpyb3VuZDt9JiN4YTs8L3N0eWxlPiYjeGE7PHJlY3QgaGVpZ2h0PSIxMjAiIHdpZHRoPSIxMjAiIGNsYXNzPSJzdDAiLz4mI3hhOzxnPiYjeGE7CTxnPiYjeGE7CQk8cGF0aCBkPSJNNzEuNywxOS43VjQ4aDI4IiBjbGFzcz0ic3QxIi8+JiN4YTsJCTxwYXRoIGQ9Ik05MS4yLDM4LjVsNy41LDcuNmMxLjMsMS4zLDEuMywzLjEsMCw0LjNMOTEuMSw1OCIgY2xhc3M9InN0MSIvPiYjeGE7CTwvZz4mI3hhOwk8Zz4mI3hhOwkJPHBhdGggZD0iTTIwLDQ3LjhoMjguNHYtMjgiIGNsYXNzPSJzdDEiLz4mI3hhOwkJPHBhdGggZD0iTTM4LjgsMjguM2w3LjYtNy41YzEuMy0xLjMsMy4xLTEuMyw0LjMsMGw3LjcsNy42IiBjbGFzcz0ic3QxIi8+JiN4YTsJPC9nPiYjeGE7CTxnPiYjeGE7CQk8cGF0aCBkPSJNNDgsMTAwLjNWNzJIMjAiIGNsYXNzPSJzdDEiLz4mI3hhOwkJPHBhdGggZD0iTTI4LjUsODEuNUwyMSw3My45Yy0xLjMtMS4zLTEuMy0zLjEsMC00LjNsNy42LTcuNyIgY2xhc3M9InN0MSIvPiYjeGE7CTwvZz4mI3hhOwk8Zz4mI3hhOwkJPHBhdGggZD0iTTEwMCw3MS45SDcxLjZ2MjgiIGNsYXNzPSJzdDEiLz4mI3hhOwkJPHBhdGggZD0iTTgxLjIsOTEuNGwtNy42LDcuNWMtMS4zLDEuMy0zLjEsMS4zLTQuMywwbC03LjctNy42IiBjbGFzcz0ic3QxIi8+JiN4YTsJPC9nPiYjeGE7PC9nPiYjeGE7PC9zdmc+;" vertex="1" parent="1">
          <mxGeometry x="257.5" y="598.75" width="75" height="75" as="geometry" />
      </mxCell>
    </object><object id="clab-red-hospital-leaf2" label="leaf2">
      <mxCell style="shape=image;imageAlign=center;imageVerticalAlign=middle;labelPosition=left;align=right;verticalLabelPosition=top;spacingLeft=0;verticalAlign=bottom;spacingTop=0;spacing=0;editableCssRules=\.st[0-2]$;labelBackgroundColor=none;aspect=fixed;imageAspect=0;image=data:image/svg+xml,PHN2ZyB4bWxuczp4bGluaz0iaHR0cDovL3d3dy53My5vcmcvMTk5OS94bGluayIgeG1sbnM9Imh0dHA6Ly93d3cudzMub3JnLzIwMDAvc3ZnIiB4bWw6c3BhY2U9InByZXNlcnZlIiBzdHlsZT0iZW5hYmxlLWJhY2tncm91bmQ6bmV3IDAgMCAxMjAgMTIwO2VkaXRhYmxlQ3NzUnVsZXM9Lio7IiB2aWV3Qm94PSIwIDAgMTIwIDEyMCIgeT0iMHB4IiB4PSIwcHgiIGlkPSJMYXllcl8xIiB2ZXJzaW9uPSIxLjEiPiYjeGE7PHN0eWxlIHR5cGU9InRleHQvY3NzIj4mI3hhOwkuc3Qwe2ZpbGw6IzAwMTEzNTt9JiN4YTsJLnN0MXtmaWxsOm5vbmU7c3Ryb2tlOiNGRkZGRkY7c3Ryb2tlLXdpZHRoOjQ7c3Ryb2tlLWxpbmVjYXA6cm91bmQ7c3Ryb2tlLWxpbmVqb2luOnJvdW5kO3N0cm9rZS1taXRlcmxpbWl0OjEwO30mI3hhOwkuc3Qye2ZpbGw6I0ZGRkZGRjt9JiN4YTsJLnN0M3tmaWxsOm5vbmU7c3Ryb2tlOiNGRkZGRkY7c3Ryb2tlLXdpZHRoOjQ7c3Ryb2tlLW1pdGVybGltaXQ6MTA7fSYjeGE7CS5zdDR7ZmlsbDpub25lO3N0cm9rZTojRkZGRkZGO3N0cm9rZS13aWR0aDo0O3N0cm9rZS1saW5lY2FwOnJvdW5kO3N0cm9rZS1saW5lam9pbjpyb3VuZDt9JiN4YTsJLnN0NXtmaWxsOiNGRkZGRkY7c3Ryb2tlOiNGRkZGRkY7c3Ryb2tlLXdpZHRoOjQ7c3Ryb2tlLWxpbmVjYXA6cm91bmQ7c3Ryb2tlLWxpbmVqb2luOnJvdW5kO3N0cm9rZS1taXRlcmxpbWl0OjEwO30mI3hhOwkuc3Q2e2ZpbGw6bm9uZTtzdHJva2U6I0ZGRkZGRjtzdHJva2Utd2lkdGg6NC4yMzMzO3N0cm9rZS1saW5lY2FwOnJvdW5kO3N0cm9rZS1saW5lam9pbjpyb3VuZDtzdHJva2UtbWl0ZXJsaW1pdDoxMDt9JiN4YTsJLnN0N3tmaWxsOm5vbmU7c3Ryb2tlOiNGRkZGRkY7c3Ryb2tlLXdpZHRoOjQ7c3Ryb2tlLWxpbmVjYXA6cm91bmQ7c3Ryb2tlLW1pdGVybGltaXQ6MTA7fSYjeGE7CS5zdDh7ZmlsbDojRkZGRkZGO3N0cm9rZTojRkZGRkZGO3N0cm9rZS13aWR0aDo0O3N0cm9rZS1taXRlcmxpbWl0OjEwO30mI3hhOwkuc3Q5e2ZpbGw6I0ZGRkZGRjtzdHJva2U6I0ZGRkZGRjtzdHJva2Utd2lkdGg6NDt9JiN4YTsJLnN0MTB7ZmlsbDpub25lO3N0cm9rZTojRkZGRkZGO3N0cm9rZS13aWR0aDo0O30mI3hhOwkuc3QxMXtmaWxsOiMyNjI2MjY7c3Ryb2tlOiNGRkZGRkY7c3Ryb2tlLXdpZHRoOjQuMjMzMzt9JiN4YTsJLnN0MTJ7ZmlsbC1ydWxlOmV2ZW5vZGQ7Y2xpcC1ydWxlOmV2ZW5vZGQ7ZmlsbDpub25lO3N0cm9rZTojRkZGRkZGO3N0cm9rZS13aWR0aDo0O3N0cm9rZS1taXRlcmxpbWl0OjEwO30mI3hhOwkuc3QxM3tmaWxsLXJ1bGU6ZXZlbm9kZDtjbGlwLXJ1bGU6ZXZlbm9kZDtmaWxsOiNGRkZGRkY7c3Ryb2tlOiNGRkZGRkY7c3Ryb2tlLXdpZHRoOjQ7fSYjeGE7CS5zdDE0e2ZpbGw6bm9uZTtzdHJva2U6I0ZGRkZGRjtzdHJva2Utd2lkdGg6NC4yMzMzO3N0cm9rZS1saW5lY2FwOnJvdW5kO3N0cm9rZS1saW5lam9pbjpyb3VuZDt9JiN4YTsJLnN0MTV7ZmlsbDpub25lO3N0cm9rZTojRkZGRkZGO3N0cm9rZS13aWR0aDo0O3N0cm9rZS1saW5lY2FwOnJvdW5kO30mI3hhOwkuc3QxNntmaWxsOiNGRkZGRkY7c3Ryb2tlOiNGRkZGRkY7c3Ryb2tlLW1pdGVybGltaXQ6MTA7fSYjeGE7CS5zdDE3e2ZpbGw6IzI2MjYyNjtzdHJva2U6I0ZGRkZGRjtzdHJva2Utd2lkdGg6NDtzdHJva2UtbWl0ZXJsaW1pdDoxMDt9JiN4YTsJLnN0MTh7ZmlsbDojRkZGRkZGO3N0cm9rZTojRkZGRkZGO3N0cm9rZS13aWR0aDo0O3N0cm9rZS1saW5lY2FwOnJvdW5kO3N0cm9rZS1saW5lam9pbjpyb3VuZDt9JiN4YTs8L3N0eWxlPiYjeGE7PHJlY3QgaGVpZ2h0PSIxMjAiIHdpZHRoPSIxMjAiIGNsYXNzPSJzdDAiLz4mI3hhOzxnPiYjeGE7CTxnPiYjeGE7CQk8cGF0aCBkPSJNNzEuNywxOS43VjQ4aDI4IiBjbGFzcz0ic3QxIi8+JiN4YTsJCTxwYXRoIGQ9Ik05MS4yLDM4LjVsNy41LDcuNmMxLjMsMS4zLDEuMywzLjEsMCw0LjNMOTEuMSw1OCIgY2xhc3M9InN0MSIvPiYjeGE7CTwvZz4mI3hhOwk8Zz4mI3hhOwkJPHBhdGggZD0iTTIwLDQ3LjhoMjguNHYtMjgiIGNsYXNzPSJzdDEiLz4mI3hhOwkJPHBhdGggZD0iTTM4LjgsMjguM2w3LjYtNy41YzEuMy0xLjMsMy4xLTEuMyw0LjMsMGw3LjcsNy42IiBjbGFzcz0ic3QxIi8+JiN4YTsJPC9nPiYjeGE7CTxnPiYjeGE7CQk8cGF0aCBkPSJNNDgsMTAwLjNWNzJIMjAiIGNsYXNzPSJzdDEiLz4mI3hhOwkJPHBhdGggZD0iTTI4LjUsODEuNUwyMSw3My45Yy0xLjMtMS4zLTEuMy0zLjEsMC00LjNsNy42LTcuNyIgY2xhc3M9InN0MSIvPiYjeGE7CTwvZz4mI3hhOwk8Zz4mI3hhOwkJPHBhdGggZD0iTTEwMCw3MS45SDcxLjZ2MjgiIGNsYXNzPSJzdDEiLz4mI3hhOwkJPHBhdGggZD0iTTgxLjIsOTEuNGwtNy42LDcuNWMtMS4zLDEuMy0zLjEsMS4zLTQuMywwbC03LjctNy42IiBjbGFzcz0ic3QxIi8+JiN4YTsJPC9nPiYjeGE7PC9nPiYjeGE7PC9zdmc+;" vertex="1" parent="1">
          <mxGeometry x="460.0" y="651.25" width="75" height="75" as="geometry" />
      </mxCell>
    </object><object id="clab-red-hospital-leaf3" label="leaf3">
      <mxCell style="shape=image;imageAlign=center;imageVerticalAlign=middle;labelPosition=left;align=right;verticalLabelPosition=top;spacingLeft=0;verticalAlign=bottom;spacingTop=0;spacing=0;editableCssRules=\.st[0-2]$;labelBackgroundColor=none;aspect=fixed;imageAspect=0;image=data:image/svg+xml,PHN2ZyB4bWxuczp4bGluaz0iaHR0cDovL3d3dy53My5vcmcvMTk5OS94bGluayIgeG1sbnM9Imh0dHA6Ly93d3cudzMub3JnLzIwMDAvc3ZnIiB4bWw6c3BhY2U9InByZXNlcnZlIiBzdHlsZT0iZW5hYmxlLWJhY2tncm91bmQ6bmV3IDAgMCAxMjAgMTIwO2VkaXRhYmxlQ3NzUnVsZXM9Lio7IiB2aWV3Qm94PSIwIDAgMTIwIDEyMCIgeT0iMHB4IiB4PSIwcHgiIGlkPSJMYXllcl8xIiB2ZXJzaW9uPSIxLjEiPiYjeGE7PHN0eWxlIHR5cGU9InRleHQvY3NzIj4mI3hhOwkuc3Qwe2ZpbGw6IzAwMTEzNTt9JiN4YTsJLnN0MXtmaWxsOm5vbmU7c3Ryb2tlOiNGRkZGRkY7c3Ryb2tlLXdpZHRoOjQ7c3Ryb2tlLWxpbmVjYXA6cm91bmQ7c3Ryb2tlLWxpbmVqb2luOnJvdW5kO3N0cm9rZS1taXRlcmxpbWl0OjEwO30mI3hhOwkuc3Qye2ZpbGw6I0ZGRkZGRjt9JiN4YTsJLnN0M3tmaWxsOm5vbmU7c3Ryb2tlOiNGRkZGRkY7c3Ryb2tlLXdpZHRoOjQ7c3Ryb2tlLW1pdGVybGltaXQ6MTA7fSYjeGE7CS5zdDR7ZmlsbDpub25lO3N0cm9rZTojRkZGRkZGO3N0cm9rZS13aWR0aDo0O3N0cm9rZS1saW5lY2FwOnJvdW5kO3N0cm9rZS1saW5lam9pbjpyb3VuZDt9JiN4YTsJLnN0NXtmaWxsOiNGRkZGRkY7c3Ryb2tlOiNGRkZGRkY7c3Ryb2tlLXdpZHRoOjQ7c3Ryb2tlLWxpbmVjYXA6cm91bmQ7c3Ryb2tlLWxpbmVqb2luOnJvdW5kO3N0cm9rZS1taXRlcmxpbWl0OjEwO30mI3hhOwkuc3Q2e2ZpbGw6bm9uZTtzdHJva2U6I0ZGRkZGRjtzdHJva2Utd2lkdGg6NC4yMzMzO3N0cm9rZS1saW5lY2FwOnJvdW5kO3N0cm9rZS1saW5lam9pbjpyb3VuZDtzdHJva2UtbWl0ZXJsaW1pdDoxMDt9JiN4YTsJLnN0N3tmaWxsOm5vbmU7c3Ryb2tlOiNGRkZGRkY7c3Ryb2tlLXdpZHRoOjQ7c3Ryb2tlLWxpbmVjYXA6cm91bmQ7c3Ryb2tlLW1pdGVybGltaXQ6MTA7fSYjeGE7CS5zdDh7ZmlsbDojRkZGRkZGO3N0cm9rZTojRkZGRkZGO3N0cm9rZS13aWR0aDo0O3N0cm9rZS1taXRlcmxpbWl0OjEwO30mI3hhOwkuc3Q5e2ZpbGw6I0ZGRkZGRjtzdHJva2U6I0ZGRkZGRjtzdHJva2Utd2lkdGg6NDt9JiN4YTsJLnN0MTB7ZmlsbDpub25lO3N0cm9rZTojRkZGRkZGO3N0cm9rZS13aWR0aDo0O30mI3hhOwkuc3QxMXtmaWxsOiMyNjI2MjY7c3Ryb2tlOiNGRkZGRkY7c3Ryb2tlLXdpZHRoOjQuMjMzMzt9JiN4YTsJLnN0MTJ7ZmlsbC1ydWxlOmV2ZW5vZGQ7Y2xpcC1ydWxlOmV2ZW5vZGQ7ZmlsbDpub25lO3N0cm9rZTojRkZGRkZGO3N0cm9rZS13aWR0aDo0O3N0cm9rZS1taXRlcmxpbWl0OjEwO30mI3hhOwkuc3QxM3tmaWxsLXJ1bGU6ZXZlbm9kZDtjbGlwLXJ1bGU6ZXZlbm9kZDtmaWxsOiNGRkZGRkY7c3Ryb2tlOiNGRkZGRkY7c3Ryb2tlLXdpZHRoOjQ7fSYjeGE7CS5zdDE0e2ZpbGw6bm9uZTtzdHJva2U6I0ZGRkZGRjtzdHJva2Utd2lkdGg6NC4yMzMzO3N0cm9rZS1saW5lY2FwOnJvdW5kO3N0cm9rZS1saW5lam9pbjpyb3VuZDt9JiN4YTsJLnN0MTV7ZmlsbDpub25lO3N0cm9rZTojRkZGRkZGO3N0cm9rZS13aWR0aDo0O3N0cm9rZS1saW5lY2FwOnJvdW5kO30mI3hhOwkuc3QxNntmaWxsOiNGRkZGRkY7c3Ryb2tlOiNGRkZGRkY7c3Ryb2tlLW1pdGVybGltaXQ6MTA7fSYjeGE7CS5zdDE3e2ZpbGw6IzI2MjYyNjtzdHJva2U6I0ZGRkZGRjtzdHJva2Utd2lkdGg6NDtzdHJva2UtbWl0ZXJsaW1pdDoxMDt9JiN4YTsJLnN0MTh7ZmlsbDojRkZGRkZGO3N0cm9rZTojRkZGRkZGO3N0cm9rZS13aWR0aDo0O3N0cm9rZS1saW5lY2FwOnJvdW5kO3N0cm9rZS1saW5lam9pbjpyb3VuZDt9JiN4YTs8L3N0eWxlPiYjeGE7PHJlY3QgaGVpZ2h0PSIxMjAiIHdpZHRoPSIxMjAiIGNsYXNzPSJzdDAiLz4mI3hhOzxnPiYjeGE7CTxnPiYjeGE7CQk8cGF0aCBkPSJNNzEuNywxOS43VjQ4aDI4IiBjbGFzcz0ic3QxIi8+JiN4YTsJCTxwYXRoIGQ9Ik05MS4yLDM4LjVsNy41LDcuNmMxLjMsMS4zLDEuMywzLjEsMCw0LjNMOTEuMSw1OCIgY2xhc3M9InN0MSIvPiYjeGE7CTwvZz4mI3hhOwk8Zz4mI3hhOwkJPHBhdGggZD0iTTIwLDQ3LjhoMjguNHYtMjgiIGNsYXNzPSJzdDEiLz4mI3hhOwkJPHBhdGggZD0iTTM4LjgsMjguM2w3LjYtNy41YzEuMy0xLjMsMy4xLTEuMyw0LjMsMGw3LjcsNy42IiBjbGFzcz0ic3QxIi8+JiN4YTsJPC9nPiYjeGE7CTxnPiYjeGE7CQk8cGF0aCBkPSJNNDgsMTAwLjNWNzJIMjAiIGNsYXNzPSJzdDEiLz4mI3hhOwkJPHBhdGggZD0iTTI4LjUsODEuNUwyMSw3My45Yy0xLjMtMS4zLTEuMy0zLjEsMC00LjNsNy42LTcuNyIgY2xhc3M9InN0MSIvPiYjeGE7CTwvZz4mI3hhOwk8Zz4mI3hhOwkJPHBhdGggZD0iTTEwMCw3MS45SDcxLjZ2MjgiIGNsYXNzPSJzdDEiLz4mI3hhOwkJPHBhdGggZD0iTTgxLjIsOTEuNGwtNy42LDcuNWMtMS4zLDEuMy0zLjEsMS4zLTQuMywwbC03LjctNy42IiBjbGFzcz0ic3QxIi8+JiN4YTsJPC9nPiYjeGE7PC9nPiYjeGE7PC9zdmc+;" vertex="1" parent="1">
          <mxGeometry x="640.0" y="651.25" width="75" height="75" as="geometry" />
      </mxCell>
    </object><object id="clab-red-hospital-leaf4" label="leaf4">
      <mxCell style="shape=image;imageAlign=center;imageVerticalAlign=middle;labelPosition=left;align=right;verticalLabelPosition=top;spacingLeft=0;verticalAlign=bottom;spacingTop=0;spacing=0;editableCssRules=\.st[0-2]$;labelBackgroundColor=none;aspect=fixed;imageAspect=0;image=data:image/svg+xml,PHN2ZyB4bWxuczp4bGluaz0iaHR0cDovL3d3dy53My5vcmcvMTk5OS94bGluayIgeG1sbnM9Imh0dHA6Ly93d3cudzMub3JnLzIwMDAvc3ZnIiB4bWw6c3BhY2U9InByZXNlcnZlIiBzdHlsZT0iZW5hYmxlLWJhY2tncm91bmQ6bmV3IDAgMCAxMjAgMTIwO2VkaXRhYmxlQ3NzUnVsZXM9Lio7IiB2aWV3Qm94PSIwIDAgMTIwIDEyMCIgeT0iMHB4IiB4PSIwcHgiIGlkPSJMYXllcl8xIiB2ZXJzaW9uPSIxLjEiPiYjeGE7PHN0eWxlIHR5cGU9InRleHQvY3NzIj4mI3hhOwkuc3Qwe2ZpbGw6IzAwMTEzNTt9JiN4YTsJLnN0MXtmaWxsOm5vbmU7c3Ryb2tlOiNGRkZGRkY7c3Ryb2tlLXdpZHRoOjQ7c3Ryb2tlLWxpbmVjYXA6cm91bmQ7c3Ryb2tlLWxpbmVqb2luOnJvdW5kO3N0cm9rZS1taXRlcmxpbWl0OjEwO30mI3hhOwkuc3Qye2ZpbGw6I0ZGRkZGRjt9JiN4YTsJLnN0M3tmaWxsOm5vbmU7c3Ryb2tlOiNGRkZGRkY7c3Ryb2tlLXdpZHRoOjQ7c3Ryb2tlLW1pdGVybGltaXQ6MTA7fSYjeGE7CS5zdDR7ZmlsbDpub25lO3N0cm9rZTojRkZGRkZGO3N0cm9rZS13aWR0aDo0O3N0cm9rZS1saW5lY2FwOnJvdW5kO3N0cm9rZS1saW5lam9pbjpyb3VuZDt9JiN4YTsJLnN0NXtmaWxsOiNGRkZGRkY7c3Ryb2tlOiNGRkZGRkY7c3Ryb2tlLXdpZHRoOjQ7c3Ryb2tlLWxpbmVjYXA6cm91bmQ7c3Ryb2tlLWxpbmVqb2luOnJvdW5kO3N0cm9rZS1taXRlcmxpbWl0OjEwO30mI3hhOwkuc3Q2e2ZpbGw6bm9uZTtzdHJva2U6I0ZGRkZGRjtzdHJva2Utd2lkdGg6NC4yMzMzO3N0cm9rZS1saW5lY2FwOnJvdW5kO3N0cm9rZS1saW5lam9pbjpyb3VuZDtzdHJva2UtbWl0ZXJsaW1pdDoxMDt9JiN4YTsJLnN0N3tmaWxsOm5vbmU7c3Ryb2tlOiNGRkZGRkY7c3Ryb2tlLXdpZHRoOjQ7c3Ryb2tlLWxpbmVjYXA6cm91bmQ7c3Ryb2tlLW1pdGVybGltaXQ6MTA7fSYjeGE7CS5zdDh7ZmlsbDojRkZGRkZGO3N0cm9rZTojRkZGRkZGO3N0cm9rZS13aWR0aDo0O3N0cm9rZS1taXRlcmxpbWl0OjEwO30mI3hhOwkuc3Q5e2ZpbGw6I0ZGRkZGRjtzdHJva2U6I0ZGRkZGRjtzdHJva2Utd2lkdGg6NDt9JiN4YTsJLnN0MTB7ZmlsbDpub25lO3N0cm9rZTojRkZGRkZGO3N0cm9rZS13aWR0aDo0O30mI3hhOwkuc3QxMXtmaWxsOiMyNjI2MjY7c3Ryb2tlOiNGRkZGRkY7c3Ryb2tlLXdpZHRoOjQuMjMzMzt9JiN4YTsJLnN0MTJ7ZmlsbC1ydWxlOmV2ZW5vZGQ7Y2xpcC1ydWxlOmV2ZW5vZGQ7ZmlsbDpub25lO3N0cm9rZTojRkZGRkZGO3N0cm9rZS13aWR0aDo0O3N0cm9rZS1taXRlcmxpbWl0OjEwO30mI3hhOwkuc3QxM3tmaWxsLXJ1bGU6ZXZlbm9kZDtjbGlwLXJ1bGU6ZXZlbm9kZDtmaWxsOiNGRkZGRkY7c3Ryb2tlOiNGRkZGRkY7c3Ryb2tlLXdpZHRoOjQ7fSYjeGE7CS5zdDE0e2ZpbGw6bm9uZTtzdHJva2U6I0ZGRkZGRjtzdHJva2Utd2lkdGg6NC4yMzMzO3N0cm9rZS1saW5lY2FwOnJvdW5kO3N0cm9rZS1saW5lam9pbjpyb3VuZDt9JiN4YTsJLnN0MTV7ZmlsbDpub25lO3N0cm9rZTojRkZGRkZGO3N0cm9rZS13aWR0aDo0O3N0cm9rZS1saW5lY2FwOnJvdW5kO30mI3hhOwkuc3QxNntmaWxsOiNGRkZGRkY7c3Ryb2tlOiNGRkZGRkY7c3Ryb2tlLW1pdGVybGltaXQ6MTA7fSYjeGE7CS5zdDE3e2ZpbGw6IzI2MjYyNjtzdHJva2U6I0ZGRkZGRjtzdHJva2Utd2lkdGg6NDtzdHJva2UtbWl0ZXJsaW1pdDoxMDt9JiN4YTsJLnN0MTh7ZmlsbDojRkZGRkZGO3N0cm9rZTojRkZGRkZGO3N0cm9rZS13aWR0aDo0O3N0cm9rZS1saW5lY2FwOnJvdW5kO3N0cm9rZS1saW5lam9pbjpyb3VuZDt9JiN4YTs8L3N0eWxlPiYjeGE7PHJlY3QgaGVpZ2h0PSIxMjAiIHdpZHRoPSIxMjAiIGNsYXNzPSJzdDAiLz4mI3hhOzxnPiYjeGE7CTxnPiYjeGE7CQk8cGF0aCBkPSJNNzEuNywxOS43VjQ4aDI4IiBjbGFzcz0ic3QxIi8+JiN4YTsJCTxwYXRoIGQ9Ik05MS4yLDM4LjVsNy41LDcuNmMxLjMsMS4zLDEuMywzLjEsMCw0LjNMOTEuMSw1OCIgY2xhc3M9InN0MSIvPiYjeGE7CTwvZz4mI3hhOwk8Zz4mI3hhOwkJPHBhdGggZD0iTTIwLDQ3LjhoMjguNHYtMjgiIGNsYXNzPSJzdDEiLz4mI3hhOwkJPHBhdGggZD0iTTM4LjgsMjguM2w3LjYtNy41YzEuMy0xLjMsMy4xLTEuMyw0LjMsMGw3LjcsNy42IiBjbGFzcz0ic3QxIi8+JiN4YTsJPC9nPiYjeGE7CTxnPiYjeGE7CQk8cGF0aCBkPSJNNDgsMTAwLjNWNzJIMjAiIGNsYXNzPSJzdDEiLz4mI3hhOwkJPHBhdGggZD0iTTI4LjUsODEuNUwyMSw3My45Yy0xLjMtMS4zLTEuMy0zLjEsMC00LjNsNy42LTcuNyIgY2xhc3M9InN0MSIvPiYjeGE7CTwvZz4mI3hhOwk8Zz4mI3hhOwkJPHBhdGggZD0iTTEwMCw3MS45SDcxLjZ2MjgiIGNsYXNzPSJzdDEiLz4mI3hhOwkJPHBhdGggZD0iTTgxLjIsOTEuNGwtNy42LDcuNWMtMS4zLDEuMy0zLjEsMS4zLTQuMywwbC03LjctNy42IiBjbGFzcz0ic3QxIi8+JiN4YTsJPC9nPiYjeGE7PC9nPiYjeGE7PC9zdmc+;" vertex="1" parent="1">
          <mxGeometry x="797.5" y="598.75" width="75" height="75" as="geometry" />
      </mxCell>
    </object><object id="clab-red-hospital-border-leaf1" label="border-leaf1">
      <mxCell style="shape=image;imageAlign=center;imageVerticalAlign=middle;labelPosition=left;align=right;verticalLabelPosition=top;spacingLeft=0;verticalAlign=bottom;spacingTop=0;spacing=0;editableCssRules=\.st[0-2]$;labelBackgroundColor=none;aspect=fixed;imageAspect=0;image=data:image/svg+xml,PHN2ZyB4bWxuczp4bGluaz0iaHR0cDovL3d3dy53My5vcmcvMTk5OS94bGluayIgeG1sbnM9Imh0dHA6Ly93d3cudzMub3JnLzIwMDAvc3ZnIiB4bWw6c3BhY2U9InByZXNlcnZlIiBzdHlsZT0iZW5hYmxlLWJhY2tncm91bmQ6bmV3IDAgMCAxMjAgMTIwO2VkaXRhYmxlQ3NzUnVsZXM9Lio7IiB2aWV3Qm94PSIwIDAgMTIwIDEyMCIgeT0iMHB4IiB4PSIwcHgiIGlkPSJMYXllcl8xIiB2ZXJzaW9uPSIxLjEiPiYjeGE7PHN0eWxlIHR5cGU9InRleHQvY3NzIj4mI3hhOwkuc3Qwe2ZpbGw6IzAwMTEzNTt9JiN4YTsJLnN0MXtmaWxsOm5vbmU7c3Ryb2tlOiNGRkZGRkY7c3Ryb2tlLXdpZHRoOjQ7c3Ryb2tlLWxpbmVjYXA6cm91bmQ7c3Ryb2tlLWxpbmVqb2luOnJvdW5kO3N0cm9rZS1taXRlcmxpbWl0OjEwO30mI3hhOwkuc3Qye2ZpbGw6I0ZGRkZGRjt9JiN4YTsJLnN0M3tmaWxsOm5vbmU7c3Ryb2tlOiNGRkZGRkY7c3Ryb2tlLXdpZHRoOjQ7c3Ryb2tlLW1pdGVybGltaXQ6MTA7fSYjeGE7CS5zdDR7ZmlsbDpub25lO3N0cm9rZTojRkZGRkZGO3N0cm9rZS13aWR0aDo0O3N0cm9rZS1saW5lY2FwOnJvdW5kO3N0cm9rZS1saW5lam9pbjpyb3VuZDt9JiN4YTsJLnN0NXtmaWxsOiNGRkZGRkY7c3Ryb2tlOiNGRkZGRkY7c3Ryb2tlLXdpZHRoOjQ7c3Ryb2tlLWxpbmVjYXA6cm91bmQ7c3Ryb2tlLWxpbmVqb2luOnJvdW5kO3N0cm9rZS1taXRlcmxpbWl0OjEwO30mI3hhOwkuc3Q2e2ZpbGw6bm9uZTtzdHJva2U6I0ZGRkZGRjtzdHJva2Utd2lkdGg6NC4yMzMzO3N0cm9rZS1saW5lY2FwOnJvdW5kO3N0cm9rZS1saW5lam9pbjpyb3VuZDtzdHJva2UtbWl0ZXJsaW1pdDoxMDt9JiN4YTsJLnN0N3tmaWxsOm5vbmU7c3Ryb2tlOiNGRkZGRkY7c3Ryb2tlLXdpZHRoOjQ7c3Ryb2tlLWxpbmVjYXA6cm91bmQ7c3Ryb2tlLW1pdGVybGltaXQ6MTA7fSYjeGE7CS5zdDh7ZmlsbDojRkZGRkZGO3N0cm9rZTojRkZGRkZGO3N0cm9rZS13aWR0aDo0O3N0cm9rZS1taXRlcmxpbWl0OjEwO30mI3hhOwkuc3Q5e2ZpbGw6I0ZGRkZGRjtzdHJva2U6I0ZGRkZGRjtzdHJva2Utd2lkdGg6NDt9JiN4YTsJLnN0MTB7ZmlsbDpub25lO3N0cm9rZTojRkZGRkZGO3N0cm9rZS13aWR0aDo0O30mI3hhOwkuc3QxMXtmaWxsOiMyNjI2MjY7c3Ryb2tlOiNGRkZGRkY7c3Ryb2tlLXdpZHRoOjQuMjMzMzt9JiN4YTsJLnN0MTJ7ZmlsbC1ydWxlOmV2ZW5vZGQ7Y2xpcC1ydWxlOmV2ZW5vZGQ7ZmlsbDpub25lO3N0cm9rZTojRkZGRkZGO3N0cm9rZS13aWR0aDo0O3N0cm9rZS1taXRlcmxpbWl0OjEwO30mI3hhOwkuc3QxM3tmaWxsLXJ1bGU6ZXZlbm9kZDtjbGlwLXJ1bGU6ZXZlbm9kZDtmaWxsOiNGRkZGRkY7c3Ryb2tlOiNGRkZGRkY7c3Ryb2tlLXdpZHRoOjQ7fSYjeGE7CS5zdDE0e2ZpbGw6bm9uZTtzdHJva2U6I0ZGRkZGRjtzdHJva2Utd2lkdGg6NC4yMzMzO3N0cm9rZS1saW5lY2FwOnJvdW5kO3N0cm9rZS1saW5lam9pbjpyb3VuZDt9JiN4YTsJLnN0MTV7ZmlsbDpub25lO3N0cm9rZTojRkZGRkZGO3N0cm9rZS13aWR0aDo0O3N0cm9rZS1saW5lY2FwOnJvdW5kO30mI3hhOwkuc3QxNntmaWxsOiNGRkZGRkY7c3Ryb2tlOiNGRkZGRkY7c3Ryb2tlLW1pdGVybGltaXQ6MTA7fSYjeGE7CS5zdDE3e2ZpbGw6IzI2MjYyNjtzdHJva2U6I0ZGRkZGRjtzdHJva2Utd2lkdGg6NDtzdHJva2UtbWl0ZXJsaW1pdDoxMDt9JiN4YTsJLnN0MTh7ZmlsbDojRkZGRkZGO3N0cm9rZTojRkZGRkZGO3N0cm9rZS13aWR0aDo0O3N0cm9rZS1saW5lY2FwOnJvdW5kO3N0cm9rZS1saW5lam9pbjpyb3VuZDt9JiN4YTs8L3N0eWxlPiYjeGE7PHJlY3QgaGVpZ2h0PSIxMjAiIHdpZHRoPSIxMjAiIGNsYXNzPSJzdDAiLz4mI3hhOzxnPiYjeGE7CTxnPiYjeGE7CQk8cGF0aCBkPSJNNzEuNywxOS43VjQ4aDI4IiBjbGFzcz0ic3QxIi8+JiN4YTsJCTxwYXRoIGQ9Ik05MS4yLDM4LjVsNy41LDcuNmMxLjMsMS4zLDEuMywzLjEsMCw0LjNMOTEuMSw1OCIgY2xhc3M9InN0MSIvPiYjeGE7CTwvZz4mI3hhOwk8Zz4mI3hhOwkJPHBhdGggZD0iTTIwLDQ3LjhoMjguNHYtMjgiIGNsYXNzPSJzdDEiLz4mI3hhOwkJPHBhdGggZD0iTTM4LjgsMjguM2w3LjYtNy41YzEuMy0xLjMsMy4xLTEuMyw0LjMsMGw3LjcsNy42IiBjbGFzcz0ic3QxIi8+JiN4YTsJPC9nPiYjeGE7CTxnPiYjeGE7CQk8cGF0aCBkPSJNNDgsMTAwLjNWNzJIMjAiIGNsYXNzPSJzdDEiLz4mI3hhOwkJPHBhdGggZD0iTTI4LjUsODEuNUwyMSw3My45Yy0xLjMtMS4zLTEuMy0zLjEsMC00LjNsNy42LTcuNyIgY2xhc3M9InN0MSIvPiYjeGE7CTwvZz4mI3hhOwk8Zz4mI3hhOwkJPHBhdGggZD0iTTEwMCw3MS45SDcxLjZ2MjgiIGNsYXNzPSJzdDEiLz4mI3hhOwkJPHBhdGggZD0iTTgxLjIsOTEuNGwtNy42LDcuNWMtMS4zLDEuMy0zLjEsMS4zLTQuMywwbC03LjctNy42IiBjbGFzcz0ic3QxIi8+JiN4YTsJPC9nPiYjeGE7PC9nPiYjeGE7PC9zdmc+;" vertex="1" parent="1">
          <mxGeometry x="437.5" y="362.5" width="75" height="75" as="geometry" />
      </mxCell>
    </object><object id="clab-red-hospital-border-leaf2" label="border-leaf2">
      <mxCell style="shape=image;imageAlign=center;imageVerticalAlign=middle;labelPosition=left;align=right;verticalLabelPosition=top;spacingLeft=0;verticalAlign=bottom;spacingTop=0;spacing=0;editableCssRules=\.st[0-2]$;labelBackgroundColor=none;aspect=fixed;imageAspect=0;image=data:image/svg+xml,PHN2ZyB4bWxuczp4bGluaz0iaHR0cDovL3d3dy53My5vcmcvMTk5OS94bGluayIgeG1sbnM9Imh0dHA6Ly93d3cudzMub3JnLzIwMDAvc3ZnIiB4bWw6c3BhY2U9InByZXNlcnZlIiBzdHlsZT0iZW5hYmxlLWJhY2tncm91bmQ6bmV3IDAgMCAxMjAgMTIwO2VkaXRhYmxlQ3NzUnVsZXM9Lio7IiB2aWV3Qm94PSIwIDAgMTIwIDEyMCIgeT0iMHB4IiB4PSIwcHgiIGlkPSJMYXllcl8xIiB2ZXJzaW9uPSIxLjEiPiYjeGE7PHN0eWxlIHR5cGU9InRleHQvY3NzIj4mI3hhOwkuc3Qwe2ZpbGw6IzAwMTEzNTt9JiN4YTsJLnN0MXtmaWxsOm5vbmU7c3Ryb2tlOiNGRkZGRkY7c3Ryb2tlLXdpZHRoOjQ7c3Ryb2tlLWxpbmVjYXA6cm91bmQ7c3Ryb2tlLWxpbmVqb2luOnJvdW5kO3N0cm9rZS1taXRlcmxpbWl0OjEwO30mI3hhOwkuc3Qye2ZpbGw6I0ZGRkZGRjt9JiN4YTsJLnN0M3tmaWxsOm5vbmU7c3Ryb2tlOiNGRkZGRkY7c3Ryb2tlLXdpZHRoOjQ7c3Ryb2tlLW1pdGVybGltaXQ6MTA7fSYjeGE7CS5zdDR7ZmlsbDpub25lO3N0cm9rZTojRkZGRkZGO3N0cm9rZS13aWR0aDo0O3N0cm9rZS1saW5lY2FwOnJvdW5kO3N0cm9rZS1saW5lam9pbjpyb3VuZDt9JiN4YTsJLnN0NXtmaWxsOiNGRkZGRkY7c3Ryb2tlOiNGRkZGRkY7c3Ryb2tlLXdpZHRoOjQ7c3Ryb2tlLWxpbmVjYXA6cm91bmQ7c3Ryb2tlLWxpbmVqb2luOnJvdW5kO3N0cm9rZS1taXRlcmxpbWl0OjEwO30mI3hhOwkuc3Q2e2ZpbGw6bm9uZTtzdHJva2U6I0ZGRkZGRjtzdHJva2Utd2lkdGg6NC4yMzMzO3N0cm9rZS1saW5lY2FwOnJvdW5kO3N0cm9rZS1saW5lam9pbjpyb3VuZDtzdHJva2UtbWl0ZXJsaW1pdDoxMDt9JiN4YTsJLnN0N3tmaWxsOm5vbmU7c3Ryb2tlOiNGRkZGRkY7c3Ryb2tlLXdpZHRoOjQ7c3Ryb2tlLWxpbmVjYXA6cm91bmQ7c3Ryb2tlLW1pdGVybGltaXQ6MTA7fSYjeGE7CS5zdDh7ZmlsbDojRkZGRkZGO3N0cm9rZTojRkZGRkZGO3N0cm9rZS13aWR0aDo0O3N0cm9rZS1taXRlcmxpbWl0OjEwO30mI3hhOwkuc3Q5e2ZpbGw6I0ZGRkZGRjtzdHJva2U6I0ZGRkZGRjtzdHJva2Utd2lkdGg6NDt9JiN4YTsJLnN0MTB7ZmlsbDpub25lO3N0cm9rZTojRkZGRkZGO3N0cm9rZS13aWR0aDo0O30mI3hhOwkuc3QxMXtmaWxsOiMyNjI2MjY7c3Ryb2tlOiNGRkZGRkY7c3Ryb2tlLXdpZHRoOjQuMjMzMzt9JiN4YTsJLnN0MTJ7ZmlsbC1ydWxlOmV2ZW5vZGQ7Y2xpcC1ydWxlOmV2ZW5vZGQ7ZmlsbDpub25lO3N0cm9rZTojRkZGRkZGO3N0cm9rZS13aWR0aDo0O3N0cm9rZS1taXRlcmxpbWl0OjEwO30mI3hhOwkuc3QxM3tmaWxsLXJ1bGU6ZXZlbm9kZDtjbGlwLXJ1bGU6ZXZlbm9kZDtmaWxsOiNGRkZGRkY7c3Ryb2tlOiNGRkZGRkY7c3Ryb2tlLXdpZHRoOjQ7fSYjeGE7CS5zdDE0e2ZpbGw6bm9uZTtzdHJva2U6I0ZGRkZGRjtzdHJva2Utd2lkdGg6NC4yMzMzO3N0cm9rZS1saW5lY2FwOnJvdW5kO3N0cm9rZS1saW5lam9pbjpyb3VuZDt9JiN4YTsJLnN0MTV7ZmlsbDpub25lO3N0cm9rZTojRkZGRkZGO3N0cm9rZS13aWR0aDo0O3N0cm9rZS1saW5lY2FwOnJvdW5kO30mI3hhOwkuc3QxNntmaWxsOiNGRkZGRkY7c3Ryb2tlOiNGRkZGRkY7c3Ryb2tlLW1pdGVybGltaXQ6MTA7fSYjeGE7CS5zdDE3e2ZpbGw6IzI2MjYyNjtzdHJva2U6I0ZGRkZGRjtzdHJva2Utd2lkdGg6NDtzdHJva2UtbWl0ZXJsaW1pdDoxMDt9JiN4YTsJLnN0MTh7ZmlsbDojRkZGRkZGO3N0cm9rZTojRkZGRkZGO3N0cm9rZS13aWR0aDo0O3N0cm9rZS1saW5lY2FwOnJvdW5kO3N0cm9rZS1saW5lam9pbjpyb3VuZDt9JiN4YTs8L3N0eWxlPiYjeGE7PHJlY3QgaGVpZ2h0PSIxMjAiIHdpZHRoPSIxMjAiIGNsYXNzPSJzdDAiLz4mI3hhOzxnPiYjeGE7CTxnPiYjeGE7CQk8cGF0aCBkPSJNNzEuNywxOS43VjQ4aDI4IiBjbGFzcz0ic3QxIi8+JiN4YTsJCTxwYXRoIGQ9Ik05MS4yLDM4LjVsNy41LDcuNmMxLjMsMS4zLDEuMywzLjEsMCw0LjNMOTEuMSw1OCIgY2xhc3M9InN0MSIvPiYjeGE7CTwvZz4mI3hhOwk8Zz4mI3hhOwkJPHBhdGggZD0iTTIwLDQ3LjhoMjguNHYtMjgiIGNsYXNzPSJzdDEiLz4mI3hhOwkJPHBhdGggZD0iTTM4LjgsMjguM2w3LjYtNy41YzEuMy0xLjMsMy4xLTEuMyw0LjMsMGw3LjcsNy42IiBjbGFzcz0ic3QxIi8+JiN4YTsJPC9nPiYjeGE7CTxnPiYjeGE7CQk8cGF0aCBkPSJNNDgsMTAwLjNWNzJIMjAiIGNsYXNzPSJzdDEiLz4mI3hhOwkJPHBhdGggZD0iTTI4LjUsODEuNUwyMSw3My45Yy0xLjMtMS4zLTEuMy0zLjEsMC00LjNsNy42LTcuNyIgY2xhc3M9InN0MSIvPiYjeGE7CTwvZz4mI3hhOwk8Zz4mI3hhOwkJPHBhdGggZD0iTTEwMCw3MS45SDcxLjZ2MjgiIGNsYXNzPSJzdDEiLz4mI3hhOwkJPHBhdGggZD0iTTgxLjIsOTEuNGwtNy42LDcuNWMtMS4zLDEuMy0zLjEsMS4zLTQuMywwbC03LjctNy42IiBjbGFzcz0ic3QxIi8+JiN4YTsJPC9nPiYjeGE7PC9nPiYjeGE7PC9zdmc+;" vertex="1" parent="1">
          <mxGeometry x="662.5" y="362.5" width="75" height="75" as="geometry" />
      </mxCell>
    </object><object id="clab-red-hospital-fw_fortinet" label="fw_fortinet">
      <mxCell style="shape=image;imageAlign=center;imageVerticalAlign=middle;labelPosition=left;align=right;verticalLabelPosition=top;spacingLeft=0;verticalAlign=bottom;spacingTop=0;spacing=0;editableCssRules=\.st[0-2]$;labelBackgroundColor=none;aspect=fixed;imageAspect=0;image=data:image/svg+xml,PHN2ZyB4bWxuczp4bGluaz0iaHR0cDovL3d3dy53My5vcmcvMTk5OS94bGluayIgeG1sbnM9Imh0dHA6Ly93d3cudzMub3JnLzIwMDAvc3ZnIiB4bWw6c3BhY2U9InByZXNlcnZlIiBzdHlsZT0iZW5hYmxlLWJhY2tncm91bmQ6bmV3IDAgMCAxMjAgMTIwO2VkaXRhYmxlQ3NzUnVsZXM9Lio7IiB2aWV3Qm94PSIwIDAgMTIwIDEyMCIgeT0iMHB4IiB4PSIwcHgiIGlkPSJMYXllcl8xIiB2ZXJzaW9uPSIxLjEiPiYjeGE7PHN0eWxlIHR5cGU9InRleHQvY3NzIj4mI3hhOwkuc3Qwe2ZpbGw6IzAwMTEzNTt9JiN4YTsJLnN0MXtmaWxsOm5vbmU7c3Ryb2tlOiNGRkZGRkY7c3Ryb2tlLXdpZHRoOjQ7c3Ryb2tlLWxpbmVjYXA6cm91bmQ7c3Ryb2tlLWxpbmVqb2luOnJvdW5kO3N0cm9rZS1taXRlcmxpbWl0OjEwO30mI3hhOwkuc3Qye2ZpbGw6I0ZGRkZGRjt9JiN4YTsJLnN0M3tmaWxsOm5vbmU7c3Ryb2tlOiNGRkZGRkY7c3Ryb2tlLXdpZHRoOjQ7c3Ryb2tlLW1pdGVybGltaXQ6MTA7fSYjeGE7CS5zdDR7ZmlsbDpub25lO3N0cm9rZTojRkZGRkZGO3N0cm9rZS13aWR0aDo0O3N0cm9rZS1saW5lY2FwOnJvdW5kO3N0cm9rZS1saW5lam9pbjpyb3VuZDt9JiN4YTsJLnN0NXtmaWxsOiNGRkZGRkY7c3Ryb2tlOiNGRkZGRkY7c3Ryb2tlLXdpZHRoOjQ7c3Ryb2tlLWxpbmVjYXA6cm91bmQ7c3Ryb2tlLWxpbmVqb2luOnJvdW5kO3N0cm9rZS1taXRlcmxpbWl0OjEwO30mI3hhOwkuc3Q2e2ZpbGw6bm9uZTtzdHJva2U6I0ZGRkZGRjtzdHJva2Utd2lkdGg6NC4yMzMzO3N0cm9rZS1saW5lY2FwOnJvdW5kO3N0cm9rZS1saW5lam9pbjpyb3VuZDtzdHJva2UtbWl0ZXJsaW1pdDoxMDt9JiN4YTsJLnN0N3tmaWxsOm5vbmU7c3Ryb2tlOiNGRkZGRkY7c3Ryb2tlLXdpZHRoOjQ7c3Ryb2tlLWxpbmVjYXA6cm91bmQ7c3Ryb2tlLW1pdGVybGltaXQ6MTA7fSYjeGE7CS5zdDh7ZmlsbDojRkZGRkZGO3N0cm9rZTojRkZGRkZGO3N0cm9rZS13aWR0aDo0O3N0cm9rZS1taXRlcmxpbWl0OjEwO30mI3hhOwkuc3Q5e2ZpbGw6I0ZGRkZGRjtzdHJva2U6I0ZGRkZGRjtzdHJva2Utd2lkdGg6NDt9JiN4YTsJLnN0MTB7ZmlsbDpub25lO3N0cm9rZTojRkZGRkZGO3N0cm9rZS13aWR0aDo0O30mI3hhOwkuc3QxMXtmaWxsOiMyNjI2MjY7c3Ryb2tlOiNGRkZGRkY7c3Ryb2tlLXdpZHRoOjQuMjMzMzt9JiN4YTsJLnN0MTJ7ZmlsbC1ydWxlOmV2ZW5vZGQ7Y2xpcC1ydWxlOmV2ZW5vZGQ7ZmlsbDpub25lO3N0cm9rZTojRkZGRkZGO3N0cm9rZS13aWR0aDo0O3N0cm9rZS1taXRlcmxpbWl0OjEwO30mI3hhOwkuc3QxM3tmaWxsLXJ1bGU6ZXZlbm9kZDtjbGlwLXJ1bGU6ZXZlbm9kZDtmaWxsOiNGRkZGRkY7c3Ryb2tlOiNGRkZGRkY7c3Ryb2tlLXdpZHRoOjQ7fSYjeGE7CS5zdDE0e2ZpbGw6bm9uZTtzdHJva2U6I0ZGRkZGRjtzdHJva2Utd2lkdGg6NC4yMzMzO3N0cm9rZS1saW5lY2FwOnJvdW5kO3N0cm9rZS1saW5lam9pbjpyb3VuZDt9JiN4YTsJLnN0MTV7ZmlsbDpub25lO3N0cm9rZTojRkZGRkZGO3N0cm9rZS13aWR0aDo0O3N0cm9rZS1saW5lY2FwOnJvdW5kO30mI3hhOwkuc3QxNntmaWxsOiNGRkZGRkY7c3Ryb2tlOiNGRkZGRkY7c3Ryb2tlLW1pdGVybGltaXQ6MTA7fSYjeGE7CS5zdDE3e2ZpbGw6IzI2MjYyNjtzdHJva2U6I0ZGRkZGRjtzdHJva2Utd2lkdGg6NDtzdHJva2UtbWl0ZXJsaW1pdDoxMDt9JiN4YTsJLnN0MTh7ZmlsbDojRkZGRkZGO3N0cm9rZTojRkZGRkZGO3N0cm9rZS13aWR0aDo0O3N0cm9rZS1saW5lY2FwOnJvdW5kO3N0cm9rZS1saW5lam9pbjpyb3VuZDt9JiN4YTs8L3N0eWxlPiYjeGE7PHJlY3QgaGVpZ2h0PSIxMjAiIHdpZHRoPSIxMjAiIGNsYXNzPSJzdDAiLz4mI3hhOzxnPiYjeGE7CTxnPiYjeGE7CQk8cGF0aCBkPSJNNzEuNywxOS43VjQ4aDI4IiBjbGFzcz0ic3QxIi8+JiN4YTsJCTxwYXRoIGQ9Ik05MS4yLDM4LjVsNy41LDcuNmMxLjMsMS4zLDEuMywzLjEsMCw0LjNMOTEuMSw1OCIgY2xhc3M9InN0MSIvPiYjeGE7CTwvZz4mI3hhOwk8Zz4mI3hhOwkJPHBhdGggZD0iTTIwLDQ3LjhoMjguNHYtMjgiIGNsYXNzPSJzdDEiLz4mI3hhOwkJPHBhdGggZD0iTTM4LjgsMjguM2w3LjYtNy41YzEuMy0xLjMsMy4xLTEuMyw0LjMsMGw3LjcsNy42IiBjbGFzcz0ic3QxIi8+JiN4YTsJPC9nPiYjeGE7CTxnPiYjeGE7CQk8cGF0aCBkPSJNNDgsMTAwLjNWNzJIMjAiIGNsYXNzPSJzdDEiLz4mI3hhOwkJPHBhdGggZD0iTTI4LjUsODEuNUwyMSw3My45Yy0xLjMtMS4zLTEuMy0zLjEsMC00LjNsNy42LTcuNyIgY2xhc3M9InN0MSIvPiYjeGE7CTwvZz4mI3hhOwk8Zz4mI3hhOwkJPHBhdGggZD0iTTEwMCw3MS45SDcxLjZ2MjgiIGNsYXNzPSJzdDEiLz4mI3hhOwkJPHBhdGggZD0iTTgxLjIsOTEuNGwtNy42LDcuNWMtMS4zLDEuMy0zLjEsMS4zLTQuMywwbC03LjctNy42IiBjbGFzcz0ic3QxIi8+JiN4YTsJPC9nPiYjeGE7PC9nPiYjeGE7PC9zdmc+;" vertex="1" parent="1">
          <mxGeometry x="550.0" y="336.25" width="75" height="75" as="geometry" />
      </mxCell>
    </object><object id="clab-red-hospital-fw_paloalto" label="fw_paloalto">
      <mxCell style="shape=image;imageAlign=center;imageVerticalAlign=middle;labelPosition=left;align=right;verticalLabelPosition=top;spacingLeft=0;verticalAlign=bottom;spacingTop=0;spacing=0;editableCssRules=\.st[0-2]$;labelBackgroundColor=none;aspect=fixed;imageAspect=0;image=data:image/svg+xml,PHN2ZyB4bWxuczp4bGluaz0iaHR0cDovL3d3dy53My5vcmcvMTk5OS94bGluayIgeG1sbnM9Imh0dHA6Ly93d3cudzMub3JnLzIwMDAvc3ZnIiB4bWw6c3BhY2U9InByZXNlcnZlIiBzdHlsZT0iZW5hYmxlLWJhY2tncm91bmQ6bmV3IDAgMCAxMjAgMTIwO2VkaXRhYmxlQ3NzUnVsZXM9Lio7IiB2aWV3Qm94PSIwIDAgMTIwIDEyMCIgeT0iMHB4IiB4PSIwcHgiIGlkPSJMYXllcl8xIiB2ZXJzaW9uPSIxLjEiPiYjeGE7PHN0eWxlIHR5cGU9InRleHQvY3NzIj4mI3hhOwkuc3Qwe2ZpbGw6IzAwMTEzNTt9JiN4YTsJLnN0MXtmaWxsOm5vbmU7c3Ryb2tlOiNGRkZGRkY7c3Ryb2tlLXdpZHRoOjQ7c3Ryb2tlLWxpbmVjYXA6cm91bmQ7c3Ryb2tlLWxpbmVqb2luOnJvdW5kO3N0cm9rZS1taXRlcmxpbWl0OjEwO30mI3hhOwkuc3Qye2ZpbGw6I0ZGRkZGRjt9JiN4YTsJLnN0M3tmaWxsOm5vbmU7c3Ryb2tlOiNGRkZGRkY7c3Ryb2tlLXdpZHRoOjQ7c3Ryb2tlLW1pdGVybGltaXQ6MTA7fSYjeGE7CS5zdDR7ZmlsbDpub25lO3N0cm9rZTojRkZGRkZGO3N0cm9rZS13aWR0aDo0O3N0cm9rZS1saW5lY2FwOnJvdW5kO3N0cm9rZS1saW5lam9pbjpyb3VuZDt9JiN4YTsJLnN0NXtmaWxsOiNGRkZGRkY7c3Ryb2tlOiNGRkZGRkY7c3Ryb2tlLXdpZHRoOjQ7c3Ryb2tlLWxpbmVjYXA6cm91bmQ7c3Ryb2tlLWxpbmVqb2luOnJvdW5kO3N0cm9rZS1taXRlcmxpbWl0OjEwO30mI3hhOwkuc3Q2e2ZpbGw6bm9uZTtzdHJva2U6I0ZGRkZGRjtzdHJva2Utd2lkdGg6NC4yMzMzO3N0cm9rZS1saW5lY2FwOnJvdW5kO3N0cm9rZS1saW5lam9pbjpyb3VuZDtzdHJva2UtbWl0ZXJsaW1pdDoxMDt9JiN4YTsJLnN0N3tmaWxsOm5vbmU7c3Ryb2tlOiNGRkZGRkY7c3Ryb2tlLXdpZHRoOjQ7c3Ryb2tlLWxpbmVjYXA6cm91bmQ7c3Ryb2tlLW1pdGVybGltaXQ6MTA7fSYjeGE7CS5zdDh7ZmlsbDojRkZGRkZGO3N0cm9rZTojRkZGRkZGO3N0cm9rZS13aWR0aDo0O3N0cm9rZS1taXRlcmxpbWl0OjEwO30mI3hhOwkuc3Q5e2ZpbGw6I0ZGRkZGRjtzdHJva2U6I0ZGRkZGRjtzdHJva2Utd2lkdGg6NDt9JiN4YTsJLnN0MTB7ZmlsbDpub25lO3N0cm9rZTojRkZGRkZGO3N0cm9rZS13aWR0aDo0O30mI3hhOwkuc3QxMXtmaWxsOiMyNjI2MjY7c3Ryb2tlOiNGRkZGRkY7c3Ryb2tlLXdpZHRoOjQuMjMzMzt9JiN4YTsJLnN0MTJ7ZmlsbC1ydWxlOmV2ZW5vZGQ7Y2xpcC1ydWxlOmV2ZW5vZGQ7ZmlsbDpub25lO3N0cm9rZTojRkZGRkZGO3N0cm9rZS13aWR0aDo0O3N0cm9rZS1taXRlcmxpbWl0OjEwO30mI3hhOwkuc3QxM3tmaWxsLXJ1bGU6ZXZlbm9kZDtjbGlwLXJ1bGU6ZXZlbm9kZDtmaWxsOiNGRkZGRkY7c3Ryb2tlOiNGRkZGRkY7c3Ryb2tlLXdpZHRoOjQ7fSYjeGE7CS5zdDE0e2ZpbGw6bm9uZTtzdHJva2U6I0ZGRkZGRjtzdHJva2Utd2lkdGg6NC4yMzMzO3N0cm9rZS1saW5lY2FwOnJvdW5kO3N0cm9rZS1saW5lam9pbjpyb3VuZDt9JiN4YTsJLnN0MTV7ZmlsbDpub25lO3N0cm9rZTojRkZGRkZGO3N0cm9rZS13aWR0aDo0O3N0cm9rZS1saW5lY2FwOnJvdW5kO30mI3hhOwkuc3QxNntmaWxsOiNGRkZGRkY7c3Ryb2tlOiNGRkZGRkY7c3Ryb2tlLW1pdGVybGltaXQ6MTA7fSYjeGE7CS5zdDE3e2ZpbGw6IzI2MjYyNjtzdHJva2U6I0ZGRkZGRjtzdHJva2Utd2lkdGg6NDtzdHJva2UtbWl0ZXJsaW1pdDoxMDt9JiN4YTsJLnN0MTh7ZmlsbDojRkZGRkZGO3N0cm9rZTojRkZGRkZGO3N0cm9rZS13aWR0aDo0O3N0cm9rZS1saW5lY2FwOnJvdW5kO3N0cm9rZS1saW5lam9pbjpyb3VuZDt9JiN4YTs8L3N0eWxlPiYjeGE7PHJlY3QgaGVpZ2h0PSIxMjAiIHdpZHRoPSIxMjAiIGNsYXNzPSJzdDAiLz4mI3hhOzxnPiYjeGE7CTxnPiYjeGE7CQk8cGF0aCBkPSJNNzEuNywxOS43VjQ4aDI4IiBjbGFzcz0ic3QxIi8+JiN4YTsJCTxwYXRoIGQ9Ik05MS4yLDM4LjVsNy41LDcuNmMxLjMsMS4zLDEuMywzLjEsMCw0LjNMOTEuMSw1OCIgY2xhc3M9InN0MSIvPiYjeGE7CTwvZz4mI3hhOwk8Zz4mI3hhOwkJPHBhdGggZD0iTTIwLDQ3LjhoMjguNHYtMjgiIGNsYXNzPSJzdDEiLz4mI3hhOwkJPHBhdGggZD0iTTM4LjgsMjguM2w3LjYtNy41YzEuMy0xLjMsMy4xLTEuMyw0LjMsMGw3LjcsNy42IiBjbGFzcz0ic3QxIi8+JiN4YTsJPC9nPiYjeGE7CTxnPiYjeGE7CQk8cGF0aCBkPSJNNDgsMTAwLjNWNzJIMjAiIGNsYXNzPSJzdDEiLz4mI3hhOwkJPHBhdGggZD0iTTI4LjUsODEuNUwyMSw3My45Yy0xLjMtMS4zLTEuMy0zLjEsMC00LjNsNy42LTcuNyIgY2xhc3M9InN0MSIvPiYjeGE7CTwvZz4mI3hhOwk8Zz4mI3hhOwkJPHBhdGggZD0iTTEwMCw3MS45SDcxLjZ2MjgiIGNsYXNzPSJzdDEiLz4mI3hhOwkJPHBhdGggZD0iTTgxLjIsOTEuNGwtNy42LDcuNWMtMS4zLDEuMy0zLjEsMS4zLTQuMywwbC03LjctNy42IiBjbGFzcz0ic3QxIi8+JiN4YTsJPC9nPiYjeGE7PC9nPiYjeGE7PC9zdmc+;" vertex="1" parent="1">
          <mxGeometry x="595.0" y="178.75" width="75" height="75" as="geometry" />
      </mxCell>
    </object><object id="clab-red-hospital-dns_dhcp_server" label="dns_dhcp_server">
      <mxCell style="shape=image;imageAlign=center;imageVerticalAlign=middle;labelPosition=left;align=right;verticalLabelPosition=top;spacingLeft=0;verticalAlign=bottom;spacingTop=0;spacing=0;editableCssRules=\.st[0-2]$;labelBackgroundColor=none;aspect=fixed;imageAspect=0;image=data:image/svg+xml,PHN2ZyB4bWxuczp4bGluaz0iaHR0cDovL3d3dy53My5vcmcvMTk5OS94bGluayIgeG1sbnM9Imh0dHA6Ly93d3cudzMub3JnLzIwMDAvc3ZnIiB4bWw6c3BhY2U9InByZXNlcnZlIiBzdHlsZT0iZW5hYmxlLWJhY2tncm91bmQ6bmV3IDAgMCAxMjAgMTIwO2VkaXRhYmxlQ3NzUnVsZXM9Lio7IiB2aWV3Qm94PSIwIDAgMTIwIDEyMCIgeT0iMHB4IiB4PSIwcHgiIGlkPSJMYXllcl8xIiB2ZXJzaW9uPSIxLjEiPiYjeGE7PHN0eWxlIHR5cGU9InRleHQvY3NzIj4mI3hhOwkuc3Qwe2ZpbGw6IzAwMTEzNTt9JiN4YTsJLnN0MXtmaWxsOm5vbmU7c3Ryb2tlOiNGRkZGRkY7c3Ryb2tlLXdpZHRoOjQ7c3Ryb2tlLWxpbmVjYXA6cm91bmQ7c3Ryb2tlLWxpbmVqb2luOnJvdW5kO3N0cm9rZS1taXRlcmxpbWl0OjEwO30mI3hhOwkuc3Qye2ZpbGw6I0ZGRkZGRjt9JiN4YTsJLnN0M3tmaWxsOm5vbmU7c3Ryb2tlOiNGRkZGRkY7c3Ryb2tlLXdpZHRoOjQ7c3Ryb2tlLW1pdGVybGltaXQ6MTA7fSYjeGE7CS5zdDR7ZmlsbDpub25lO3N0cm9rZTojRkZGRkZGO3N0cm9rZS13aWR0aDo0O3N0cm9rZS1saW5lY2FwOnJvdW5kO3N0cm9rZS1saW5lam9pbjpyb3VuZDt9JiN4YTsJLnN0NXtmaWxsOiNGRkZGRkY7c3Ryb2tlOiNGRkZGRkY7c3Ryb2tlLXdpZHRoOjQ7c3Ryb2tlLWxpbmVjYXA6cm91bmQ7c3Ryb2tlLWxpbmVqb2luOnJvdW5kO3N0cm9rZS1taXRlcmxpbWl0OjEwO30mI3hhOwkuc3Q2e2ZpbGw6bm9uZTtzdHJva2U6I0ZGRkZGRjtzdHJva2Utd2lkdGg6NC4yMzMzO3N0cm9rZS1saW5lY2FwOnJvdW5kO3N0cm9rZS1saW5lam9pbjpyb3VuZDtzdHJva2UtbWl0ZXJsaW1pdDoxMDt9JiN4YTsJLnN0N3tmaWxsOm5vbmU7c3Ryb2tlOiNGRkZGRkY7c3Ryb2tlLXdpZHRoOjQ7c3Ryb2tlLWxpbmVjYXA6cm91bmQ7c3Ryb2tlLW1pdGVybGltaXQ6MTA7fSYjeGE7CS5zdDh7ZmlsbDojRkZGRkZGO3N0cm9rZTojRkZGRkZGO3N0cm9rZS13aWR0aDo0O3N0cm9rZS1taXRlcmxpbWl0OjEwO30mI3hhOwkuc3Q5e2ZpbGw6I0ZGRkZGRjtzdHJva2U6I0ZGRkZGRjtzdHJva2Utd2lkdGg6NDt9JiN4YTsJLnN0MTB7ZmlsbDpub25lO3N0cm9rZTojRkZGRkZGO3N0cm9rZS13aWR0aDo0O30mI3hhOwkuc3QxMXtmaWxsOiMyNjI2MjY7c3Ryb2tlOiNGRkZGRkY7c3Ryb2tlLXdpZHRoOjQuMjMzMzt9JiN4YTsJLnN0MTJ7ZmlsbC1ydWxlOmV2ZW5vZGQ7Y2xpcC1ydWxlOmV2ZW5vZGQ7ZmlsbDpub25lO3N0cm9rZTojRkZGRkZGO3N0cm9rZS13aWR0aDo0O3N0cm9rZS1taXRlcmxpbWl0OjEwO30mI3hhOwkuc3QxM3tmaWxsLXJ1bGU6ZXZlbm9kZDtjbGlwLXJ1bGU6ZXZlbm9kZDtmaWxsOiNGRkZGRkY7c3Ryb2tlOiNGRkZGRkY7c3Ryb2tlLXdpZHRoOjQ7fSYjeGE7CS5zdDE0e2ZpbGw6bm9uZTtzdHJva2U6I0ZGRkZGRjtzdHJva2Utd2lkdGg6NC4yMzMzO3N0cm9rZS1saW5lY2FwOnJvdW5kO3N0cm9rZS1saW5lam9pbjpyb3VuZDt9JiN4YTsJLnN0MTV7ZmlsbDpub25lO3N0cm9rZTojRkZGRkZGO3N0cm9rZS13aWR0aDo0O3N0cm9rZS1saW5lY2FwOnJvdW5kO30mI3hhOwkuc3QxNntmaWxsOiNGRkZGRkY7c3Ryb2tlOiNGRkZGRkY7c3Ryb2tlLW1pdGVybGltaXQ6MTA7fSYjeGE7CS5zdDE3e2ZpbGw6IzI2MjYyNjtzdHJva2U6I0ZGRkZGRjtzdHJva2Utd2lkdGg6NDtzdHJva2UtbWl0ZXJsaW1pdDoxMDt9JiN4YTsJLnN0MTh7ZmlsbDojRkZGRkZGO3N0cm9rZTojRkZGRkZGO3N0cm9rZS13aWR0aDo0O3N0cm9rZS1saW5lY2FwOnJvdW5kO3N0cm9rZS1saW5lam9pbjpyb3VuZDt9JiN4YTs8L3N0eWxlPiYjeGE7PHJlY3QgaGVpZ2h0PSIxMjAiIHdpZHRoPSIxMjAiIGNsYXNzPSJzdDAiLz4mI3hhOzxnPiYjeGE7CTxnPiYjeGE7CQk8cGF0aCBkPSJNNzEuNywxOS43VjQ4aDI4IiBjbGFzcz0ic3QxIi8+JiN4YTsJCTxwYXRoIGQ9Ik05MS4yLDM4LjVsNy41LDcuNmMxLjMsMS4zLDEuMywzLjEsMCw0LjNMOTEuMSw1OCIgY2xhc3M9InN0MSIvPiYjeGE7CTwvZz4mI3hhOwk8Zz4mI3hhOwkJPHBhdGggZD0iTTIwLDQ3LjhoMjguNHYtMjgiIGNsYXNzPSJzdDEiLz4mI3hhOwkJPHBhdGggZD0iTTM4LjgsMjguM2w3LjYtNy41YzEuMy0xLjMsMy4xLTEuMyw0LjMsMGw3LjcsNy42IiBjbGFzcz0ic3QxIi8+JiN4YTsJPC9nPiYjeGE7CTxnPiYjeGE7CQk8cGF0aCBkPSJNNDgsMTAwLjNWNzJIMjAiIGNsYXNzPSJzdDEiLz4mI3hhOwkJPHBhdGggZD0iTTI4LjUsODEuNUwyMSw3My45Yy0xLjMtMS4zLTEuMy0zLjEsMC00LjNsNy42LTcuNyIgY2xhc3M9InN0MSIvPiYjeGE7CTwvZz4mI3hhOwk8Zz4mI3hhOwkJPHBhdGggZD0iTTEwMCw3MS45SDcxLjZ2MjgiIGNsYXNzPSJzdDEiLz4mI3hhOwkJPHBhdGggZD0iTTgxLjIsOTEuNGwtNy42LDcuNWMtMS4zLDEuMy0zLjEsMS4zLTQuMywwbC03LjctNy42IiBjbGFzcz0ic3QxIi8+JiN4YTsJPC9nPiYjeGE7PC9nPiYjeGE7PC9zdmc+;" vertex="1" parent="1">
          <mxGeometry x="100.0" y="572.5" width="75" height="75" as="geometry" />
      </mxCell>
    </object><object id="clab-red-hospital-base_datos" label="base_datos">
      <mxCell style="shape=image;imageAlign=center;imageVerticalAlign=middle;labelPosition=left;align=right;verticalLabelPosition=top;spacingLeft=0;verticalAlign=bottom;spacingTop=0;spacing=0;editableCssRules=\.st[0-2]$;labelBackgroundColor=none;aspect=fixed;imageAspect=0;image=data:image/svg+xml,PHN2ZyB4bWxuczp4bGluaz0iaHR0cDovL3d3dy53My5vcmcvMTk5OS94bGluayIgeG1sbnM9Imh0dHA6Ly93d3cudzMub3JnLzIwMDAvc3ZnIiB4bWw6c3BhY2U9InByZXNlcnZlIiBzdHlsZT0iZW5hYmxlLWJhY2tncm91bmQ6bmV3IDAgMCAxMjAgMTIwO2VkaXRhYmxlQ3NzUnVsZXM9Lio7IiB2aWV3Qm94PSIwIDAgMTIwIDEyMCIgeT0iMHB4IiB4PSIwcHgiIGlkPSJMYXllcl8xIiB2ZXJzaW9uPSIxLjEiPiYjeGE7PHN0eWxlIHR5cGU9InRleHQvY3NzIj4mI3hhOwkuc3Qwe2ZpbGw6IzAwMTEzNTt9JiN4YTsJLnN0MXtmaWxsOm5vbmU7c3Ryb2tlOiNGRkZGRkY7c3Ryb2tlLXdpZHRoOjQ7c3Ryb2tlLWxpbmVjYXA6cm91bmQ7c3Ryb2tlLWxpbmVqb2luOnJvdW5kO3N0cm9rZS1taXRlcmxpbWl0OjEwO30mI3hhOwkuc3Qye2ZpbGw6I0ZGRkZGRjt9JiN4YTsJLnN0M3tmaWxsOm5vbmU7c3Ryb2tlOiNGRkZGRkY7c3Ryb2tlLXdpZHRoOjQ7c3Ryb2tlLW1pdGVybGltaXQ6MTA7fSYjeGE7CS5zdDR7ZmlsbDpub25lO3N0cm9rZTojRkZGRkZGO3N0cm9rZS13aWR0aDo0O3N0cm9rZS1saW5lY2FwOnJvdW5kO3N0cm9rZS1saW5lam9pbjpyb3VuZDt9JiN4YTsJLnN0NXtmaWxsOiNGRkZGRkY7c3Ryb2tlOiNGRkZGRkY7c3Ryb2tlLXdpZHRoOjQ7c3Ryb2tlLWxpbmVjYXA6cm91bmQ7c3Ryb2tlLWxpbmVqb2luOnJvdW5kO3N0cm9rZS1taXRlcmxpbWl0OjEwO30mI3hhOwkuc3Q2e2ZpbGw6bm9uZTtzdHJva2U6I0ZGRkZGRjtzdHJva2Utd2lkdGg6NC4yMzMzO3N0cm9rZS1saW5lY2FwOnJvdW5kO3N0cm9rZS1saW5lam9pbjpyb3VuZDtzdHJva2UtbWl0ZXJsaW1pdDoxMDt9JiN4YTsJLnN0N3tmaWxsOm5vbmU7c3Ryb2tlOiNGRkZGRkY7c3Ryb2tlLXdpZHRoOjQ7c3Ryb2tlLWxpbmVjYXA6cm91bmQ7c3Ryb2tlLW1pdGVybGltaXQ6MTA7fSYjeGE7CS5zdDh7ZmlsbDojRkZGRkZGO3N0cm9rZTojRkZGRkZGO3N0cm9rZS13aWR0aDo0O3N0cm9rZS1taXRlcmxpbWl0OjEwO30mI3hhOwkuc3Q5e2ZpbGw6I0ZGRkZGRjtzdHJva2U6I0ZGRkZGRjtzdHJva2Utd2lkdGg6NDt9JiN4YTsJLnN0MTB7ZmlsbDpub25lO3N0cm9rZTojRkZGRkZGO3N0cm9rZS13aWR0aDo0O30mI3hhOwkuc3QxMXtmaWxsOiMyNjI2MjY7c3Ryb2tlOiNGRkZGRkY7c3Ryb2tlLXdpZHRoOjQuMjMzMzt9JiN4YTsJLnN0MTJ7ZmlsbC1ydWxlOmV2ZW5vZGQ7Y2xpcC1ydWxlOmV2ZW5vZGQ7ZmlsbDpub25lO3N0cm9rZTojRkZGRkZGO3N0cm9rZS13aWR0aDo0O3N0cm9rZS1taXRlcmxpbWl0OjEwO30mI3hhOwkuc3QxM3tmaWxsLXJ1bGU6ZXZlbm9kZDtjbGlwLXJ1bGU6ZXZlbm9kZDtmaWxsOiNGRkZGRkY7c3Ryb2tlOiNGRkZGRkY7c3Ryb2tlLXdpZHRoOjQ7fSYjeGE7CS5zdDE0e2ZpbGw6bm9uZTtzdHJva2U6I0ZGRkZGRjtzdHJva2Utd2lkdGg6NC4yMzMzO3N0cm9rZS1saW5lY2FwOnJvdW5kO3N0cm9rZS1saW5lam9pbjpyb3VuZDt9JiN4YTsJLnN0MTV7ZmlsbDpub25lO3N0cm9rZTojRkZGRkZGO3N0cm9rZS13aWR0aDo0O3N0cm9rZS1saW5lY2FwOnJvdW5kO30mI3hhOwkuc3QxNntmaWxsOiNGRkZGRkY7c3Ryb2tlOiNGRkZGRkY7c3Ryb2tlLW1pdGVybGltaXQ6MTA7fSYjeGE7CS5zdDE3e2ZpbGw6IzI2MjYyNjtzdHJva2U6I0ZGRkZGRjtzdHJva2Utd2lkdGg6NDtzdHJva2UtbWl0ZXJsaW1pdDoxMDt9JiN4YTsJLnN0MTh7ZmlsbDojRkZGRkZGO3N0cm9rZTojRkZGRkZGO3N0cm9rZS13aWR0aDo0O3N0cm9rZS1saW5lY2FwOnJvdW5kO3N0cm9rZS1saW5lam9pbjpyb3VuZDt9JiN4YTs8L3N0eWxlPiYjeGE7PHJlY3QgaGVpZ2h0PSIxMjAiIHdpZHRoPSIxMjAiIGNsYXNzPSJzdDAiLz4mI3hhOzxnPiYjeGE7CTxnPiYjeGE7CQk8cGF0aCBkPSJNNzEuNywxOS43VjQ4aDI4IiBjbGFzcz0ic3QxIi8+JiN4YTsJCTxwYXRoIGQ9Ik05MS4yLDM4LjVsNy41LDcuNmMxLjMsMS4zLDEuMywzLjEsMCw0LjNMOTEuMSw1OCIgY2xhc3M9InN0MSIvPiYjeGE7CTwvZz4mI3hhOwk8Zz4mI3hhOwkJPHBhdGggZD0iTTIwLDQ3LjhoMjguNHYtMjgiIGNsYXNzPSJzdDEiLz4mI3hhOwkJPHBhdGggZD0iTTM4LjgsMjguM2w3LjYtNy41YzEuMy0xLjMsMy4xLTEuMyw0LjMsMGw3LjcsNy42IiBjbGFzcz0ic3QxIi8+JiN4YTsJPC9nPiYjeGE7CTxnPiYjeGE7CQk8cGF0aCBkPSJNNDgsMTAwLjNWNzJIMjAiIGNsYXNzPSJzdDEiLz4mI3hhOwkJPHBhdGggZD0iTTI4LjUsODEuNUwyMSw3My45Yy0xLjMtMS4zLTEuMy0zLjEsMC00LjNsNy42LTcuNyIgY2xhc3M9InN0MSIvPiYjeGE7CTwvZz4mI3hhOwk8Zz4mI3hhOwkJPHBhdGggZD0iTTEwMCw3MS45SDcxLjZ2MjgiIGNsYXNzPSJzdDEiLz4mI3hhOwkJPHBhdGggZD0iTTgxLjIsOTEuNGwtNy42LDcuNWMtMS4zLDEuMy0zLjEsMS4zLTQuMywwbC03LjctNy42IiBjbGFzcz0ic3QxIi8+JiN4YTsJPC9nPiYjeGE7PC9nPiYjeGE7PC9zdmc+;" vertex="1" parent="1">
          <mxGeometry x="100.0" y="651.25" width="75" height="75" as="geometry" />
      </mxCell>
    </object><object id="clab-red-hospital-web_server_interno" label="web_server_interno">
      <mxCell style="shape=image;imageAlign=center;imageVerticalAlign=middle;labelPosition=left;align=right;verticalLabelPosition=top;spacingLeft=0;verticalAlign=bottom;spacingTop=0;spacing=0;editableCssRules=\.st[0-2]$;labelBackgroundColor=none;aspect=fixed;imageAspect=0;image=data:image/svg+xml,PHN2ZyB4bWxuczp4bGluaz0iaHR0cDovL3d3dy53My5vcmcvMTk5OS94bGluayIgeG1sbnM9Imh0dHA6Ly93d3cudzMub3JnLzIwMDAvc3ZnIiB4bWw6c3BhY2U9InByZXNlcnZlIiBzdHlsZT0iZW5hYmxlLWJhY2tncm91bmQ6bmV3IDAgMCAxMjAgMTIwO2VkaXRhYmxlQ3NzUnVsZXM9Lio7IiB2aWV3Qm94PSIwIDAgMTIwIDEyMCIgeT0iMHB4IiB4PSIwcHgiIGlkPSJMYXllcl8xIiB2ZXJzaW9uPSIxLjEiPiYjeGE7PHN0eWxlIHR5cGU9InRleHQvY3NzIj4mI3hhOwkuc3Qwe2ZpbGw6IzAwMTEzNTt9JiN4YTsJLnN0MXtmaWxsOm5vbmU7c3Ryb2tlOiNGRkZGRkY7c3Ryb2tlLXdpZHRoOjQ7c3Ryb2tlLWxpbmVjYXA6cm91bmQ7c3Ryb2tlLWxpbmVqb2luOnJvdW5kO3N0cm9rZS1taXRlcmxpbWl0OjEwO30mI3hhOwkuc3Qye2ZpbGw6I0ZGRkZGRjt9JiN4YTsJLnN0M3tmaWxsOm5vbmU7c3Ryb2tlOiNGRkZGRkY7c3Ryb2tlLXdpZHRoOjQ7c3Ryb2tlLW1pdGVybGltaXQ6MTA7fSYjeGE7CS5zdDR7ZmlsbDpub25lO3N0cm9rZTojRkZGRkZGO3N0cm9rZS13aWR0aDo0O3N0cm9rZS1saW5lY2FwOnJvdW5kO3N0cm9rZS1saW5lam9pbjpyb3VuZDt9JiN4YTsJLnN0NXtmaWxsOiNGRkZGRkY7c3Ryb2tlOiNGRkZGRkY7c3Ryb2tlLXdpZHRoOjQ7c3Ryb2tlLWxpbmVjYXA6cm91bmQ7c3Ryb2tlLWxpbmVqb2luOnJvdW5kO3N0cm9rZS1taXRlcmxpbWl0OjEwO30mI3hhOwkuc3Q2e2ZpbGw6bm9uZTtzdHJva2U6I0ZGRkZGRjtzdHJva2Utd2lkdGg6NC4yMzMzO3N0cm9rZS1saW5lY2FwOnJvdW5kO3N0cm9rZS1saW5lam9pbjpyb3VuZDtzdHJva2UtbWl0ZXJsaW1pdDoxMDt9JiN4YTsJLnN0N3tmaWxsOm5vbmU7c3Ryb2tlOiNGRkZGRkY7c3Ryb2tlLXdpZHRoOjQ7c3Ryb2tlLWxpbmVjYXA6cm91bmQ7c3Ryb2tlLW1pdGVybGltaXQ6MTA7fSYjeGE7CS5zdDh7ZmlsbDojRkZGRkZGO3N0cm9rZTojRkZGRkZGO3N0cm9rZS13aWR0aDo0O3N0cm9rZS1taXRlcmxpbWl0OjEwO30mI3hhOwkuc3Q5e2ZpbGw6I0ZGRkZGRjtzdHJva2U6I0ZGRkZGRjtzdHJva2Utd2lkdGg6NDt9JiN4YTsJLnN0MTB7ZmlsbDpub25lO3N0cm9rZTojRkZGRkZGO3N0cm9rZS13aWR0aDo0O30mI3hhOwkuc3QxMXtmaWxsOiMyNjI2MjY7c3Ryb2tlOiNGRkZGRkY7c3Ryb2tlLXdpZHRoOjQuMjMzMzt9JiN4YTsJLnN0MTJ7ZmlsbC1ydWxlOmV2ZW5vZGQ7Y2xpcC1ydWxlOmV2ZW5vZGQ7ZmlsbDpub25lO3N0cm9rZTojRkZGRkZGO3N0cm9rZS13aWR0aDo0O3N0cm9rZS1taXRlcmxpbWl0OjEwO30mI3hhOwkuc3QxM3tmaWxsLXJ1bGU6ZXZlbm9kZDtjbGlwLXJ1bGU6ZXZlbm9kZDtmaWxsOiNGRkZGRkY7c3Ryb2tlOiNGRkZGRkY7c3Ryb2tlLXdpZHRoOjQ7fSYjeGE7CS5zdDE0e2ZpbGw6bm9uZTtzdHJva2U6I0ZGRkZGRjtzdHJva2Utd2lkdGg6NC4yMzMzO3N0cm9rZS1saW5lY2FwOnJvdW5kO3N0cm9rZS1saW5lam9pbjpyb3VuZDt9JiN4YTsJLnN0MTV7ZmlsbDpub25lO3N0cm9rZTojRkZGRkZGO3N0cm9rZS13aWR0aDo0O3N0cm9rZS1saW5lY2FwOnJvdW5kO30mI3hhOwkuc3QxNntmaWxsOiNGRkZGRkY7c3Ryb2tlOiNGRkZGRkY7c3Ryb2tlLW1pdGVybGltaXQ6MTA7fSYjeGE7CS5zdDE3e2ZpbGw6IzI2MjYyNjtzdHJva2U6I0ZGRkZGRjtzdHJva2Utd2lkdGg6NDtzdHJva2UtbWl0ZXJsaW1pdDoxMDt9JiN4YTsJLnN0MTh7ZmlsbDojRkZGRkZGO3N0cm9rZTojRkZGRkZGO3N0cm9rZS13aWR0aDo0O3N0cm9rZS1saW5lY2FwOnJvdW5kO3N0cm9rZS1saW5lam9pbjpyb3VuZDt9JiN4YTs8L3N0eWxlPiYjeGE7PHJlY3QgaGVpZ2h0PSIxMjAiIHdpZHRoPSIxMjAiIGNsYXNzPSJzdDAiLz4mI3hhOzxnPiYjeGE7CTxnPiYjeGE7CQk8cGF0aCBkPSJNNzEuNywxOS43VjQ4aDI4IiBjbGFzcz0ic3QxIi8+JiN4YTsJCTxwYXRoIGQ9Ik05MS4yLDM4LjVsNy41LDcuNmMxLjMsMS4zLDEuMywzLjEsMCw0LjNMOTEuMSw1OCIgY2xhc3M9InN0MSIvPiYjeGE7CTwvZz4mI3hhOwk8Zz4mI3hhOwkJPHBhdGggZD0iTTIwLDQ3LjhoMjguNHYtMjgiIGNsYXNzPSJzdDEiLz4mI3hhOwkJPHBhdGggZD0iTTM4LjgsMjguM2w3LjYtNy41YzEuMy0xLjMsMy4xLTEuMyw0LjMsMGw3LjcsNy42IiBjbGFzcz0ic3QxIi8+JiN4YTsJPC9nPiYjeGE7CTxnPiYjeGE7CQk8cGF0aCBkPSJNNDgsMTAwLjNWNzJIMjAiIGNsYXNzPSJzdDEiLz4mI3hhOwkJPHBhdGggZD0iTTI4LjUsODEuNUwyMSw3My45Yy0xLjMtMS4zLTEuMy0zLjEsMC00LjNsNy42LTcuNyIgY2xhc3M9InN0MSIvPiYjeGE7CTwvZz4mI3hhOwk8Zz4mI3hhOwkJPHBhdGggZD0iTTEwMCw3MS45SDcxLjZ2MjgiIGNsYXNzPSJzdDEiLz4mI3hhOwkJPHBhdGggZD0iTTgxLjIsOTEuNGwtNy42LDcuNWMtMS4zLDEuMy0zLjEsMS4zLTQuMywwbC03LjctNy42IiBjbGFzcz0ic3QxIi8+JiN4YTsJPC9nPiYjeGE7PC9nPiYjeGE7PC9zdmc+;" vertex="1" parent="1">
          <mxGeometry x="145.0" y="730.0" width="75" height="75" as="geometry" />
      </mxCell>
    </object><object id="clab-red-hospital-host_gestion" label="host_gestion">
      <mxCell style="shape=image;imageAlign=center;imageVerticalAlign=middle;labelPosition=left;align=right;verticalLabelPosition=top;spacingLeft=0;verticalAlign=bottom;spacingTop=0;spacing=0;editableCssRules=\.st[0-2]$;labelBackgroundColor=none;aspect=fixed;imageAspect=0;image=data:image/svg+xml,PHN2ZyB4bWxuczp4bGluaz0iaHR0cDovL3d3dy53My5vcmcvMTk5OS94bGluayIgeG1sbnM9Imh0dHA6Ly93d3cudzMub3JnLzIwMDAvc3ZnIiB4bWw6c3BhY2U9InByZXNlcnZlIiBzdHlsZT0iZW5hYmxlLWJhY2tncm91bmQ6bmV3IDAgMCAxMjAgMTIwO2VkaXRhYmxlQ3NzUnVsZXM9Lio7IiB2aWV3Qm94PSIwIDAgMTIwIDEyMCIgeT0iMHB4IiB4PSIwcHgiIGlkPSJMYXllcl8xIiB2ZXJzaW9uPSIxLjEiPiYjeGE7PHN0eWxlIHR5cGU9InRleHQvY3NzIj4mI3hhOwkuc3Qwe2ZpbGw6IzAwMTEzNTt9JiN4YTsJLnN0MXtmaWxsOm5vbmU7c3Ryb2tlOiNGRkZGRkY7c3Ryb2tlLXdpZHRoOjQ7c3Ryb2tlLWxpbmVjYXA6cm91bmQ7c3Ryb2tlLWxpbmVqb2luOnJvdW5kO3N0cm9rZS1taXRlcmxpbWl0OjEwO30mI3hhOwkuc3Qye2ZpbGw6I0ZGRkZGRjt9JiN4YTsJLnN0M3tmaWxsOm5vbmU7c3Ryb2tlOiNGRkZGRkY7c3Ryb2tlLXdpZHRoOjQ7c3Ryb2tlLW1pdGVybGltaXQ6MTA7fSYjeGE7CS5zdDR7ZmlsbDpub25lO3N0cm9rZTojRkZGRkZGO3N0cm9rZS13aWR0aDo0O3N0cm9rZS1saW5lY2FwOnJvdW5kO3N0cm9rZS1saW5lam9pbjpyb3VuZDt9JiN4YTsJLnN0NXtmaWxsOiNGRkZGRkY7c3Ryb2tlOiNGRkZGRkY7c3Ryb2tlLXdpZHRoOjQ7c3Ryb2tlLWxpbmVjYXA6cm91bmQ7c3Ryb2tlLWxpbmVqb2luOnJvdW5kO3N0cm9rZS1taXRlcmxpbWl0OjEwO30mI3hhOwkuc3Q2e2ZpbGw6bm9uZTtzdHJva2U6I0ZGRkZGRjtzdHJva2Utd2lkdGg6NC4yMzMzO3N0cm9rZS1saW5lY2FwOnJvdW5kO3N0cm9rZS1saW5lam9pbjpyb3VuZDtzdHJva2UtbWl0ZXJsaW1pdDoxMDt9JiN4YTsJLnN0N3tmaWxsOm5vbmU7c3Ryb2tlOiNGRkZGRkY7c3Ryb2tlLXdpZHRoOjQ7c3Ryb2tlLWxpbmVjYXA6cm91bmQ7c3Ryb2tlLW1pdGVybGltaXQ6MTA7fSYjeGE7CS5zdDh7ZmlsbDojRkZGRkZGO3N0cm9rZTojRkZGRkZGO3N0cm9rZS13aWR0aDo0O3N0cm9rZS1taXRlcmxpbWl0OjEwO30mI3hhOwkuc3Q5e2ZpbGw6I0ZGRkZGRjtzdHJva2U6I0ZGRkZGRjtzdHJva2Utd2lkdGg6NDt9JiN4YTsJLnN0MTB7ZmlsbDpub25lO3N0cm9rZTojRkZGRkZGO3N0cm9rZS13aWR0aDo0O30mI3hhOwkuc3QxMXtmaWxsOiMyNjI2MjY7c3Ryb2tlOiNGRkZGRkY7c3Ryb2tlLXdpZHRoOjQuMjMzMzt9JiN4YTsJLnN0MTJ7ZmlsbC1ydWxlOmV2ZW5vZGQ7Y2xpcC1ydWxlOmV2ZW5vZGQ7ZmlsbDpub25lO3N0cm9rZTojRkZGRkZGO3N0cm9rZS13aWR0aDo0O3N0cm9rZS1taXRlcmxpbWl0OjEwO30mI3hhOwkuc3QxM3tmaWxsLXJ1bGU6ZXZlbm9kZDtjbGlwLXJ1bGU6ZXZlbm9kZDtmaWxsOiNGRkZGRkY7c3Ryb2tlOiNGRkZGRkY7c3Ryb2tlLXdpZHRoOjQ7fSYjeGE7CS5zdDE0e2ZpbGw6bm9uZTtzdHJva2U6I0ZGRkZGRjtzdHJva2Utd2lkdGg6NC4yMzMzO3N0cm9rZS1saW5lY2FwOnJvdW5kO3N0cm9rZS1saW5lam9pbjpyb3VuZDt9JiN4YTsJLnN0MTV7ZmlsbDpub25lO3N0cm9rZTojRkZGRkZGO3N0cm9rZS13aWR0aDo0O3N0cm9rZS1saW5lY2FwOnJvdW5kO30mI3hhOwkuc3QxNntmaWxsOiNGRkZGRkY7c3Ryb2tlOiNGRkZGRkY7c3Ryb2tlLW1pdGVybGltaXQ6MTA7fSYjeGE7CS5zdDE3e2ZpbGw6IzI2MjYyNjtzdHJva2U6I0ZGRkZGRjtzdHJva2Utd2lkdGg6NDtzdHJva2UtbWl0ZXJsaW1pdDoxMDt9JiN4YTsJLnN0MTh7ZmlsbDojRkZGRkZGO3N0cm9rZTojRkZGRkZGO3N0cm9rZS13aWR0aDo0O3N0cm9rZS1saW5lY2FwOnJvdW5kO3N0cm9rZS1saW5lam9pbjpyb3VuZDt9JiN4YTs8L3N0eWxlPiYjeGE7PHJlY3QgaGVpZ2h0PSIxMjAiIHdpZHRoPSIxMjAiIGNsYXNzPSJzdDAiLz4mI3hhOzxnPiYjeGE7CTxnPiYjeGE7CQk8cGF0aCBkPSJNNzEuNywxOS43VjQ4aDI4IiBjbGFzcz0ic3QxIi8+JiN4YTsJCTxwYXRoIGQ9Ik05MS4yLDM4LjVsNy41LDcuNmMxLjMsMS4zLDEuMywzLjEsMCw0LjNMOTEuMSw1OCIgY2xhc3M9InN0MSIvPiYjeGE7CTwvZz4mI3hhOwk8Zz4mI3hhOwkJPHBhdGggZD0iTTIwLDQ3LjhoMjguNHYtMjgiIGNsYXNzPSJzdDEiLz4mI3hhOwkJPHBhdGggZD0iTTM4LjgsMjguM2w3LjYtNy41YzEuMy0xLjMsMy4xLTEuMyw0LjMsMGw3LjcsNy42IiBjbGFzcz0ic3QxIi8+JiN4YTsJPC9nPiYjeGE7CTxnPiYjeGE7CQk8cGF0aCBkPSJNNDgsMTAwLjNWNzJIMjAiIGNsYXNzPSJzdDEiLz4mI3hhOwkJPHBhdGggZD0iTTI4LjUsODEuNUwyMSw3My45Yy0xLjMtMS4zLTEuMy0zLjEsMC00LjNsNy42LTcuNyIgY2xhc3M9InN0MSIvPiYjeGE7CTwvZz4mI3hhOwk8Zz4mI3hhOwkJPHBhdGggZD0iTTEwMCw3MS45SDcxLjZ2MjgiIGNsYXNzPSJzdDEiLz4mI3hhOwkJPHBhdGggZD0iTTgxLjIsOTEuNGwtNy42LDcuNWMtMS4zLDEuMy0zLjEsMS4zLTQuMywwbC03LjctNy42IiBjbGFzcz0ic3QxIi8+JiN4YTsJPC9nPiYjeGE7PC9nPiYjeGE7PC9zdmc+;" vertex="1" parent="1">
          <mxGeometry x="370.0" y="782.5" width="75" height="75" as="geometry" />
      </mxCell>
    </object><object id="clab-red-hospital-host_gestion_camaras" label="host_gestion_camaras">
      <mxCell style="shape=image;imageAlign=center;imageVerticalAlign=middle;labelPosition=left;align=right;verticalLabelPosition=top;spacingLeft=0;verticalAlign=bottom;spacingTop=0;spacing=0;editableCssRules=\.st[0-2]$;labelBackgroundColor=none;aspect=fixed;imageAspect=0;image=data:image/svg+xml,PHN2ZyB4bWxuczp4bGluaz0iaHR0cDovL3d3dy53My5vcmcvMTk5OS94bGluayIgeG1sbnM9Imh0dHA6Ly93d3cudzMub3JnLzIwMDAvc3ZnIiB4bWw6c3BhY2U9InByZXNlcnZlIiBzdHlsZT0iZW5hYmxlLWJhY2tncm91bmQ6bmV3IDAgMCAxMjAgMTIwO2VkaXRhYmxlQ3NzUnVsZXM9Lio7IiB2aWV3Qm94PSIwIDAgMTIwIDEyMCIgeT0iMHB4IiB4PSIwcHgiIGlkPSJMYXllcl8xIiB2ZXJzaW9uPSIxLjEiPiYjeGE7PHN0eWxlIHR5cGU9InRleHQvY3NzIj4mI3hhOwkuc3Qwe2ZpbGw6IzAwMTEzNTt9JiN4YTsJLnN0MXtmaWxsOm5vbmU7c3Ryb2tlOiNGRkZGRkY7c3Ryb2tlLXdpZHRoOjQ7c3Ryb2tlLWxpbmVjYXA6cm91bmQ7c3Ryb2tlLWxpbmVqb2luOnJvdW5kO3N0cm9rZS1taXRlcmxpbWl0OjEwO30mI3hhOwkuc3Qye2ZpbGw6I0ZGRkZGRjt9JiN4YTsJLnN0M3tmaWxsOm5vbmU7c3Ryb2tlOiNGRkZGRkY7c3Ryb2tlLXdpZHRoOjQ7c3Ryb2tlLW1pdGVybGltaXQ6MTA7fSYjeGE7CS5zdDR7ZmlsbDpub25lO3N0cm9rZTojRkZGRkZGO3N0cm9rZS13aWR0aDo0O3N0cm9rZS1saW5lY2FwOnJvdW5kO3N0cm9rZS1saW5lam9pbjpyb3VuZDt9JiN4YTsJLnN0NXtmaWxsOiNGRkZGRkY7c3Ryb2tlOiNGRkZGRkY7c3Ryb2tlLXdpZHRoOjQ7c3Ryb2tlLWxpbmVjYXA6cm91bmQ7c3Ryb2tlLWxpbmVqb2luOnJvdW5kO3N0cm9rZS1taXRlcmxpbWl0OjEwO30mI3hhOwkuc3Q2e2ZpbGw6bm9uZTtzdHJva2U6I0ZGRkZGRjtzdHJva2Utd2lkdGg6NC4yMzMzO3N0cm9rZS1saW5lY2FwOnJvdW5kO3N0cm9rZS1saW5lam9pbjpyb3VuZDtzdHJva2UtbWl0ZXJsaW1pdDoxMDt9JiN4YTsJLnN0N3tmaWxsOm5vbmU7c3Ryb2tlOiNGRkZGRkY7c3Ryb2tlLXdpZHRoOjQ7c3Ryb2tlLWxpbmVjYXA6cm91bmQ7c3Ryb2tlLW1pdGVybGltaXQ6MTA7fSYjeGE7CS5zdDh7ZmlsbDojRkZGRkZGO3N0cm9rZTojRkZGRkZGO3N0cm9rZS13aWR0aDo0O3N0cm9rZS1taXRlcmxpbWl0OjEwO30mI3hhOwkuc3Q5e2ZpbGw6I0ZGRkZGRjtzdHJva2U6I0ZGRkZGRjtzdHJva2Utd2lkdGg6NDt9JiN4YTsJLnN0MTB7ZmlsbDpub25lO3N0cm9rZTojRkZGRkZGO3N0cm9rZS13aWR0aDo0O30mI3hhOwkuc3QxMXtmaWxsOiMyNjI2MjY7c3Ryb2tlOiNGRkZGRkY7c3Ryb2tlLXdpZHRoOjQuMjMzMzt9JiN4YTsJLnN0MTJ7ZmlsbC1ydWxlOmV2ZW5vZGQ7Y2xpcC1ydWxlOmV2ZW5vZGQ7ZmlsbDpub25lO3N0cm9rZTojRkZGRkZGO3N0cm9rZS13aWR0aDo0O3N0cm9rZS1taXRlcmxpbWl0OjEwO30mI3hhOwkuc3QxM3tmaWxsLXJ1bGU6ZXZlbm9kZDtjbGlwLXJ1bGU6ZXZlbm9kZDtmaWxsOiNGRkZGRkY7c3Ryb2tlOiNGRkZGRkY7c3Ryb2tlLXdpZHRoOjQ7fSYjeGE7CS5zdDE0e2ZpbGw6bm9uZTtzdHJva2U6I0ZGRkZGRjtzdHJva2Utd2lkdGg6NC4yMzMzO3N0cm9rZS1saW5lY2FwOnJvdW5kO3N0cm9rZS1saW5lam9pbjpyb3VuZDt9JiN4YTsJLnN0MTV7ZmlsbDpub25lO3N0cm9rZTojRkZGRkZGO3N0cm9rZS13aWR0aDo0O3N0cm9rZS1saW5lY2FwOnJvdW5kO30mI3hhOwkuc3QxNntmaWxsOiNGRkZGRkY7c3Ryb2tlOiNGRkZGRkY7c3Ryb2tlLW1pdGVybGltaXQ6MTA7fSYjeGE7CS5zdDE3e2ZpbGw6IzI2MjYyNjtzdHJva2U6I0ZGRkZGRjtzdHJva2Utd2lkdGg6NDtzdHJva2UtbWl0ZXJsaW1pdDoxMDt9JiN4YTsJLnN0MTh7ZmlsbDojRkZGRkZGO3N0cm9rZTojRkZGRkZGO3N0cm9rZS13aWR0aDo0O3N0cm9rZS1saW5lY2FwOnJvdW5kO3N0cm9rZS1saW5lam9pbjpyb3VuZDt9JiN4YTs8L3N0eWxlPiYjeGE7PHJlY3QgaGVpZ2h0PSIxMjAiIHdpZHRoPSIxMjAiIGNsYXNzPSJzdDAiLz4mI3hhOzxnPiYjeGE7CTxnPiYjeGE7CQk8cGF0aCBkPSJNNzEuNywxOS43VjQ4aDI4IiBjbGFzcz0ic3QxIi8+JiN4YTsJCTxwYXRoIGQ9Ik05MS4yLDM4LjVsNy41LDcuNmMxLjMsMS4zLDEuMywzLjEsMCw0LjNMOTEuMSw1OCIgY2xhc3M9InN0MSIvPiYjeGE7CTwvZz4mI3hhOwk8Zz4mI3hhOwkJPHBhdGggZD0iTTIwLDQ3LjhoMjguNHYtMjgiIGNsYXNzPSJzdDEiLz4mI3hhOwkJPHBhdGggZD0iTTM4LjgsMjguM2w3LjYtNy41YzEuMy0xLjMsMy4xLTEuMyw0LjMsMGw3LjcsNy42IiBjbGFzcz0ic3QxIi8+JiN4YTsJPC9nPiYjeGE7CTxnPiYjeGE7CQk8cGF0aCBkPSJNNDgsMTAwLjNWNzJIMjAiIGNsYXNzPSJzdDEiLz4mI3hhOwkJPHBhdGggZD0iTTI4LjUsODEuNUwyMSw3My45Yy0xLjMtMS4zLTEuMy0zLjEsMC00LjNsNy42LTcuNyIgY2xhc3M9InN0MSIvPiYjeGE7CTwvZz4mI3hhOwk8Zz4mI3hhOwkJPHBhdGggZD0iTTEwMCw3MS45SDcxLjZ2MjgiIGNsYXNzPSJzdDEiLz4mI3hhOwkJPHBhdGggZD0iTTgxLjIsOTEuNGwtNy42LDcuNWMtMS4zLDEuMy0zLjEsMS4zLTQuMywwbC03LjctNy42IiBjbGFzcz0ic3QxIi8+JiN4YTsJPC9nPiYjeGE7PC9nPiYjeGE7PC9zdmc+;" vertex="1" parent="1">
          <mxGeometry x="460.0" y="808.75" width="75" height="75" as="geometry" />
      </mxCell>
    </object><object id="clab-red-hospital-host_pruebas_medicas" label="host_pruebas_medicas">
      <mxCell style="shape=image;imageAlign=center;imageVerticalAlign=middle;labelPosition=left;align=right;verticalLabelPosition=top;spacingLeft=0;verticalAlign=bottom;spacingTop=0;spacing=0;editableCssRules=\.st[0-2]$;labelBackgroundColor=none;aspect=fixed;imageAspect=0;image=data:image/svg+xml,PHN2ZyB4bWxuczp4bGluaz0iaHR0cDovL3d3dy53My5vcmcvMTk5OS94bGluayIgeG1sbnM9Imh0dHA6Ly93d3cudzMub3JnLzIwMDAvc3ZnIiB4bWw6c3BhY2U9InByZXNlcnZlIiBzdHlsZT0iZW5hYmxlLWJhY2tncm91bmQ6bmV3IDAgMCAxMjAgMTIwO2VkaXRhYmxlQ3NzUnVsZXM9Lio7IiB2aWV3Qm94PSIwIDAgMTIwIDEyMCIgeT0iMHB4IiB4PSIwcHgiIGlkPSJMYXllcl8xIiB2ZXJzaW9uPSIxLjEiPiYjeGE7PHN0eWxlIHR5cGU9InRleHQvY3NzIj4mI3hhOwkuc3Qwe2ZpbGw6IzAwMTEzNTt9JiN4YTsJLnN0MXtmaWxsOm5vbmU7c3Ryb2tlOiNGRkZGRkY7c3Ryb2tlLXdpZHRoOjQ7c3Ryb2tlLWxpbmVjYXA6cm91bmQ7c3Ryb2tlLWxpbmVqb2luOnJvdW5kO3N0cm9rZS1taXRlcmxpbWl0OjEwO30mI3hhOwkuc3Qye2ZpbGw6I0ZGRkZGRjt9JiN4YTsJLnN0M3tmaWxsOm5vbmU7c3Ryb2tlOiNGRkZGRkY7c3Ryb2tlLXdpZHRoOjQ7c3Ryb2tlLW1pdGVybGltaXQ6MTA7fSYjeGE7CS5zdDR7ZmlsbDpub25lO3N0cm9rZTojRkZGRkZGO3N0cm9rZS13aWR0aDo0O3N0cm9rZS1saW5lY2FwOnJvdW5kO3N0cm9rZS1saW5lam9pbjpyb3VuZDt9JiN4YTsJLnN0NXtmaWxsOiNGRkZGRkY7c3Ryb2tlOiNGRkZGRkY7c3Ryb2tlLXdpZHRoOjQ7c3Ryb2tlLWxpbmVjYXA6cm91bmQ7c3Ryb2tlLWxpbmVqb2luOnJvdW5kO3N0cm9rZS1taXRlcmxpbWl0OjEwO30mI3hhOwkuc3Q2e2ZpbGw6bm9uZTtzdHJva2U6I0ZGRkZGRjtzdHJva2Utd2lkdGg6NC4yMzMzO3N0cm9rZS1saW5lY2FwOnJvdW5kO3N0cm9rZS1saW5lam9pbjpyb3VuZDtzdHJva2UtbWl0ZXJsaW1pdDoxMDt9JiN4YTsJLnN0N3tmaWxsOm5vbmU7c3Ryb2tlOiNGRkZGRkY7c3Ryb2tlLXdpZHRoOjQ7c3Ryb2tlLWxpbmVjYXA6cm91bmQ7c3Ryb2tlLW1pdGVybGltaXQ6MTA7fSYjeGE7CS5zdDh7ZmlsbDojRkZGRkZGO3N0cm9rZTojRkZGRkZGO3N0cm9rZS13aWR0aDo0O3N0cm9rZS1taXRlcmxpbWl0OjEwO30mI3hhOwkuc3Q5e2ZpbGw6I0ZGRkZGRjtzdHJva2U6I0ZGRkZGRjtzdHJva2Utd2lkdGg6NDt9JiN4YTsJLnN0MTB7ZmlsbDpub25lO3N0cm9rZTojRkZGRkZGO3N0cm9rZS13aWR0aDo0O30mI3hhOwkuc3QxMXtmaWxsOiMyNjI2MjY7c3Ryb2tlOiNGRkZGRkY7c3Ryb2tlLXdpZHRoOjQuMjMzMzt9JiN4YTsJLnN0MTJ7ZmlsbC1ydWxlOmV2ZW5vZGQ7Y2xpcC1ydWxlOmV2ZW5vZGQ7ZmlsbDpub25lO3N0cm9rZTojRkZGRkZGO3N0cm9rZS13aWR0aDo0O3N0cm9rZS1taXRlcmxpbWl0OjEwO30mI3hhOwkuc3QxM3tmaWxsLXJ1bGU6ZXZlbm9kZDtjbGlwLXJ1bGU6ZXZlbm9kZDtmaWxsOiNGRkZGRkY7c3Ryb2tlOiNGRkZGRkY7c3Ryb2tlLXdpZHRoOjQ7fSYjeGE7CS5zdDE0e2ZpbGw6bm9uZTtzdHJva2U6I0ZGRkZGRjtzdHJva2Utd2lkdGg6NC4yMzMzO3N0cm9rZS1saW5lY2FwOnJvdW5kO3N0cm9rZS1saW5lam9pbjpyb3VuZDt9JiN4YTsJLnN0MTV7ZmlsbDpub25lO3N0cm9rZTojRkZGRkZGO3N0cm9rZS13aWR0aDo0O3N0cm9rZS1saW5lY2FwOnJvdW5kO30mI3hhOwkuc3QxNntmaWxsOiNGRkZGRkY7c3Ryb2tlOiNGRkZGRkY7c3Ryb2tlLW1pdGVybGltaXQ6MTA7fSYjeGE7CS5zdDE3e2ZpbGw6IzI2MjYyNjtzdHJva2U6I0ZGRkZGRjtzdHJva2Utd2lkdGg6NDtzdHJva2UtbWl0ZXJsaW1pdDoxMDt9JiN4YTsJLnN0MTh7ZmlsbDojRkZGRkZGO3N0cm9rZTojRkZGRkZGO3N0cm9rZS13aWR0aDo0O3N0cm9rZS1saW5lY2FwOnJvdW5kO3N0cm9rZS1saW5lam9pbjpyb3VuZDt9JiN4YTs8L3N0eWxlPiYjeGE7PHJlY3QgaGVpZ2h0PSIxMjAiIHdpZHRoPSIxMjAiIGNsYXNzPSJzdDAiLz4mI3hhOzxnPiYjeGE7CTxnPiYjeGE7CQk8cGF0aCBkPSJNNzEuNywxOS43VjQ4aDI4IiBjbGFzcz0ic3QxIi8+JiN4YTsJCTxwYXRoIGQ9Ik05MS4yLDM4LjVsNy41LDcuNmMxLjMsMS4zLDEuMywzLjEsMCw0LjNMOTEuMSw1OCIgY2xhc3M9InN0MSIvPiYjeGE7CTwvZz4mI3hhOwk8Zz4mI3hhOwkJPHBhdGggZD0iTTIwLDQ3LjhoMjguNHYtMjgiIGNsYXNzPSJzdDEiLz4mI3hhOwkJPHBhdGggZD0iTTM4LjgsMjguM2w3LjYtNy41YzEuMy0xLjMsMy4xLTEuMyw0LjMsMGw3LjcsNy42IiBjbGFzcz0ic3QxIi8+JiN4YTsJPC9nPiYjeGE7CTxnPiYjeGE7CQk8cGF0aCBkPSJNNDgsMTAwLjNWNzJIMjAiIGNsYXNzPSJzdDEiLz4mI3hhOwkJPHBhdGggZD0iTTI4LjUsODEuNUwyMSw3My45Yy0xLjMtMS4zLTEuMy0zLjEsMC00LjNsNy42LTcuNyIgY2xhc3M9InN0MSIvPiYjeGE7CTwvZz4mI3hhOwk8Zz4mI3hhOwkJPHBhdGggZD0iTTEwMCw3MS45SDcxLjZ2MjgiIGNsYXNzPSJzdDEiLz4mI3hhOwkJPHBhdGggZD0iTTgxLjIsOTEuNGwtNy42LDcuNWMtMS4zLDEuMy0zLjEsMS4zLTQuMywwbC03LjctNy42IiBjbGFzcz0ic3QxIi8+JiN4YTsJPC9nPiYjeGE7PC9nPiYjeGE7PC9zdmc+;" vertex="1" parent="1">
          <mxGeometry x="955.0" y="625.0" width="75" height="75" as="geometry" />
      </mxCell>
    </object><object id="clab-red-hospital-host_electro" label="host_electro">
      <mxCell style="shape=image;imageAlign=center;imageVerticalAlign=middle;labelPosition=left;align=right;verticalLabelPosition=top;spacingLeft=0;verticalAlign=bottom;spacingTop=0;spacing=0;editableCssRules=\.st[0-2]$;labelBackgroundColor=none;aspect=fixed;imageAspect=0;image=data:image/svg+xml,PHN2ZyB4bWxuczp4bGluaz0iaHR0cDovL3d3dy53My5vcmcvMTk5OS94bGluayIgeG1sbnM9Imh0dHA6Ly93d3cudzMub3JnLzIwMDAvc3ZnIiB4bWw6c3BhY2U9InByZXNlcnZlIiBzdHlsZT0iZW5hYmxlLWJhY2tncm91bmQ6bmV3IDAgMCAxMjAgMTIwO2VkaXRhYmxlQ3NzUnVsZXM9Lio7IiB2aWV3Qm94PSIwIDAgMTIwIDEyMCIgeT0iMHB4IiB4PSIwcHgiIGlkPSJMYXllcl8xIiB2ZXJzaW9uPSIxLjEiPiYjeGE7PHN0eWxlIHR5cGU9InRleHQvY3NzIj4mI3hhOwkuc3Qwe2ZpbGw6IzAwMTEzNTt9JiN4YTsJLnN0MXtmaWxsOm5vbmU7c3Ryb2tlOiNGRkZGRkY7c3Ryb2tlLXdpZHRoOjQ7c3Ryb2tlLWxpbmVjYXA6cm91bmQ7c3Ryb2tlLWxpbmVqb2luOnJvdW5kO3N0cm9rZS1taXRlcmxpbWl0OjEwO30mI3hhOwkuc3Qye2ZpbGw6I0ZGRkZGRjt9JiN4YTsJLnN0M3tmaWxsOm5vbmU7c3Ryb2tlOiNGRkZGRkY7c3Ryb2tlLXdpZHRoOjQ7c3Ryb2tlLW1pdGVybGltaXQ6MTA7fSYjeGE7CS5zdDR7ZmlsbDpub25lO3N0cm9rZTojRkZGRkZGO3N0cm9rZS13aWR0aDo0O3N0cm9rZS1saW5lY2FwOnJvdW5kO3N0cm9rZS1saW5lam9pbjpyb3VuZDt9JiN4YTsJLnN0NXtmaWxsOiNGRkZGRkY7c3Ryb2tlOiNGRkZGRkY7c3Ryb2tlLXdpZHRoOjQ7c3Ryb2tlLWxpbmVjYXA6cm91bmQ7c3Ryb2tlLWxpbmVqb2luOnJvdW5kO3N0cm9rZS1taXRlcmxpbWl0OjEwO30mI3hhOwkuc3Q2e2ZpbGw6bm9uZTtzdHJva2U6I0ZGRkZGRjtzdHJva2Utd2lkdGg6NC4yMzMzO3N0cm9rZS1saW5lY2FwOnJvdW5kO3N0cm9rZS1saW5lam9pbjpyb3VuZDtzdHJva2UtbWl0ZXJsaW1pdDoxMDt9JiN4YTsJLnN0N3tmaWxsOm5vbmU7c3Ryb2tlOiNGRkZGRkY7c3Ryb2tlLXdpZHRoOjQ7c3Ryb2tlLWxpbmVjYXA6cm91bmQ7c3Ryb2tlLW1pdGVybGltaXQ6MTA7fSYjeGE7CS5zdDh7ZmlsbDojRkZGRkZGO3N0cm9rZTojRkZGRkZGO3N0cm9rZS13aWR0aDo0O3N0cm9rZS1taXRlcmxpbWl0OjEwO30mI3hhOwkuc3Q5e2ZpbGw6I0ZGRkZGRjtzdHJva2U6I0ZGRkZGRjtzdHJva2Utd2lkdGg6NDt9JiN4YTsJLnN0MTB7ZmlsbDpub25lO3N0cm9rZTojRkZGRkZGO3N0cm9rZS13aWR0aDo0O30mI3hhOwkuc3QxMXtmaWxsOiMyNjI2MjY7c3Ryb2tlOiNGRkZGRkY7c3Ryb2tlLXdpZHRoOjQuMjMzMzt9JiN4YTsJLnN0MTJ7ZmlsbC1ydWxlOmV2ZW5vZGQ7Y2xpcC1ydWxlOmV2ZW5vZGQ7ZmlsbDpub25lO3N0cm9rZTojRkZGRkZGO3N0cm9rZS13aWR0aDo0O3N0cm9rZS1taXRlcmxpbWl0OjEwO30mI3hhOwkuc3QxM3tmaWxsLXJ1bGU6ZXZlbm9kZDtjbGlwLXJ1bGU6ZXZlbm9kZDtmaWxsOiNGRkZGRkY7c3Ryb2tlOiNGRkZGRkY7c3Ryb2tlLXdpZHRoOjQ7fSYjeGE7CS5zdDE0e2ZpbGw6bm9uZTtzdHJva2U6I0ZGRkZGRjtzdHJva2Utd2lkdGg6NC4yMzMzO3N0cm9rZS1saW5lY2FwOnJvdW5kO3N0cm9rZS1saW5lam9pbjpyb3VuZDt9JiN4YTsJLnN0MTV7ZmlsbDpub25lO3N0cm9rZTojRkZGRkZGO3N0cm9rZS13aWR0aDo0O3N0cm9rZS1saW5lY2FwOnJvdW5kO30mI3hhOwkuc3QxNntmaWxsOiNGRkZGRkY7c3Ryb2tlOiNGRkZGRkY7c3Ryb2tlLW1pdGVybGltaXQ6MTA7fSYjeGE7CS5zdDE3e2ZpbGw6IzI2MjYyNjtzdHJva2U6I0ZGRkZGRjtzdHJva2Utd2lkdGg6NDtzdHJva2UtbWl0ZXJsaW1pdDoxMDt9JiN4YTsJLnN0MTh7ZmlsbDojRkZGRkZGO3N0cm9rZTojRkZGRkZGO3N0cm9rZS13aWR0aDo0O3N0cm9rZS1saW5lY2FwOnJvdW5kO3N0cm9rZS1saW5lam9pbjpyb3VuZDt9JiN4YTs8L3N0eWxlPiYjeGE7PHJlY3QgaGVpZ2h0PSIxMjAiIHdpZHRoPSIxMjAiIGNsYXNzPSJzdDAiLz4mI3hhOzxnPiYjeGE7CTxnPiYjeGE7CQk8cGF0aCBkPSJNNzEuNywxOS43VjQ4aDI4IiBjbGFzcz0ic3QxIi8+JiN4YTsJCTxwYXRoIGQ9Ik05MS4yLDM4LjVsNy41LDcuNmMxLjMsMS4zLDEuMywzLjEsMCw0LjNMOTEuMSw1OCIgY2xhc3M9InN0MSIvPiYjeGE7CTwvZz4mI3hhOwk8Zz4mI3hhOwkJPHBhdGggZD0iTTIwLDQ3LjhoMjguNHYtMjgiIGNsYXNzPSJzdDEiLz4mI3hhOwkJPHBhdGggZD0iTTM4LjgsMjguM2w3LjYtNy41YzEuMy0xLjMsMy4xLTEuMyw0LjMsMGw3LjcsNy42IiBjbGFzcz0ic3QxIi8+JiN4YTsJPC9nPiYjeGE7CTxnPiYjeGE7CQk8cGF0aCBkPSJNNDgsMTAwLjNWNzJIMjAiIGNsYXNzPSJzdDEiLz4mI3hhOwkJPHBhdGggZD0iTTI4LjUsODEuNUwyMSw3My45Yy0xLjMtMS4zLTEuMy0zLjEsMC00LjNsNy42LTcuNyIgY2xhc3M9InN0MSIvPiYjeGE7CTwvZz4mI3hhOwk8Zz4mI3hhOwkJPHBhdGggZD0iTTEwMCw3MS45SDcxLjZ2MjgiIGNsYXNzPSJzdDEiLz4mI3hhOwkJPHBhdGggZD0iTTgxLjIsOTEuNGwtNy42LDcuNWMtMS4zLDEuMy0zLjEsMS4zLTQuMywwbC03LjctNy42IiBjbGFzcz0ic3QxIi8+JiN4YTsJPC9nPiYjeGE7PC9nPiYjeGE7PC9zdmc+;" vertex="1" parent="1">
          <mxGeometry x="865.0" y="782.5" width="75" height="75" as="geometry" />
      </mxCell>
    </object><object id="clab-red-hospital-host_gamma_knife" label="host_gamma_knife">
      <mxCell style="shape=image;imageAlign=center;imageVerticalAlign=middle;labelPosition=left;align=right;verticalLabelPosition=top;spacingLeft=0;verticalAlign=bottom;spacingTop=0;spacing=0;editableCssRules=\.st[0-2]$;labelBackgroundColor=none;aspect=fixed;imageAspect=0;image=data:image/svg+xml,PHN2ZyB4bWxuczp4bGluaz0iaHR0cDovL3d3dy53My5vcmcvMTk5OS94bGluayIgeG1sbnM9Imh0dHA6Ly93d3cudzMub3JnLzIwMDAvc3ZnIiB4bWw6c3BhY2U9InByZXNlcnZlIiBzdHlsZT0iZW5hYmxlLWJhY2tncm91bmQ6bmV3IDAgMCAxMjAgMTIwO2VkaXRhYmxlQ3NzUnVsZXM9Lio7IiB2aWV3Qm94PSIwIDAgMTIwIDEyMCIgeT0iMHB4IiB4PSIwcHgiIGlkPSJMYXllcl8xIiB2ZXJzaW9uPSIxLjEiPiYjeGE7PHN0eWxlIHR5cGU9InRleHQvY3NzIj4mI3hhOwkuc3Qwe2ZpbGw6IzAwMTEzNTt9JiN4YTsJLnN0MXtmaWxsOm5vbmU7c3Ryb2tlOiNGRkZGRkY7c3Ryb2tlLXdpZHRoOjQ7c3Ryb2tlLWxpbmVjYXA6cm91bmQ7c3Ryb2tlLWxpbmVqb2luOnJvdW5kO3N0cm9rZS1taXRlcmxpbWl0OjEwO30mI3hhOwkuc3Qye2ZpbGw6I0ZGRkZGRjt9JiN4YTsJLnN0M3tmaWxsOm5vbmU7c3Ryb2tlOiNGRkZGRkY7c3Ryb2tlLXdpZHRoOjQ7c3Ryb2tlLW1pdGVybGltaXQ6MTA7fSYjeGE7CS5zdDR7ZmlsbDpub25lO3N0cm9rZTojRkZGRkZGO3N0cm9rZS13aWR0aDo0O3N0cm9rZS1saW5lY2FwOnJvdW5kO3N0cm9rZS1saW5lam9pbjpyb3VuZDt9JiN4YTsJLnN0NXtmaWxsOiNGRkZGRkY7c3Ryb2tlOiNGRkZGRkY7c3Ryb2tlLXdpZHRoOjQ7c3Ryb2tlLWxpbmVjYXA6cm91bmQ7c3Ryb2tlLWxpbmVqb2luOnJvdW5kO3N0cm9rZS1taXRlcmxpbWl0OjEwO30mI3hhOwkuc3Q2e2ZpbGw6bm9uZTtzdHJva2U6I0ZGRkZGRjtzdHJva2Utd2lkdGg6NC4yMzMzO3N0cm9rZS1saW5lY2FwOnJvdW5kO3N0cm9rZS1saW5lam9pbjpyb3VuZDtzdHJva2UtbWl0ZXJsaW1pdDoxMDt9JiN4YTsJLnN0N3tmaWxsOm5vbmU7c3Ryb2tlOiNGRkZGRkY7c3Ryb2tlLXdpZHRoOjQ7c3Ryb2tlLWxpbmVjYXA6cm91bmQ7c3Ryb2tlLW1pdGVybGltaXQ6MTA7fSYjeGE7CS5zdDh7ZmlsbDojRkZGRkZGO3N0cm9rZTojRkZGRkZGO3N0cm9rZS13aWR0aDo0O3N0cm9rZS1taXRlcmxpbWl0OjEwO30mI3hhOwkuc3Q5e2ZpbGw6I0ZGRkZGRjtzdHJva2U6I0ZGRkZGRjtzdHJva2Utd2lkdGg6NDt9JiN4YTsJLnN0MTB7ZmlsbDpub25lO3N0cm9rZTojRkZGRkZGO3N0cm9rZS13aWR0aDo0O30mI3hhOwkuc3QxMXtmaWxsOiMyNjI2MjY7c3Ryb2tlOiNGRkZGRkY7c3Ryb2tlLXdpZHRoOjQuMjMzMzt9JiN4YTsJLnN0MTJ7ZmlsbC1ydWxlOmV2ZW5vZGQ7Y2xpcC1ydWxlOmV2ZW5vZGQ7ZmlsbDpub25lO3N0cm9rZTojRkZGRkZGO3N0cm9rZS13aWR0aDo0O3N0cm9rZS1taXRlcmxpbWl0OjEwO30mI3hhOwkuc3QxM3tmaWxsLXJ1bGU6ZXZlbm9kZDtjbGlwLXJ1bGU6ZXZlbm9kZDtmaWxsOiNGRkZGRkY7c3Ryb2tlOiNGRkZGRkY7c3Ryb2tlLXdpZHRoOjQ7fSYjeGE7CS5zdDE0e2ZpbGw6bm9uZTtzdHJva2U6I0ZGRkZGRjtzdHJva2Utd2lkdGg6NC4yMzMzO3N0cm9rZS1saW5lY2FwOnJvdW5kO3N0cm9rZS1saW5lam9pbjpyb3VuZDt9JiN4YTsJLnN0MTV7ZmlsbDpub25lO3N0cm9rZTojRkZGRkZGO3N0cm9rZS13aWR0aDo0O3N0cm9rZS1saW5lY2FwOnJvdW5kO30mI3hhOwkuc3QxNntmaWxsOiNGRkZGRkY7c3Ryb2tlOiNGRkZGRkY7c3Ryb2tlLW1pdGVybGltaXQ6MTA7fSYjeGE7CS5zdDE3e2ZpbGw6IzI2MjYyNjtzdHJva2U6I0ZGRkZGRjtzdHJva2Utd2lkdGg6NDtzdHJva2UtbWl0ZXJsaW1pdDoxMDt9JiN4YTsJLnN0MTh7ZmlsbDojRkZGRkZGO3N0cm9rZTojRkZGRkZGO3N0cm9rZS13aWR0aDo0O3N0cm9rZS1saW5lY2FwOnJvdW5kO3N0cm9rZS1saW5lam9pbjpyb3VuZDt9JiN4YTs8L3N0eWxlPiYjeGE7PHJlY3QgaGVpZ2h0PSIxMjAiIHdpZHRoPSIxMjAiIGNsYXNzPSJzdDAiLz4mI3hhOzxnPiYjeGE7CTxnPiYjeGE7CQk8cGF0aCBkPSJNNzEuNywxOS43VjQ4aDI4IiBjbGFzcz0ic3QxIi8+JiN4YTsJCTxwYXRoIGQ9Ik05MS4yLDM4LjVsNy41LDcuNmMxLjMsMS4zLDEuMywzLjEsMCw0LjNMOTEuMSw1OCIgY2xhc3M9InN0MSIvPiYjeGE7CTwvZz4mI3hhOwk8Zz4mI3hhOwkJPHBhdGggZD0iTTIwLDQ3LjhoMjguNHYtMjgiIGNsYXNzPSJzdDEiLz4mI3hhOwkJPHBhdGggZD0iTTM4LjgsMjguM2w3LjYtNy41YzEuMy0xLjMsMy4xLTEuMyw0LjMsMGw3LjcsNy42IiBjbGFzcz0ic3QxIi8+JiN4YTsJPC9nPiYjeGE7CTxnPiYjeGE7CQk8cGF0aCBkPSJNNDgsMTAwLjNWNzJIMjAiIGNsYXNzPSJzdDEiLz4mI3hhOwkJPHBhdGggZD0iTTI4LjUsODEuNUwyMSw3My45Yy0xLjMtMS4zLTEuMy0zLjEsMC00LjNsNy42LTcuNyIgY2xhc3M9InN0MSIvPiYjeGE7CTwvZz4mI3hhOwk8Zz4mI3hhOwkJPHBhdGggZD0iTTEwMCw3MS45SDcxLjZ2MjgiIGNsYXNzPSJzdDEiLz4mI3hhOwkJPHBhdGggZD0iTTgxLjIsOTEuNGwtNy42LDcuNWMtMS4zLDEuMy0zLjEsMS4zLTQuMywwbC03LjctNy42IiBjbGFzcz0ic3QxIi8+JiN4YTsJPC9nPiYjeGE7PC9nPiYjeGE7PC9zdmc+;" vertex="1" parent="1">
          <mxGeometry x="730.0" y="782.5" width="75" height="75" as="geometry" />
      </mxCell>
    </object><object id="clab-red-hospital-camara1" label="camara1">
      <mxCell style="shape=image;imageAlign=center;imageVerticalAlign=middle;labelPosition=left;align=right;verticalLabelPosition=top;spacingLeft=0;verticalAlign=bottom;spacingTop=0;spacing=0;editableCssRules=\.st[0-2]$;labelBackgroundColor=none;aspect=fixed;imageAspect=0;image=data:image/svg+xml,PHN2ZyB4bWxuczp4bGluaz0iaHR0cDovL3d3dy53My5vcmcvMTk5OS94bGluayIgeG1sbnM9Imh0dHA6Ly93d3cudzMub3JnLzIwMDAvc3ZnIiB4bWw6c3BhY2U9InByZXNlcnZlIiBzdHlsZT0iZW5hYmxlLWJhY2tncm91bmQ6bmV3IDAgMCAxMjAgMTIwO2VkaXRhYmxlQ3NzUnVsZXM9Lio7IiB2aWV3Qm94PSIwIDAgMTIwIDEyMCIgeT0iMHB4IiB4PSIwcHgiIGlkPSJMYXllcl8xIiB2ZXJzaW9uPSIxLjEiPiYjeGE7PHN0eWxlIHR5cGU9InRleHQvY3NzIj4mI3hhOwkuc3Qwe2ZpbGw6IzAwMTEzNTt9JiN4YTsJLnN0MXtmaWxsOm5vbmU7c3Ryb2tlOiNGRkZGRkY7c3Ryb2tlLXdpZHRoOjQ7c3Ryb2tlLWxpbmVjYXA6cm91bmQ7c3Ryb2tlLWxpbmVqb2luOnJvdW5kO3N0cm9rZS1taXRlcmxpbWl0OjEwO30mI3hhOwkuc3Qye2ZpbGw6I0ZGRkZGRjt9JiN4YTsJLnN0M3tmaWxsOm5vbmU7c3Ryb2tlOiNGRkZGRkY7c3Ryb2tlLXdpZHRoOjQ7c3Ryb2tlLW1pdGVybGltaXQ6MTA7fSYjeGE7CS5zdDR7ZmlsbDpub25lO3N0cm9rZTojRkZGRkZGO3N0cm9rZS13aWR0aDo0O3N0cm9rZS1saW5lY2FwOnJvdW5kO3N0cm9rZS1saW5lam9pbjpyb3VuZDt9JiN4YTsJLnN0NXtmaWxsOiNGRkZGRkY7c3Ryb2tlOiNGRkZGRkY7c3Ryb2tlLXdpZHRoOjQ7c3Ryb2tlLWxpbmVjYXA6cm91bmQ7c3Ryb2tlLWxpbmVqb2luOnJvdW5kO3N0cm9rZS1taXRlcmxpbWl0OjEwO30mI3hhOwkuc3Q2e2ZpbGw6bm9uZTtzdHJva2U6I0ZGRkZGRjtzdHJva2Utd2lkdGg6NC4yMzMzO3N0cm9rZS1saW5lY2FwOnJvdW5kO3N0cm9rZS1saW5lam9pbjpyb3VuZDtzdHJva2UtbWl0ZXJsaW1pdDoxMDt9JiN4YTsJLnN0N3tmaWxsOm5vbmU7c3Ryb2tlOiNGRkZGRkY7c3Ryb2tlLXdpZHRoOjQ7c3Ryb2tlLWxpbmVjYXA6cm91bmQ7c3Ryb2tlLW1pdGVybGltaXQ6MTA7fSYjeGE7CS5zdDh7ZmlsbDojRkZGRkZGO3N0cm9rZTojRkZGRkZGO3N0cm9rZS13aWR0aDo0O3N0cm9rZS1taXRlcmxpbWl0OjEwO30mI3hhOwkuc3Q5e2ZpbGw6I0ZGRkZGRjtzdHJva2U6I0ZGRkZGRjtzdHJva2Utd2lkdGg6NDt9JiN4YTsJLnN0MTB7ZmlsbDpub25lO3N0cm9rZTojRkZGRkZGO3N0cm9rZS13aWR0aDo0O30mI3hhOwkuc3QxMXtmaWxsOiMyNjI2MjY7c3Ryb2tlOiNGRkZGRkY7c3Ryb2tlLXdpZHRoOjQuMjMzMzt9JiN4YTsJLnN0MTJ7ZmlsbC1ydWxlOmV2ZW5vZGQ7Y2xpcC1ydWxlOmV2ZW5vZGQ7ZmlsbDpub25lO3N0cm9rZTojRkZGRkZGO3N0cm9rZS13aWR0aDo0O3N0cm9rZS1taXRlcmxpbWl0OjEwO30mI3hhOwkuc3QxM3tmaWxsLXJ1bGU6ZXZlbm9kZDtjbGlwLXJ1bGU6ZXZlbm9kZDtmaWxsOiNGRkZGRkY7c3Ryb2tlOiNGRkZGRkY7c3Ryb2tlLXdpZHRoOjQ7fSYjeGE7CS5zdDE0e2ZpbGw6bm9uZTtzdHJva2U6I0ZGRkZGRjtzdHJva2Utd2lkdGg6NC4yMzMzO3N0cm9rZS1saW5lY2FwOnJvdW5kO3N0cm9rZS1saW5lam9pbjpyb3VuZDt9JiN4YTsJLnN0MTV7ZmlsbDpub25lO3N0cm9rZTojRkZGRkZGO3N0cm9rZS13aWR0aDo0O3N0cm9rZS1saW5lY2FwOnJvdW5kO30mI3hhOwkuc3QxNntmaWxsOiNGRkZGRkY7c3Ryb2tlOiNGRkZGRkY7c3Ryb2tlLW1pdGVybGltaXQ6MTA7fSYjeGE7CS5zdDE3e2ZpbGw6IzI2MjYyNjtzdHJva2U6I0ZGRkZGRjtzdHJva2Utd2lkdGg6NDtzdHJva2UtbWl0ZXJsaW1pdDoxMDt9JiN4YTsJLnN0MTh7ZmlsbDojRkZGRkZGO3N0cm9rZTojRkZGRkZGO3N0cm9rZS13aWR0aDo0O3N0cm9rZS1saW5lY2FwOnJvdW5kO3N0cm9rZS1saW5lam9pbjpyb3VuZDt9JiN4YTs8L3N0eWxlPiYjeGE7PHJlY3QgaGVpZ2h0PSIxMjAiIHdpZHRoPSIxMjAiIGNsYXNzPSJzdDAiLz4mI3hhOzxnPiYjeGE7CTxnPiYjeGE7CQk8cGF0aCBkPSJNNzEuNywxOS43VjQ4aDI4IiBjbGFzcz0ic3QxIi8+JiN4YTsJCTxwYXRoIGQ9Ik05MS4yLDM4LjVsNy41LDcuNmMxLjMsMS4zLDEuMywzLjEsMCw0LjNMOTEuMSw1OCIgY2xhc3M9InN0MSIvPiYjeGE7CTwvZz4mI3hhOwk8Zz4mI3hhOwkJPHBhdGggZD0iTTIwLDQ3LjhoMjguNHYtMjgiIGNsYXNzPSJzdDEiLz4mI3hhOwkJPHBhdGggZD0iTTM4LjgsMjguM2w3LjYtNy41YzEuMy0xLjMsMy4xLTEuMyw0LjMsMGw3LjcsNy42IiBjbGFzcz0ic3QxIi8+JiN4YTsJPC9nPiYjeGE7CTxnPiYjeGE7CQk8cGF0aCBkPSJNNDgsMTAwLjNWNzJIMjAiIGNsYXNzPSJzdDEiLz4mI3hhOwkJPHBhdGggZD0iTTI4LjUsODEuNUwyMSw3My45Yy0xLjMtMS4zLTEuMy0zLjEsMC00LjNsNy42LTcuNyIgY2xhc3M9InN0MSIvPiYjeGE7CTwvZz4mI3hhOwk8Zz4mI3hhOwkJPHBhdGggZD0iTTEwMCw3MS45SDcxLjZ2MjgiIGNsYXNzPSJzdDEiLz4mI3hhOwkJPHBhdGggZD0iTTgxLjIsOTEuNGwtNy42LDcuNWMtMS4zLDEuMy0zLjEsMS4zLTQuMywwbC03LjctNy42IiBjbGFzcz0ic3QxIi8+JiN4YTsJPC9nPiYjeGE7PC9nPiYjeGE7PC9zdmc+;" vertex="1" parent="1">
          <mxGeometry x="257.5" y="782.5" width="75" height="75" as="geometry" />
      </mxCell>
    </object><object id="clab-red-hospital-camara2" label="camara2">
      <mxCell style="shape=image;imageAlign=center;imageVerticalAlign=middle;labelPosition=left;align=right;verticalLabelPosition=top;spacingLeft=0;verticalAlign=bottom;spacingTop=0;spacing=0;editableCssRules=\.st[0-2]$;labelBackgroundColor=none;aspect=fixed;imageAspect=0;image=data:image/svg+xml,PHN2ZyB4bWxuczp4bGluaz0iaHR0cDovL3d3dy53My5vcmcvMTk5OS94bGluayIgeG1sbnM9Imh0dHA6Ly93d3cudzMub3JnLzIwMDAvc3ZnIiB4bWw6c3BhY2U9InByZXNlcnZlIiBzdHlsZT0iZW5hYmxlLWJhY2tncm91bmQ6bmV3IDAgMCAxMjAgMTIwO2VkaXRhYmxlQ3NzUnVsZXM9Lio7IiB2aWV3Qm94PSIwIDAgMTIwIDEyMCIgeT0iMHB4IiB4PSIwcHgiIGlkPSJMYXllcl8xIiB2ZXJzaW9uPSIxLjEiPiYjeGE7PHN0eWxlIHR5cGU9InRleHQvY3NzIj4mI3hhOwkuc3Qwe2ZpbGw6IzAwMTEzNTt9JiN4YTsJLnN0MXtmaWxsOm5vbmU7c3Ryb2tlOiNGRkZGRkY7c3Ryb2tlLXdpZHRoOjQ7c3Ryb2tlLWxpbmVjYXA6cm91bmQ7c3Ryb2tlLWxpbmVqb2luOnJvdW5kO3N0cm9rZS1taXRlcmxpbWl0OjEwO30mI3hhOwkuc3Qye2ZpbGw6I0ZGRkZGRjt9JiN4YTsJLnN0M3tmaWxsOm5vbmU7c3Ryb2tlOiNGRkZGRkY7c3Ryb2tlLXdpZHRoOjQ7c3Ryb2tlLW1pdGVybGltaXQ6MTA7fSYjeGE7CS5zdDR7ZmlsbDpub25lO3N0cm9rZTojRkZGRkZGO3N0cm9rZS13aWR0aDo0O3N0cm9rZS1saW5lY2FwOnJvdW5kO3N0cm9rZS1saW5lam9pbjpyb3VuZDt9JiN4YTsJLnN0NXtmaWxsOiNGRkZGRkY7c3Ryb2tlOiNGRkZGRkY7c3Ryb2tlLXdpZHRoOjQ7c3Ryb2tlLWxpbmVjYXA6cm91bmQ7c3Ryb2tlLWxpbmVqb2luOnJvdW5kO3N0cm9rZS1taXRlcmxpbWl0OjEwO30mI3hhOwkuc3Q2e2ZpbGw6bm9uZTtzdHJva2U6I0ZGRkZGRjtzdHJva2Utd2lkdGg6NC4yMzMzO3N0cm9rZS1saW5lY2FwOnJvdW5kO3N0cm9rZS1saW5lam9pbjpyb3VuZDtzdHJva2UtbWl0ZXJsaW1pdDoxMDt9JiN4YTsJLnN0N3tmaWxsOm5vbmU7c3Ryb2tlOiNGRkZGRkY7c3Ryb2tlLXdpZHRoOjQ7c3Ryb2tlLWxpbmVjYXA6cm91bmQ7c3Ryb2tlLW1pdGVybGltaXQ6MTA7fSYjeGE7CS5zdDh7ZmlsbDojRkZGRkZGO3N0cm9rZTojRkZGRkZGO3N0cm9rZS13aWR0aDo0O3N0cm9rZS1taXRlcmxpbWl0OjEwO30mI3hhOwkuc3Q5e2ZpbGw6I0ZGRkZGRjtzdHJva2U6I0ZGRkZGRjtzdHJva2Utd2lkdGg6NDt9JiN4YTsJLnN0MTB7ZmlsbDpub25lO3N0cm9rZTojRkZGRkZGO3N0cm9rZS13aWR0aDo0O30mI3hhOwkuc3QxMXtmaWxsOiMyNjI2MjY7c3Ryb2tlOiNGRkZGRkY7c3Ryb2tlLXdpZHRoOjQuMjMzMzt9JiN4YTsJLnN0MTJ7ZmlsbC1ydWxlOmV2ZW5vZGQ7Y2xpcC1ydWxlOmV2ZW5vZGQ7ZmlsbDpub25lO3N0cm9rZTojRkZGRkZGO3N0cm9rZS13aWR0aDo0O3N0cm9rZS1taXRlcmxpbWl0OjEwO30mI3hhOwkuc3QxM3tmaWxsLXJ1bGU6ZXZlbm9kZDtjbGlwLXJ1bGU6ZXZlbm9kZDtmaWxsOiNGRkZGRkY7c3Ryb2tlOiNGRkZGRkY7c3Ryb2tlLXdpZHRoOjQ7fSYjeGE7CS5zdDE0e2ZpbGw6bm9uZTtzdHJva2U6I0ZGRkZGRjtzdHJva2Utd2lkdGg6NC4yMzMzO3N0cm9rZS1saW5lY2FwOnJvdW5kO3N0cm9rZS1saW5lam9pbjpyb3VuZDt9JiN4YTsJLnN0MTV7ZmlsbDpub25lO3N0cm9rZTojRkZGRkZGO3N0cm9rZS13aWR0aDo0O3N0cm9rZS1saW5lY2FwOnJvdW5kO30mI3hhOwkuc3QxNntmaWxsOiNGRkZGRkY7c3Ryb2tlOiNGRkZGRkY7c3Ryb2tlLW1pdGVybGltaXQ6MTA7fSYjeGE7CS5zdDE3e2ZpbGw6IzI2MjYyNjtzdHJva2U6I0ZGRkZGRjtzdHJva2Utd2lkdGg6NDtzdHJva2UtbWl0ZXJsaW1pdDoxMDt9JiN4YTsJLnN0MTh7ZmlsbDojRkZGRkZGO3N0cm9rZTojRkZGRkZGO3N0cm9rZS13aWR0aDo0O3N0cm9rZS1saW5lY2FwOnJvdW5kO3N0cm9rZS1saW5lam9pbjpyb3VuZDt9JiN4YTs8L3N0eWxlPiYjeGE7PHJlY3QgaGVpZ2h0PSIxMjAiIHdpZHRoPSIxMjAiIGNsYXNzPSJzdDAiLz4mI3hhOzxnPiYjeGE7CTxnPiYjeGE7CQk8cGF0aCBkPSJNNzEuNywxOS43VjQ4aDI4IiBjbGFzcz0ic3QxIi8+JiN4YTsJCTxwYXRoIGQ9Ik05MS4yLDM4LjVsNy41LDcuNmMxLjMsMS4zLDEuMywzLjEsMCw0LjNMOTEuMSw1OCIgY2xhc3M9InN0MSIvPiYjeGE7CTwvZz4mI3hhOwk8Zz4mI3hhOwkJPHBhdGggZD0iTTIwLDQ3LjhoMjguNHYtMjgiIGNsYXNzPSJzdDEiLz4mI3hhOwkJPHBhdGggZD0iTTM4LjgsMjguM2w3LjYtNy41YzEuMy0xLjMsMy4xLTEuMyw0LjMsMGw3LjcsNy42IiBjbGFzcz0ic3QxIi8+JiN4YTsJPC9nPiYjeGE7CTxnPiYjeGE7CQk8cGF0aCBkPSJNNDgsMTAwLjNWNzJIMjAiIGNsYXNzPSJzdDEiLz4mI3hhOwkJPHBhdGggZD0iTTI4LjUsODEuNUwyMSw3My45Yy0xLjMtMS4zLTEuMy0zLjEsMC00LjNsNy42LTcuNyIgY2xhc3M9InN0MSIvPiYjeGE7CTwvZz4mI3hhOwk8Zz4mI3hhOwkJPHBhdGggZD0iTTEwMCw3MS45SDcxLjZ2MjgiIGNsYXNzPSJzdDEiLz4mI3hhOwkJPHBhdGggZD0iTTgxLjIsOTEuNGwtNy42LDcuNWMtMS4zLDEuMy0zLjEsMS4zLTQuMywwbC03LjctNy42IiBjbGFzcz0ic3QxIi8+JiN4YTsJPC9nPiYjeGE7PC9nPiYjeGE7PC9zdmc+;" vertex="1" parent="1">
          <mxGeometry x="527.5" y="782.5" width="75" height="75" as="geometry" />
      </mxCell>
    </object><object id="clab-red-hospital-camara3" label="camara3">
      <mxCell style="shape=image;imageAlign=center;imageVerticalAlign=middle;labelPosition=left;align=right;verticalLabelPosition=top;spacingLeft=0;verticalAlign=bottom;spacingTop=0;spacing=0;editableCssRules=\.st[0-2]$;labelBackgroundColor=none;aspect=fixed;imageAspect=0;image=data:image/svg+xml,PHN2ZyB4bWxuczp4bGluaz0iaHR0cDovL3d3dy53My5vcmcvMTk5OS94bGluayIgeG1sbnM9Imh0dHA6Ly93d3cudzMub3JnLzIwMDAvc3ZnIiB4bWw6c3BhY2U9InByZXNlcnZlIiBzdHlsZT0iZW5hYmxlLWJhY2tncm91bmQ6bmV3IDAgMCAxMjAgMTIwO2VkaXRhYmxlQ3NzUnVsZXM9Lio7IiB2aWV3Qm94PSIwIDAgMTIwIDEyMCIgeT0iMHB4IiB4PSIwcHgiIGlkPSJMYXllcl8xIiB2ZXJzaW9uPSIxLjEiPiYjeGE7PHN0eWxlIHR5cGU9InRleHQvY3NzIj4mI3hhOwkuc3Qwe2ZpbGw6IzAwMTEzNTt9JiN4YTsJLnN0MXtmaWxsOm5vbmU7c3Ryb2tlOiNGRkZGRkY7c3Ryb2tlLXdpZHRoOjQ7c3Ryb2tlLWxpbmVjYXA6cm91bmQ7c3Ryb2tlLWxpbmVqb2luOnJvdW5kO3N0cm9rZS1taXRlcmxpbWl0OjEwO30mI3hhOwkuc3Qye2ZpbGw6I0ZGRkZGRjt9JiN4YTsJLnN0M3tmaWxsOm5vbmU7c3Ryb2tlOiNGRkZGRkY7c3Ryb2tlLXdpZHRoOjQ7c3Ryb2tlLW1pdGVybGltaXQ6MTA7fSYjeGE7CS5zdDR7ZmlsbDpub25lO3N0cm9rZTojRkZGRkZGO3N0cm9rZS13aWR0aDo0O3N0cm9rZS1saW5lY2FwOnJvdW5kO3N0cm9rZS1saW5lam9pbjpyb3VuZDt9JiN4YTsJLnN0NXtmaWxsOiNGRkZGRkY7c3Ryb2tlOiNGRkZGRkY7c3Ryb2tlLXdpZHRoOjQ7c3Ryb2tlLWxpbmVjYXA6cm91bmQ7c3Ryb2tlLWxpbmVqb2luOnJvdW5kO3N0cm9rZS1taXRlcmxpbWl0OjEwO30mI3hhOwkuc3Q2e2ZpbGw6bm9uZTtzdHJva2U6I0ZGRkZGRjtzdHJva2Utd2lkdGg6NC4yMzMzO3N0cm9rZS1saW5lY2FwOnJvdW5kO3N0cm9rZS1saW5lam9pbjpyb3VuZDtzdHJva2UtbWl0ZXJsaW1pdDoxMDt9JiN4YTsJLnN0N3tmaWxsOm5vbmU7c3Ryb2tlOiNGRkZGRkY7c3Ryb2tlLXdpZHRoOjQ7c3Ryb2tlLWxpbmVjYXA6cm91bmQ7c3Ryb2tlLW1pdGVybGltaXQ6MTA7fSYjeGE7CS5zdDh7ZmlsbDojRkZGRkZGO3N0cm9rZTojRkZGRkZGO3N0cm9rZS13aWR0aDo0O3N0cm9rZS1taXRlcmxpbWl0OjEwO30mI3hhOwkuc3Q5e2ZpbGw6I0ZGRkZGRjtzdHJva2U6I0ZGRkZGRjtzdHJva2Utd2lkdGg6NDt9JiN4YTsJLnN0MTB7ZmlsbDpub25lO3N0cm9rZTojRkZGRkZGO3N0cm9rZS13aWR0aDo0O30mI3hhOwkuc3QxMXtmaWxsOiMyNjI2MjY7c3Ryb2tlOiNGRkZGRkY7c3Ryb2tlLXdpZHRoOjQuMjMzMzt9JiN4YTsJLnN0MTJ7ZmlsbC1ydWxlOmV2ZW5vZGQ7Y2xpcC1ydWxlOmV2ZW5vZGQ7ZmlsbDpub25lO3N0cm9rZTojRkZGRkZGO3N0cm9rZS13aWR0aDo0O3N0cm9rZS1taXRlcmxpbWl0OjEwO30mI3hhOwkuc3QxM3tmaWxsLXJ1bGU6ZXZlbm9kZDtjbGlwLXJ1bGU6ZXZlbm9kZDtmaWxsOiNGRkZGRkY7c3Ryb2tlOiNGRkZGRkY7c3Ryb2tlLXdpZHRoOjQ7fSYjeGE7CS5zdDE0e2ZpbGw6bm9uZTtzdHJva2U6I0ZGRkZGRjtzdHJva2Utd2lkdGg6NC4yMzMzO3N0cm9rZS1saW5lY2FwOnJvdW5kO3N0cm9rZS1saW5lam9pbjpyb3VuZDt9JiN4YTsJLnN0MTV7ZmlsbDpub25lO3N0cm9rZTojRkZGRkZGO3N0cm9rZS13aWR0aDo0O3N0cm9rZS1saW5lY2FwOnJvdW5kO30mI3hhOwkuc3QxNntmaWxsOiNGRkZGRkY7c3Ryb2tlOiNGRkZGRkY7c3Ryb2tlLW1pdGVybGltaXQ6MTA7fSYjeGE7CS5zdDE3e2ZpbGw6IzI2MjYyNjtzdHJva2U6I0ZGRkZGRjtzdHJva2Utd2lkdGg6NDtzdHJva2UtbWl0ZXJsaW1pdDoxMDt9JiN4YTsJLnN0MTh7ZmlsbDojRkZGRkZGO3N0cm9rZTojRkZGRkZGO3N0cm9rZS13aWR0aDo0O3N0cm9rZS1saW5lY2FwOnJvdW5kO3N0cm9rZS1saW5lam9pbjpyb3VuZDt9JiN4YTs8L3N0eWxlPiYjeGE7PHJlY3QgaGVpZ2h0PSIxMjAiIHdpZHRoPSIxMjAiIGNsYXNzPSJzdDAiLz4mI3hhOzxnPiYjeGE7CTxnPiYjeGE7CQk8cGF0aCBkPSJNNzEuNywxOS43VjQ4aDI4IiBjbGFzcz0ic3QxIi8+JiN4YTsJCTxwYXRoIGQ9Ik05MS4yLDM4LjVsNy41LDcuNmMxLjMsMS4zLDEuMywzLjEsMCw0LjNMOTEuMSw1OCIgY2xhc3M9InN0MSIvPiYjeGE7CTwvZz4mI3hhOwk8Zz4mI3hhOwkJPHBhdGggZD0iTTIwLDQ3LjhoMjguNHYtMjgiIGNsYXNzPSJzdDEiLz4mI3hhOwkJPHBhdGggZD0iTTM4LjgsMjguM2w3LjYtNy41YzEuMy0xLjMsMy4xLTEuMyw0LjMsMGw3LjcsNy42IiBjbGFzcz0ic3QxIi8+JiN4YTsJPC9nPiYjeGE7CTxnPiYjeGE7CQk8cGF0aCBkPSJNNDgsMTAwLjNWNzJIMjAiIGNsYXNzPSJzdDEiLz4mI3hhOwkJPHBhdGggZD0iTTI4LjUsODEuNUwyMSw3My45Yy0xLjMtMS4zLTEuMy0zLjEsMC00LjNsNy42LTcuNyIgY2xhc3M9InN0MSIvPiYjeGE7CTwvZz4mI3hhOwk8Zz4mI3hhOwkJPHBhdGggZD0iTTEwMCw3MS45SDcxLjZ2MjgiIGNsYXNzPSJzdDEiLz4mI3hhOwkJPHBhdGggZD0iTTgxLjIsOTEuNGwtNy42LDcuNWMtMS4zLDEuMy0zLjEsMS4zLTQuMywwbC03LjctNy42IiBjbGFzcz0ic3QxIi8+JiN4YTsJPC9nPiYjeGE7PC9nPiYjeGE7PC9zdmc+;" vertex="1" parent="1">
          <mxGeometry x="617.5" y="782.5" width="75" height="75" as="geometry" />
      </mxCell>
    </object><object id="clab-red-hospital-camara4" label="camara4">
      <mxCell style="shape=image;imageAlign=center;imageVerticalAlign=middle;labelPosition=left;align=right;verticalLabelPosition=top;spacingLeft=0;verticalAlign=bottom;spacingTop=0;spacing=0;editableCssRules=\.st[0-2]$;labelBackgroundColor=none;aspect=fixed;imageAspect=0;image=data:image/svg+xml,PHN2ZyB4bWxuczp4bGluaz0iaHR0cDovL3d3dy53My5vcmcvMTk5OS94bGluayIgeG1sbnM9Imh0dHA6Ly93d3cudzMub3JnLzIwMDAvc3ZnIiB4bWw6c3BhY2U9InByZXNlcnZlIiBzdHlsZT0iZW5hYmxlLWJhY2tncm91bmQ6bmV3IDAgMCAxMjAgMTIwO2VkaXRhYmxlQ3NzUnVsZXM9Lio7IiB2aWV3Qm94PSIwIDAgMTIwIDEyMCIgeT0iMHB4IiB4PSIwcHgiIGlkPSJMYXllcl8xIiB2ZXJzaW9uPSIxLjEiPiYjeGE7PHN0eWxlIHR5cGU9InRleHQvY3NzIj4mI3hhOwkuc3Qwe2ZpbGw6IzAwMTEzNTt9JiN4YTsJLnN0MXtmaWxsOm5vbmU7c3Ryb2tlOiNGRkZGRkY7c3Ryb2tlLXdpZHRoOjQ7c3Ryb2tlLWxpbmVjYXA6cm91bmQ7c3Ryb2tlLWxpbmVqb2luOnJvdW5kO3N0cm9rZS1taXRlcmxpbWl0OjEwO30mI3hhOwkuc3Qye2ZpbGw6I0ZGRkZGRjt9JiN4YTsJLnN0M3tmaWxsOm5vbmU7c3Ryb2tlOiNGRkZGRkY7c3Ryb2tlLXdpZHRoOjQ7c3Ryb2tlLW1pdGVybGltaXQ6MTA7fSYjeGE7CS5zdDR7ZmlsbDpub25lO3N0cm9rZTojRkZGRkZGO3N0cm9rZS13aWR0aDo0O3N0cm9rZS1saW5lY2FwOnJvdW5kO3N0cm9rZS1saW5lam9pbjpyb3VuZDt9JiN4YTsJLnN0NXtmaWxsOiNGRkZGRkY7c3Ryb2tlOiNGRkZGRkY7c3Ryb2tlLXdpZHRoOjQ7c3Ryb2tlLWxpbmVjYXA6cm91bmQ7c3Ryb2tlLWxpbmVqb2luOnJvdW5kO3N0cm9rZS1taXRlcmxpbWl0OjEwO30mI3hhOwkuc3Q2e2ZpbGw6bm9uZTtzdHJva2U6I0ZGRkZGRjtzdHJva2Utd2lkdGg6NC4yMzMzO3N0cm9rZS1saW5lY2FwOnJvdW5kO3N0cm9rZS1saW5lam9pbjpyb3VuZDtzdHJva2UtbWl0ZXJsaW1pdDoxMDt9JiN4YTsJLnN0N3tmaWxsOm5vbmU7c3Ryb2tlOiNGRkZGRkY7c3Ryb2tlLXdpZHRoOjQ7c3Ryb2tlLWxpbmVjYXA6cm91bmQ7c3Ryb2tlLW1pdGVybGltaXQ6MTA7fSYjeGE7CS5zdDh7ZmlsbDojRkZGRkZGO3N0cm9rZTojRkZGRkZGO3N0cm9rZS13aWR0aDo0O3N0cm9rZS1taXRlcmxpbWl0OjEwO30mI3hhOwkuc3Q5e2ZpbGw6I0ZGRkZGRjtzdHJva2U6I0ZGRkZGRjtzdHJva2Utd2lkdGg6NDt9JiN4YTsJLnN0MTB7ZmlsbDpub25lO3N0cm9rZTojRkZGRkZGO3N0cm9rZS13aWR0aDo0O30mI3hhOwkuc3QxMXtmaWxsOiMyNjI2MjY7c3Ryb2tlOiNGRkZGRkY7c3Ryb2tlLXdpZHRoOjQuMjMzMzt9JiN4YTsJLnN0MTJ7ZmlsbC1ydWxlOmV2ZW5vZGQ7Y2xpcC1ydWxlOmV2ZW5vZGQ7ZmlsbDpub25lO3N0cm9rZTojRkZGRkZGO3N0cm9rZS13aWR0aDo0O3N0cm9rZS1taXRlcmxpbWl0OjEwO30mI3hhOwkuc3QxM3tmaWxsLXJ1bGU6ZXZlbm9kZDtjbGlwLXJ1bGU6ZXZlbm9kZDtmaWxsOiNGRkZGRkY7c3Ryb2tlOiNGRkZGRkY7c3Ryb2tlLXdpZHRoOjQ7fSYjeGE7CS5zdDE0e2ZpbGw6bm9uZTtzdHJva2U6I0ZGRkZGRjtzdHJva2Utd2lkdGg6NC4yMzMzO3N0cm9rZS1saW5lY2FwOnJvdW5kO3N0cm9rZS1saW5lam9pbjpyb3VuZDt9JiN4YTsJLnN0MTV7ZmlsbDpub25lO3N0cm9rZTojRkZGRkZGO3N0cm9rZS13aWR0aDo0O3N0cm9rZS1saW5lY2FwOnJvdW5kO30mI3hhOwkuc3QxNntmaWxsOiNGRkZGRkY7c3Ryb2tlOiNGRkZGRkY7c3Ryb2tlLW1pdGVybGltaXQ6MTA7fSYjeGE7CS5zdDE3e2ZpbGw6IzI2MjYyNjtzdHJva2U6I0ZGRkZGRjtzdHJva2Utd2lkdGg6NDtzdHJva2UtbWl0ZXJsaW1pdDoxMDt9JiN4YTsJLnN0MTh7ZmlsbDojRkZGRkZGO3N0cm9rZTojRkZGRkZGO3N0cm9rZS13aWR0aDo0O3N0cm9rZS1saW5lY2FwOnJvdW5kO3N0cm9rZS1saW5lam9pbjpyb3VuZDt9JiN4YTs8L3N0eWxlPiYjeGE7PHJlY3QgaGVpZ2h0PSIxMjAiIHdpZHRoPSIxMjAiIGNsYXNzPSJzdDAiLz4mI3hhOzxnPiYjeGE7CTxnPiYjeGE7CQk8cGF0aCBkPSJNNzEuNywxOS43VjQ4aDI4IiBjbGFzcz0ic3QxIi8+JiN4YTsJCTxwYXRoIGQ9Ik05MS4yLDM4LjVsNy41LDcuNmMxLjMsMS4zLDEuMywzLjEsMCw0LjNMOTEuMSw1OCIgY2xhc3M9InN0MSIvPiYjeGE7CTwvZz4mI3hhOwk8Zz4mI3hhOwkJPHBhdGggZD0iTTIwLDQ3LjhoMjguNHYtMjgiIGNsYXNzPSJzdDEiLz4mI3hhOwkJPHBhdGggZD0iTTM4LjgsMjguM2w3LjYtNy41YzEuMy0xLjMsMy4xLTEuMyw0LjMsMGw3LjcsNy42IiBjbGFzcz0ic3QxIi8+JiN4YTsJPC9nPiYjeGE7CTxnPiYjeGE7CQk8cGF0aCBkPSJNNDgsMTAwLjNWNzJIMjAiIGNsYXNzPSJzdDEiLz4mI3hhOwkJPHBhdGggZD0iTTI4LjUsODEuNUwyMSw3My45Yy0xLjMtMS4zLTEuMy0zLjEsMC00LjNsNy42LTcuNyIgY2xhc3M9InN0MSIvPiYjeGE7CTwvZz4mI3hhOwk8Zz4mI3hhOwkJPHBhdGggZD0iTTEwMCw3MS45SDcxLjZ2MjgiIGNsYXNzPSJzdDEiLz4mI3hhOwkJPHBhdGggZD0iTTgxLjIsOTEuNGwtNy42LDcuNWMtMS4zLDEuMy0zLjEsMS4zLTQuMywwbC03LjctNy42IiBjbGFzcz0ic3QxIi8+JiN4YTsJPC9nPiYjeGE7PC9nPiYjeGE7PC9zdmc+;" vertex="1" parent="1">
          <mxGeometry x="932.5" y="730.0" width="75" height="75" as="geometry" />
      </mxCell>
    </object><object id="clab-red-hospital-web_server_dmz" label="web_server_dmz">
      <mxCell style="shape=image;imageAlign=center;imageVerticalAlign=middle;labelPosition=left;align=right;verticalLabelPosition=top;spacingLeft=0;verticalAlign=bottom;spacingTop=0;spacing=0;editableCssRules=\.st[0-2]$;labelBackgroundColor=none;aspect=fixed;imageAspect=0;image=data:image/svg+xml,PHN2ZyB4bWxuczp4bGluaz0iaHR0cDovL3d3dy53My5vcmcvMTk5OS94bGluayIgeG1sbnM9Imh0dHA6Ly93d3cudzMub3JnLzIwMDAvc3ZnIiB4bWw6c3BhY2U9InByZXNlcnZlIiBzdHlsZT0iZW5hYmxlLWJhY2tncm91bmQ6bmV3IDAgMCAxMjAgMTIwO2VkaXRhYmxlQ3NzUnVsZXM9Lio7IiB2aWV3Qm94PSIwIDAgMTIwIDEyMCIgeT0iMHB4IiB4PSIwcHgiIGlkPSJMYXllcl8xIiB2ZXJzaW9uPSIxLjEiPiYjeGE7PHN0eWxlIHR5cGU9InRleHQvY3NzIj4mI3hhOwkuc3Qwe2ZpbGw6IzAwMTEzNTt9JiN4YTsJLnN0MXtmaWxsOm5vbmU7c3Ryb2tlOiNGRkZGRkY7c3Ryb2tlLXdpZHRoOjQ7c3Ryb2tlLWxpbmVjYXA6cm91bmQ7c3Ryb2tlLWxpbmVqb2luOnJvdW5kO3N0cm9rZS1taXRlcmxpbWl0OjEwO30mI3hhOwkuc3Qye2ZpbGw6I0ZGRkZGRjt9JiN4YTsJLnN0M3tmaWxsOm5vbmU7c3Ryb2tlOiNGRkZGRkY7c3Ryb2tlLXdpZHRoOjQ7c3Ryb2tlLW1pdGVybGltaXQ6MTA7fSYjeGE7CS5zdDR7ZmlsbDpub25lO3N0cm9rZTojRkZGRkZGO3N0cm9rZS13aWR0aDo0O3N0cm9rZS1saW5lY2FwOnJvdW5kO3N0cm9rZS1saW5lam9pbjpyb3VuZDt9JiN4YTsJLnN0NXtmaWxsOiNGRkZGRkY7c3Ryb2tlOiNGRkZGRkY7c3Ryb2tlLXdpZHRoOjQ7c3Ryb2tlLWxpbmVjYXA6cm91bmQ7c3Ryb2tlLWxpbmVqb2luOnJvdW5kO3N0cm9rZS1taXRlcmxpbWl0OjEwO30mI3hhOwkuc3Q2e2ZpbGw6bm9uZTtzdHJva2U6I0ZGRkZGRjtzdHJva2Utd2lkdGg6NC4yMzMzO3N0cm9rZS1saW5lY2FwOnJvdW5kO3N0cm9rZS1saW5lam9pbjpyb3VuZDtzdHJva2UtbWl0ZXJsaW1pdDoxMDt9JiN4YTsJLnN0N3tmaWxsOm5vbmU7c3Ryb2tlOiNGRkZGRkY7c3Ryb2tlLXdpZHRoOjQ7c3Ryb2tlLWxpbmVjYXA6cm91bmQ7c3Ryb2tlLW1pdGVybGltaXQ6MTA7fSYjeGE7CS5zdDh7ZmlsbDojRkZGRkZGO3N0cm9rZTojRkZGRkZGO3N0cm9rZS13aWR0aDo0O3N0cm9rZS1taXRlcmxpbWl0OjEwO30mI3hhOwkuc3Q5e2ZpbGw6I0ZGRkZGRjtzdHJva2U6I0ZGRkZGRjtzdHJva2Utd2lkdGg6NDt9JiN4YTsJLnN0MTB7ZmlsbDpub25lO3N0cm9rZTojRkZGRkZGO3N0cm9rZS13aWR0aDo0O30mI3hhOwkuc3QxMXtmaWxsOiMyNjI2MjY7c3Ryb2tlOiNGRkZGRkY7c3Ryb2tlLXdpZHRoOjQuMjMzMzt9JiN4YTsJLnN0MTJ7ZmlsbC1ydWxlOmV2ZW5vZGQ7Y2xpcC1ydWxlOmV2ZW5vZGQ7ZmlsbDpub25lO3N0cm9rZTojRkZGRkZGO3N0cm9rZS13aWR0aDo0O3N0cm9rZS1taXRlcmxpbWl0OjEwO30mI3hhOwkuc3QxM3tmaWxsLXJ1bGU6ZXZlbm9kZDtjbGlwLXJ1bGU6ZXZlbm9kZDtmaWxsOiNGRkZGRkY7c3Ryb2tlOiNGRkZGRkY7c3Ryb2tlLXdpZHRoOjQ7fSYjeGE7CS5zdDE0e2ZpbGw6bm9uZTtzdHJva2U6I0ZGRkZGRjtzdHJva2Utd2lkdGg6NC4yMzMzO3N0cm9rZS1saW5lY2FwOnJvdW5kO3N0cm9rZS1saW5lam9pbjpyb3VuZDt9JiN4YTsJLnN0MTV7ZmlsbDpub25lO3N0cm9rZTojRkZGRkZGO3N0cm9rZS13aWR0aDo0O3N0cm9rZS1saW5lY2FwOnJvdW5kO30mI3hhOwkuc3QxNntmaWxsOiNGRkZGRkY7c3Ryb2tlOiNGRkZGRkY7c3Ryb2tlLW1pdGVybGltaXQ6MTA7fSYjeGE7CS5zdDE3e2ZpbGw6IzI2MjYyNjtzdHJva2U6I0ZGRkZGRjtzdHJva2Utd2lkdGg6NDtzdHJva2UtbWl0ZXJsaW1pdDoxMDt9JiN4YTsJLnN0MTh7ZmlsbDojRkZGRkZGO3N0cm9rZTojRkZGRkZGO3N0cm9rZS13aWR0aDo0O3N0cm9rZS1saW5lY2FwOnJvdW5kO3N0cm9rZS1saW5lam9pbjpyb3VuZDt9JiN4YTs8L3N0eWxlPiYjeGE7PHJlY3QgaGVpZ2h0PSIxMjAiIHdpZHRoPSIxMjAiIGNsYXNzPSJzdDAiLz4mI3hhOzxnPiYjeGE7CTxnPiYjeGE7CQk8cGF0aCBkPSJNNzEuNywxOS43VjQ4aDI4IiBjbGFzcz0ic3QxIi8+JiN4YTsJCTxwYXRoIGQ9Ik05MS4yLDM4LjVsNy41LDcuNmMxLjMsMS4zLDEuMywzLjEsMCw0LjNMOTEuMSw1OCIgY2xhc3M9InN0MSIvPiYjeGE7CTwvZz4mI3hhOwk8Zz4mI3hhOwkJPHBhdGggZD0iTTIwLDQ3LjhoMjguNHYtMjgiIGNsYXNzPSJzdDEiLz4mI3hhOwkJPHBhdGggZD0iTTM4LjgsMjguM2w3LjYtNy41YzEuMy0xLjMsMy4xLTEuMyw0LjMsMGw3LjcsNy42IiBjbGFzcz0ic3QxIi8+JiN4YTsJPC9nPiYjeGE7CTxnPiYjeGE7CQk8cGF0aCBkPSJNNDgsMTAwLjNWNzJIMjAiIGNsYXNzPSJzdDEiLz4mI3hhOwkJPHBhdGggZD0iTTI4LjUsODEuNUwyMSw3My45Yy0xLjMtMS4zLTEuMy0zLjEsMC00LjNsNy42LTcuNyIgY2xhc3M9InN0MSIvPiYjeGE7CTwvZz4mI3hhOwk8Zz4mI3hhOwkJPHBhdGggZD0iTTEwMCw3MS45SDcxLjZ2MjgiIGNsYXNzPSJzdDEiLz4mI3hhOwkJPHBhdGggZD0iTTgxLjIsOTEuNGwtNy42LDcuNWMtMS4zLDEuMy0zLjEsMS4zLTQuMywwbC03LjctNy42IiBjbGFzcz0ic3QxIi8+JiN4YTsJPC9nPiYjeGE7PC9nPiYjeGE7PC9zdmc+;" vertex="1" parent="1">
          <mxGeometry x="505.0" y="257.5" width="75" height="75" as="geometry" />
      </mxCell>
    </object><object id="clab-red-hospital-host_externo" label="host_externo">
      <mxCell style="shape=image;imageAlign=center;imageVerticalAlign=middle;labelPosition=left;align=right;verticalLabelPosition=top;spacingLeft=0;verticalAlign=bottom;spacingTop=0;spacing=0;editableCssRules=\.st[0-2]$;labelBackgroundColor=none;aspect=fixed;imageAspect=0;image=data:image/svg+xml,PHN2ZyB4bWxuczp4bGluaz0iaHR0cDovL3d3dy53My5vcmcvMTk5OS94bGluayIgeG1sbnM9Imh0dHA6Ly93d3cudzMub3JnLzIwMDAvc3ZnIiB4bWw6c3BhY2U9InByZXNlcnZlIiBzdHlsZT0iZW5hYmxlLWJhY2tncm91bmQ6bmV3IDAgMCAxMjAgMTIwO2VkaXRhYmxlQ3NzUnVsZXM9Lio7IiB2aWV3Qm94PSIwIDAgMTIwIDEyMCIgeT0iMHB4IiB4PSIwcHgiIGlkPSJMYXllcl8xIiB2ZXJzaW9uPSIxLjEiPiYjeGE7PHN0eWxlIHR5cGU9InRleHQvY3NzIj4mI3hhOwkuc3Qwe2ZpbGw6IzAwMTEzNTt9JiN4YTsJLnN0MXtmaWxsOm5vbmU7c3Ryb2tlOiNGRkZGRkY7c3Ryb2tlLXdpZHRoOjQ7c3Ryb2tlLWxpbmVjYXA6cm91bmQ7c3Ryb2tlLWxpbmVqb2luOnJvdW5kO3N0cm9rZS1taXRlcmxpbWl0OjEwO30mI3hhOwkuc3Qye2ZpbGw6I0ZGRkZGRjt9JiN4YTsJLnN0M3tmaWxsOm5vbmU7c3Ryb2tlOiNGRkZGRkY7c3Ryb2tlLXdpZHRoOjQ7c3Ryb2tlLW1pdGVybGltaXQ6MTA7fSYjeGE7CS5zdDR7ZmlsbDpub25lO3N0cm9rZTojRkZGRkZGO3N0cm9rZS13aWR0aDo0O3N0cm9rZS1saW5lY2FwOnJvdW5kO3N0cm9rZS1saW5lam9pbjpyb3VuZDt9JiN4YTsJLnN0NXtmaWxsOiNGRkZGRkY7c3Ryb2tlOiNGRkZGRkY7c3Ryb2tlLXdpZHRoOjQ7c3Ryb2tlLWxpbmVjYXA6cm91bmQ7c3Ryb2tlLWxpbmVqb2luOnJvdW5kO3N0cm9rZS1taXRlcmxpbWl0OjEwO30mI3hhOwkuc3Q2e2ZpbGw6bm9uZTtzdHJva2U6I0ZGRkZGRjtzdHJva2Utd2lkdGg6NC4yMzMzO3N0cm9rZS1saW5lY2FwOnJvdW5kO3N0cm9rZS1saW5lam9pbjpyb3VuZDtzdHJva2UtbWl0ZXJsaW1pdDoxMDt9JiN4YTsJLnN0N3tmaWxsOm5vbmU7c3Ryb2tlOiNGRkZGRkY7c3Ryb2tlLXdpZHRoOjQ7c3Ryb2tlLWxpbmVjYXA6cm91bmQ7c3Ryb2tlLW1pdGVybGltaXQ6MTA7fSYjeGE7CS5zdDh7ZmlsbDojRkZGRkZGO3N0cm9rZTojRkZGRkZGO3N0cm9rZS13aWR0aDo0O3N0cm9rZS1taXRlcmxpbWl0OjEwO30mI3hhOwkuc3Q5e2ZpbGw6I0ZGRkZGRjtzdHJva2U6I0ZGRkZGRjtzdHJva2Utd2lkdGg6NDt9JiN4YTsJLnN0MTB7ZmlsbDpub25lO3N0cm9rZTojRkZGRkZGO3N0cm9rZS13aWR0aDo0O30mI3hhOwkuc3QxMXtmaWxsOiMyNjI2MjY7c3Ryb2tlOiNGRkZGRkY7c3Ryb2tlLXdpZHRoOjQuMjMzMzt9JiN4YTsJLnN0MTJ7ZmlsbC1ydWxlOmV2ZW5vZGQ7Y2xpcC1ydWxlOmV2ZW5vZGQ7ZmlsbDpub25lO3N0cm9rZTojRkZGRkZGO3N0cm9rZS13aWR0aDo0O3N0cm9rZS1taXRlcmxpbWl0OjEwO30mI3hhOwkuc3QxM3tmaWxsLXJ1bGU6ZXZlbm9kZDtjbGlwLXJ1bGU6ZXZlbm9kZDtmaWxsOiNGRkZGRkY7c3Ryb2tlOiNGRkZGRkY7c3Ryb2tlLXdpZHRoOjQ7fSYjeGE7CS5zdDE0e2ZpbGw6bm9uZTtzdHJva2U6I0ZGRkZGRjtzdHJva2Utd2lkdGg6NC4yMzMzO3N0cm9rZS1saW5lY2FwOnJvdW5kO3N0cm9rZS1saW5lam9pbjpyb3VuZDt9JiN4YTsJLnN0MTV7ZmlsbDpub25lO3N0cm9rZTojRkZGRkZGO3N0cm9rZS13aWR0aDo0O3N0cm9rZS1saW5lY2FwOnJvdW5kO30mI3hhOwkuc3QxNntmaWxsOiNGRkZGRkY7c3Ryb2tlOiNGRkZGRkY7c3Ryb2tlLW1pdGVybGltaXQ6MTA7fSYjeGE7CS5zdDE3e2ZpbGw6IzI2MjYyNjtzdHJva2U6I0ZGRkZGRjtzdHJva2Utd2lkdGg6NDtzdHJva2UtbWl0ZXJsaW1pdDoxMDt9JiN4YTsJLnN0MTh7ZmlsbDojRkZGRkZGO3N0cm9rZTojRkZGRkZGO3N0cm9rZS13aWR0aDo0O3N0cm9rZS1saW5lY2FwOnJvdW5kO3N0cm9rZS1saW5lam9pbjpyb3VuZDt9JiN4YTs8L3N0eWxlPiYjeGE7PHJlY3QgaGVpZ2h0PSIxMjAiIHdpZHRoPSIxMjAiIGNsYXNzPSJzdDAiLz4mI3hhOzxnPiYjeGE7CTxnPiYjeGE7CQk8cGF0aCBkPSJNNzEuNywxOS43VjQ4aDI4IiBjbGFzcz0ic3QxIi8+JiN4YTsJCTxwYXRoIGQ9Ik05MS4yLDM4LjVsNy41LDcuNmMxLjMsMS4zLDEuMywzLjEsMCw0LjNMOTEuMSw1OCIgY2xhc3M9InN0MSIvPiYjeGE7CTwvZz4mI3hhOwk8Zz4mI3hhOwkJPHBhdGggZD0iTTIwLDQ3LjhoMjguNHYtMjgiIGNsYXNzPSJzdDEiLz4mI3hhOwkJPHBhdGggZD0iTTM4LjgsMjguM2w3LjYtNy41YzEuMy0xLjMsMy4xLTEuMyw0LjMsMGw3LjcsNy42IiBjbGFzcz0ic3QxIi8+JiN4YTsJPC9nPiYjeGE7CTxnPiYjeGE7CQk8cGF0aCBkPSJNNDgsMTAwLjNWNzJIMjAiIGNsYXNzPSJzdDEiLz4mI3hhOwkJPHBhdGggZD0iTTI4LjUsODEuNUwyMSw3My45Yy0xLjMtMS4zLTEuMy0zLjEsMC00LjNsNy42LTcuNyIgY2xhc3M9InN0MSIvPiYjeGE7CTwvZz4mI3hhOwk8Zz4mI3hhOwkJPHBhdGggZD0iTTEwMCw3MS45SDcxLjZ2MjgiIGNsYXNzPSJzdDEiLz4mI3hhOwkJPHBhdGggZD0iTTgxLjIsOTEuNGwtNy42LDcuNWMtMS4zLDEuMy0zLjEsMS4zLTQuMywwbC03LjctNy42IiBjbGFzcz0ic3QxIi8+JiN4YTsJPC9nPiYjeGE7PC9nPiYjeGE7PC9zdmc+;" vertex="1" parent="1">
          <mxGeometry x="505.0" y="100.0" width="75" height="75" as="geometry" />
      </mxCell>
    </object><object id="link_id:link:clab-red-hospital-leaf1:e0/1:clab-red-hospital-spine1:e0/1" label="" source="clab-red-hospital-leaf1" target="clab-red-hospital-spine1">
      <mxCell style="endArrow=none;jumpStyle=gap;entryY=1;exitY=0;entryX=0.5;exitX=0.5;" edge="1" parent="1" source="clab-red-hospital-leaf1" target="clab-red-hospital-spine1">
          <mxGeometry relative="1" as="geometry" />
      </mxCell>
    </object><object id="label:clab-red-hospital-leaf1:e0/1" label="e0/1">
      <mxCell style="rounded=1;whiteSpace=wrap;html=1;fontFamily=Google Sans;fontSource=https%3A%2F%2Ffonts.googleapis.com%2Fcss%3Ffamily%3DGoogle%2BSans;arcSize=32;spacing=0;spacingBottom=1;fillColor=#f5f5f5;fontColor=#333333;strokeColor=#98A2AE;fontSize=8;horizontal=1;fontStyle=1" vertex="1" parent="1">
          <mxGeometry x="304.7278784766429" y="590.4620202538929" width="20" height="10" as="geometry" />
      </mxCell>
    </object><object id="label:clab-red-hospital-spine1:e0/1" label="e0/1">
      <mxCell style="rounded=1;whiteSpace=wrap;html=1;fontFamily=Google Sans;fontSource=https%3A%2F%2Ffonts.googleapis.com%2Fcss%3Ffamily%3DGoogle%2BSans;arcSize=32;spacing=0;spacingBottom=1;fillColor=#f5f5f5;fontColor=#333333;strokeColor=#98A2AE;fontSize=8;horizontal=1;fontStyle=1" vertex="1" parent="1">
          <mxGeometry x="445.2721215233571" y="567.0379797461071" width="20" height="10" as="geometry" />
      </mxCell>
    </object><object id="link_id:link:clab-red-hospital-leaf1:e0/2:clab-red-hospital-spine2:e0/1" label="" source="clab-red-hospital-leaf1" target="clab-red-hospital-spine2">
      <mxCell style="endArrow=none;jumpStyle=gap;entryY=1;exitY=0;entryX=0.5;exitX=0.5;" edge="1" parent="1" source="clab-red-hospital-leaf1" target="clab-red-hospital-spine2">
          <mxGeometry relative="1" as="geometry" />
      </mxCell>
    </object><object id="label:clab-red-hospital-leaf1:e0/2" label="e0/2">
      <mxCell style="rounded=1;whiteSpace=wrap;html=1;fontFamily=Google Sans;fontSource=https%3A%2F%2Ffonts.googleapis.com%2Fcss%3Ffamily%3DGoogle%2BSans;arcSize=32;spacing=0;spacingBottom=1;fillColor=#f5f5f5;fontColor=#333333;strokeColor=#98A2AE;fontSize=8;horizontal=1;fontStyle=1" vertex="1" parent="1">
          <mxGeometry x="304.9453550891342" y="592.2725662896937" width="20" height="10" as="geometry" />
      </mxCell>
    </object><object id="label:clab-red-hospital-spine2:e0/1" label="e0/1">
      <mxCell style="rounded=1;whiteSpace=wrap;html=1;fontFamily=Google Sans;fontSource=https%3A%2F%2Ffonts.googleapis.com%2Fcss%3Ffamily%3DGoogle%2BSans;arcSize=32;spacing=0;spacingBottom=1;fillColor=#f5f5f5;fontColor=#333333;strokeColor=#98A2AE;fontSize=8;horizontal=1;fontStyle=1" vertex="1" parent="1">
          <mxGeometry x="670.0546449108658" y="565.2274337103063" width="20" height="10" as="geometry" />
      </mxCell>
    </object><object id="link_id:link:clab-red-hospital-leaf1:e0/3:clab-red-hospital-web_server_interno:eth1" label="" source="clab-red-hospital-leaf1" target="clab-red-hospital-web_server_interno">
      <mxCell style="endArrow=none;jumpStyle=gap;entryY=0;exitY=1;entryX=0.5;exitX=0.5;" edge="1" parent="1" source="clab-red-hospital-leaf1" target="clab-red-hospital-web_server_interno">
          <mxGeometry relative="1" as="geometry" />
      </mxCell>
    </object><object id="label:clab-red-hospital-leaf1:e0/3" label="e0/3">
      <mxCell style="rounded=1;whiteSpace=wrap;html=1;fontFamily=Google Sans;fontSource=https%3A%2F%2Ffonts.googleapis.com%2Fcss%3Ffamily%3DGoogle%2BSans;arcSize=32;spacing=0;spacingBottom=1;fillColor=#f5f5f5;fontColor=#333333;strokeColor=#98A2AE;fontSize=8;horizontal=1;fontStyle=1" vertex="1" parent="1">
          <mxGeometry x="267.1114561800017" y="677.6942719099992" width="20" height="10" as="geometry" />
      </mxCell>
    </object><object id="label:clab-red-hospital-web_server_interno:eth1" label="eth1">
      <mxCell style="rounded=1;whiteSpace=wrap;html=1;fontFamily=Google Sans;fontSource=https%3A%2F%2Ffonts.googleapis.com%2Fcss%3Ffamily%3DGoogle%2BSans;arcSize=32;spacing=0;spacingBottom=1;fillColor=#f5f5f5;fontColor=#333333;strokeColor=#98A2AE;fontSize=8;horizontal=1;fontStyle=1" vertex="1" parent="1">
          <mxGeometry x="190.38854381999832" y="716.0557280900008" width="20" height="10" as="geometry" />
      </mxCell>
    </object><object id="link_id:link:clab-red-hospital-leaf1:e1/1:clab-red-hospital-base_datos:eth1" label="" source="clab-red-hospital-leaf1" target="clab-red-hospital-base_datos">
      <mxCell style="endArrow=none;jumpStyle=gap;entryY=0.5;exitY=0.5;entryX=1;exitX=0;" edge="1" parent="1" source="clab-red-hospital-leaf1" target="clab-red-hospital-base_datos">
          <mxGeometry relative="1" as="geometry" />
      </mxCell>
    </object><object id="label:clab-red-hospital-leaf1:e1/1" label="e1/1">
      <mxCell style="rounded=1;whiteSpace=wrap;html=1;fontFamily=Google Sans;fontSource=https%3A%2F%2Ffonts.googleapis.com%2Fcss%3Ffamily%3DGoogle%2BSans;arcSize=32;spacing=0;spacingBottom=1;fillColor=#f5f5f5;fontColor=#333333;strokeColor=#98A2AE;fontSize=8;horizontal=1;fontStyle=1" vertex="1" parent="1">
          <mxGeometry x="230.62677024535785" y="641.9875098438632" width="20" height="10" as="geometry" />
      </mxCell>
    </object><object id="label:clab-red-hospital-base_datos:eth1" label="eth1">
      <mxCell style="rounded=1;whiteSpace=wrap;html=1;fontFamily=Google Sans;fontSource=https%3A%2F%2Ffonts.googleapis.com%2Fcss%3Ffamily%3DGoogle%2BSans;arcSize=32;spacing=0;spacingBottom=1;fillColor=#f5f5f5;fontColor=#333333;strokeColor=#98A2AE;fontSize=8;horizontal=1;fontStyle=1" vertex="1" parent="1">
          <mxGeometry x="181.87322975464215" y="673.0124901561368" width="20" height="10" as="geometry" />
      </mxCell>
    </object><object id="link_id:link:clab-red-hospital-leaf1:e1/2:clab-red-hospital-dns_dhcp_server:eth1" label="" source="clab-red-hospital-leaf1" target="clab-red-hospital-dns_dhcp_server">
      <mxCell style="endArrow=none;jumpStyle=gap;entryY=0.5;exitY=0.5;entryX=1;exitX=0;" edge="1" parent="1" source="clab-red-hospital-leaf1" target="clab-red-hospital-dns_dhcp_server">
          <mxGeometry relative="1" as="geometry" />
      </mxCell>
    </object><object id="label:clab-red-hospital-leaf1:e1/2" label="e1/2">
      <mxCell style="rounded=1;whiteSpace=wrap;html=1;fontFamily=Google Sans;fontSource=https%3A%2F%2Ffonts.googleapis.com%2Fcss%3Ffamily%3DGoogle%2BSans;arcSize=32;spacing=0;spacingBottom=1;fillColor=#f5f5f5;fontColor=#333333;strokeColor=#98A2AE;fontSize=8;horizontal=1;fontStyle=1" vertex="1" parent="1">
          <mxGeometry x="228.44148439973475" y="625.1859268544611" width="20" height="10" as="geometry" />
      </mxCell>
    </object><object id="label:clab-red-hospital-dns_dhcp_server:eth1" label="eth1">
      <mxCell style="rounded=1;whiteSpace=wrap;html=1;fontFamily=Google Sans;fontSource=https%3A%2F%2Ffonts.googleapis.com%2Fcss%3Ffamily%3DGoogle%2BSans;arcSize=32;spacing=0;spacingBottom=1;fillColor=#f5f5f5;fontColor=#333333;strokeColor=#98A2AE;fontSize=8;horizontal=1;fontStyle=1" vertex="1" parent="1">
          <mxGeometry x="184.05851560026525" y="611.0640731455389" width="20" height="10" as="geometry" />
      </mxCell>
    </object><object id="link_id:link:clab-red-hospital-leaf1:e1/3:clab-red-hospital-camara1:eth1" label="" source="clab-red-hospital-leaf1" target="clab-red-hospital-camara1">
      <mxCell style="endArrow=none;jumpStyle=gap;entryY=0;exitY=1;entryX=0.5;exitX=0.5;" edge="1" parent="1" source="clab-red-hospital-leaf1" target="clab-red-hospital-camara1">
          <mxGeometry relative="1" as="geometry" />
      </mxCell>
    </object><object id="label:clab-red-hospital-leaf1:e1/3" label="e1/3">
      <mxCell style="rounded=1;whiteSpace=wrap;html=1;fontFamily=Google Sans;fontSource=https%3A%2F%2Ffonts.googleapis.com%2Fcss%3Ffamily%3DGoogle%2BSans;arcSize=32;spacing=0;spacingBottom=1;fillColor=#f5f5f5;fontColor=#333333;strokeColor=#98A2AE;fontSize=8;horizontal=1;fontStyle=1" vertex="1" parent="1">
          <mxGeometry x="285.0" y="688.75" width="20" height="10" as="geometry" />
      </mxCell>
    </object><object id="label:clab-red-hospital-camara1:eth1" label="eth1">
      <mxCell style="rounded=1;whiteSpace=wrap;html=1;fontFamily=Google Sans;fontSource=https%3A%2F%2Ffonts.googleapis.com%2Fcss%3Ffamily%3DGoogle%2BSans;arcSize=32;spacing=0;spacingBottom=1;fillColor=#f5f5f5;fontColor=#333333;strokeColor=#98A2AE;fontSize=8;horizontal=1;fontStyle=1" vertex="1" parent="1">
          <mxGeometry x="285.0" y="757.5" width="20" height="10" as="geometry" />
      </mxCell>
    </object><object id="link_id:link:clab-red-hospital-leaf2:e0/1:clab-red-hospital-spine1:e0/2" label="" source="clab-red-hospital-leaf2" target="clab-red-hospital-spine1">
      <mxCell style="endArrow=none;jumpStyle=gap;entryY=1;exitY=0;entryX=0.5;exitX=0.5;" edge="1" parent="1" source="clab-red-hospital-leaf2" target="clab-red-hospital-spine1">
          <mxGeometry relative="1" as="geometry" />
      </mxCell>
    </object><object id="label:clab-red-hospital-leaf2:e0/1" label="e0/1">
      <mxCell style="rounded=1;whiteSpace=wrap;html=1;fontFamily=Google Sans;fontSource=https%3A%2F%2Ffonts.googleapis.com%2Fcss%3Ffamily%3DGoogle%2BSans;arcSize=32;spacing=0;spacingBottom=1;fillColor=#f5f5f5;fontColor=#333333;strokeColor=#98A2AE;fontSize=8;horizontal=1;fontStyle=1" vertex="1" parent="1">
          <mxGeometry x="482.2376518841578" y="626.9547235752453" width="20" height="10" as="geometry" />
      </mxCell>
    </object><object id="label:clab-red-hospital-spine1:e0/2" label="e0/2">
      <mxCell style="rounded=1;whiteSpace=wrap;html=1;fontFamily=Google Sans;fontSource=https%3A%2F%2Ffonts.googleapis.com%2Fcss%3Ffamily%3DGoogle%2BSans;arcSize=32;spacing=0;spacingBottom=1;fillColor=#f5f5f5;fontColor=#333333;strokeColor=#98A2AE;fontSize=8;horizontal=1;fontStyle=1" vertex="1" parent="1">
          <mxGeometry x="470.2623481158422" y="583.0452764247547" width="20" height="10" as="geometry" />
      </mxCell>
    </object><object id="link_id:link:clab-red-hospital-leaf2:e0/2:clab-red-hospital-spine2:e0/2" label="" source="clab-red-hospital-leaf2" target="clab-red-hospital-spine2">
      <mxCell style="endArrow=none;jumpStyle=gap;entryY=1;exitY=0;entryX=0.5;exitX=0.5;" edge="1" parent="1" source="clab-red-hospital-leaf2" target="clab-red-hospital-spine2">
          <mxGeometry relative="1" as="geometry" />
      </mxCell>
    </object><object id="label:clab-red-hospital-leaf2:e0/2" label="e0/2">
      <mxCell style="rounded=1;whiteSpace=wrap;html=1;fontFamily=Google Sans;fontSource=https%3A%2F%2Ffonts.googleapis.com%2Fcss%3Ffamily%3DGoogle%2BSans;arcSize=32;spacing=0;spacingBottom=1;fillColor=#f5f5f5;fontColor=#333333;strokeColor=#98A2AE;fontSize=8;horizontal=1;fontStyle=1" vertex="1" parent="1">
          <mxGeometry x="506.02184719539093" y="638.7040622537296" width="20" height="10" as="geometry" />
      </mxCell>
    </object><object id="label:clab-red-hospital-spine2:e0/2" label="e0/2">
      <mxCell style="rounded=1;whiteSpace=wrap;html=1;fontFamily=Google Sans;fontSource=https%3A%2F%2Ffonts.googleapis.com%2Fcss%3Ffamily%3DGoogle%2BSans;arcSize=32;spacing=0;spacingBottom=1;fillColor=#f5f5f5;fontColor=#333333;strokeColor=#98A2AE;fontSize=8;horizontal=1;fontStyle=1" vertex="1" parent="1">
          <mxGeometry x="671.4781528046091" y="571.2959377462704" width="20" height="10" as="geometry" />
      </mxCell>
    </object><object id="link_id:link:clab-red-hospital-leaf2:e0/3:clab-red-hospital-host_gestion:eth1" label="" source="clab-red-hospital-leaf2" target="clab-red-hospital-host_gestion">
      <mxCell style="endArrow=none;jumpStyle=gap;entryY=0;exitY=1;entryX=0.5;exitX=0.5;" edge="1" parent="1" source="clab-red-hospital-leaf2" target="clab-red-hospital-host_gestion">
          <mxGeometry relative="1" as="geometry" />
      </mxCell>
    </object><object id="label:clab-red-hospital-leaf2:e0/3" label="e0/3">
      <mxCell style="rounded=1;whiteSpace=wrap;html=1;fontFamily=Google Sans;fontSource=https%3A%2F%2Ffonts.googleapis.com%2Fcss%3Ffamily%3DGoogle%2BSans;arcSize=32;spacing=0;spacingBottom=1;fillColor=#f5f5f5;fontColor=#333333;strokeColor=#98A2AE;fontSize=8;horizontal=1;fontStyle=1" vertex="1" parent="1">
          <mxGeometry x="470.54003391989824" y="731.8499788000636" width="20" height="10" as="geometry" />
      </mxCell>
    </object><object id="label:clab-red-hospital-host_gestion:eth1" label="eth1">
      <mxCell style="rounded=1;whiteSpace=wrap;html=1;fontFamily=Google Sans;fontSource=https%3A%2F%2Ffonts.googleapis.com%2Fcss%3Ffamily%3DGoogle%2BSans;arcSize=32;spacing=0;spacingBottom=1;fillColor=#f5f5f5;fontColor=#333333;strokeColor=#98A2AE;fontSize=8;horizontal=1;fontStyle=1" vertex="1" parent="1">
          <mxGeometry x="414.45996608010176" y="766.9000211999364" width="20" height="10" as="geometry" />
      </mxCell>
    </object><object id="link_id:link:clab-red-hospital-leaf2:e1/1:clab-red-hospital-camara2:eth1" label="" source="clab-red-hospital-leaf2" target="clab-red-hospital-camara2">
      <mxCell style="endArrow=none;jumpStyle=gap;entryY=0;exitY=1;entryX=0.5;exitX=0.5;" edge="1" parent="1" source="clab-red-hospital-leaf2" target="clab-red-hospital-camara2">
          <mxGeometry relative="1" as="geometry" />
      </mxCell>
    </object><object id="label:clab-red-hospital-leaf2:e1/1" label="e1/1">
      <mxCell style="rounded=1;whiteSpace=wrap;html=1;fontFamily=Google Sans;fontSource=https%3A%2F%2Ffonts.googleapis.com%2Fcss%3Ffamily%3DGoogle%2BSans;arcSize=32;spacing=0;spacingBottom=1;fillColor=#f5f5f5;fontColor=#333333;strokeColor=#98A2AE;fontSize=8;horizontal=1;fontStyle=1" vertex="1" parent="1">
          <mxGeometry x="502.86442559194757" y="734.0536879932896" width="20" height="10" as="geometry" />
      </mxCell>
    </object><object id="label:clab-red-hospital-camara2:eth1" label="eth1">
      <mxCell style="rounded=1;whiteSpace=wrap;html=1;fontFamily=Google Sans;fontSource=https%3A%2F%2Ffonts.googleapis.com%2Fcss%3Ffamily%3DGoogle%2BSans;arcSize=32;spacing=0;spacingBottom=1;fillColor=#f5f5f5;fontColor=#333333;strokeColor=#98A2AE;fontSize=8;horizontal=1;fontStyle=1" vertex="1" parent="1">
          <mxGeometry x="539.6355744080524" y="764.6963120067104" width="20" height="10" as="geometry" />
      </mxCell>
    </object><object id="link_id:link:clab-red-hospital-leaf2:e1/2:clab-red-hospital-host_gestion_camaras:eth1" label="" source="clab-red-hospital-leaf2" target="clab-red-hospital-host_gestion_camaras">
      <mxCell style="endArrow=none;jumpStyle=gap;entryY=0;exitY=1;entryX=0.5;exitX=0.5;" edge="1" parent="1" source="clab-red-hospital-leaf2" target="clab-red-hospital-host_gestion_camaras">
          <mxGeometry relative="1" as="geometry" />
      </mxCell>
    </object><object id="label:clab-red-hospital-leaf2:e1/2" label="e1/2">
      <mxCell style="rounded=1;whiteSpace=wrap;html=1;fontFamily=Google Sans;fontSource=https%3A%2F%2Ffonts.googleapis.com%2Fcss%3Ffamily%3DGoogle%2BSans;arcSize=32;spacing=0;spacingBottom=1;fillColor=#f5f5f5;fontColor=#333333;strokeColor=#98A2AE;fontSize=8;horizontal=1;fontStyle=1" vertex="1" parent="1">
          <mxGeometry x="487.5" y="741.25" width="20" height="10" as="geometry" />
      </mxCell>
    </object><object id="label:clab-red-hospital-host_gestion_camaras:eth1" label="eth1">
      <mxCell style="rounded=1;whiteSpace=wrap;html=1;fontFamily=Google Sans;fontSource=https%3A%2F%2Ffonts.googleapis.com%2Fcss%3Ffamily%3DGoogle%2BSans;arcSize=32;spacing=0;spacingBottom=1;fillColor=#f5f5f5;fontColor=#333333;strokeColor=#98A2AE;fontSize=8;horizontal=1;fontStyle=1" vertex="1" parent="1">
          <mxGeometry x="487.5" y="783.75" width="20" height="10" as="geometry" />
      </mxCell>
    </object><object id="link_id:link:clab-red-hospital-leaf3:e0/1:clab-red-hospital-spine1:e0/3" label="" source="clab-red-hospital-leaf3" target="clab-red-hospital-spine1">
      <mxCell style="endArrow=none;jumpStyle=gap;entryY=1;exitY=0;entryX=0.5;exitX=0.5;" edge="1" parent="1" source="clab-red-hospital-leaf3" target="clab-red-hospital-spine1">
          <mxGeometry relative="1" as="geometry" />
      </mxCell>
    </object><object id="label:clab-red-hospital-leaf3:e0/1" label="e0/1">
      <mxCell style="rounded=1;whiteSpace=wrap;html=1;fontFamily=Google Sans;fontSource=https%3A%2F%2Ffonts.googleapis.com%2Fcss%3Ffamily%3DGoogle%2BSans;arcSize=32;spacing=0;spacingBottom=1;fillColor=#f5f5f5;fontColor=#333333;strokeColor=#98A2AE;fontSize=8;horizontal=1;fontStyle=1" vertex="1" parent="1">
          <mxGeometry x="648.9781528046091" y="638.7040622537296" width="20" height="10" as="geometry" />
      </mxCell>
    </object><object id="label:clab-red-hospital-spine1:e0/3" label="e0/3">
      <mxCell style="rounded=1;whiteSpace=wrap;html=1;fontFamily=Google Sans;fontSource=https%3A%2F%2Ffonts.googleapis.com%2Fcss%3Ffamily%3DGoogle%2BSans;arcSize=32;spacing=0;spacingBottom=1;fillColor=#f5f5f5;fontColor=#333333;strokeColor=#98A2AE;fontSize=8;horizontal=1;fontStyle=1" vertex="1" parent="1">
          <mxGeometry x="483.52184719539093" y="571.2959377462704" width="20" height="10" as="geometry" />
      </mxCell>
    </object><object id="link_id:link:clab-red-hospital-leaf3:e0/2:clab-red-hospital-spine2:e0/3" label="" source="clab-red-hospital-leaf3" target="clab-red-hospital-spine2">
      <mxCell style="endArrow=none;jumpStyle=gap;entryY=1;exitY=0;entryX=0.5;exitX=0.5;" edge="1" parent="1" source="clab-red-hospital-leaf3" target="clab-red-hospital-spine2">
          <mxGeometry relative="1" as="geometry" />
      </mxCell>
    </object><object id="label:clab-red-hospital-leaf3:e0/2" label="e0/2">
      <mxCell style="rounded=1;whiteSpace=wrap;html=1;fontFamily=Google Sans;fontSource=https%3A%2F%2Ffonts.googleapis.com%2Fcss%3Ffamily%3DGoogle%2BSans;arcSize=32;spacing=0;spacingBottom=1;fillColor=#f5f5f5;fontColor=#333333;strokeColor=#98A2AE;fontSize=8;horizontal=1;fontStyle=1" vertex="1" parent="1">
          <mxGeometry x="672.7623481158422" y="626.9547235752453" width="20" height="10" as="geometry" />
      </mxCell>
    </object><object id="label:clab-red-hospital-spine2:e0/3" label="e0/3">
      <mxCell style="rounded=1;whiteSpace=wrap;html=1;fontFamily=Google Sans;fontSource=https%3A%2F%2Ffonts.googleapis.com%2Fcss%3Ffamily%3DGoogle%2BSans;arcSize=32;spacing=0;spacingBottom=1;fillColor=#f5f5f5;fontColor=#333333;strokeColor=#98A2AE;fontSize=8;horizontal=1;fontStyle=1" vertex="1" parent="1">
          <mxGeometry x="684.7376518841578" y="583.0452764247547" width="20" height="10" as="geometry" />
      </mxCell>
    </object><object id="link_id:link:clab-red-hospital-leaf3:e0/3:clab-red-hospital-camara3:eth1" label="" source="clab-red-hospital-leaf3" target="clab-red-hospital-camara3">
      <mxCell style="endArrow=none;jumpStyle=gap;entryY=0;exitY=1;entryX=0.5;exitX=0.5;" edge="1" parent="1" source="clab-red-hospital-leaf3" target="clab-red-hospital-camara3">
          <mxGeometry relative="1" as="geometry" />
      </mxCell>
    </object><object id="label:clab-red-hospital-leaf3:e0/3" label="e0/3">
      <mxCell style="rounded=1;whiteSpace=wrap;html=1;fontFamily=Google Sans;fontSource=https%3A%2F%2Ffonts.googleapis.com%2Fcss%3Ffamily%3DGoogle%2BSans;arcSize=32;spacing=0;spacingBottom=1;fillColor=#f5f5f5;fontColor=#333333;strokeColor=#98A2AE;fontSize=8;horizontal=1;fontStyle=1" vertex="1" parent="1">
          <mxGeometry x="660.0721864729179" y="739.8195338177052" width="20" height="10" as="geometry" />
      </mxCell>
    </object><object id="label:clab-red-hospital-camara3:eth1" label="eth1">
      <mxCell style="rounded=1;whiteSpace=wrap;html=1;fontFamily=Google Sans;fontSource=https%3A%2F%2Ffonts.googleapis.com%2Fcss%3Ffamily%3DGoogle%2BSans;arcSize=32;spacing=0;spacingBottom=1;fillColor=#f5f5f5;fontColor=#333333;strokeColor=#98A2AE;fontSize=8;horizontal=1;fontStyle=1" vertex="1" parent="1">
          <mxGeometry x="652.4278135270821" y="758.9304661822948" width="20" height="10" as="geometry" />
      </mxCell>
    </object><object id="link_id:link:clab-red-hospital-leaf3:e1/1:clab-red-hospital-host_gamma_knife:eth1" label="" source="clab-red-hospital-leaf3" target="clab-red-hospital-host_gamma_knife">
      <mxCell style="endArrow=none;jumpStyle=gap;entryY=0;exitY=1;entryX=0.5;exitX=0.5;" edge="1" parent="1" source="clab-red-hospital-leaf3" target="clab-red-hospital-host_gamma_knife">
          <mxGeometry relative="1" as="geometry" />
      </mxCell>
    </object><object id="label:clab-red-hospital-leaf3:e1/1" label="e1/1">
      <mxCell style="rounded=1;whiteSpace=wrap;html=1;fontFamily=Google Sans;fontSource=https%3A%2F%2Ffonts.googleapis.com%2Fcss%3Ffamily%3DGoogle%2BSans;arcSize=32;spacing=0;spacingBottom=1;fillColor=#f5f5f5;fontColor=#333333;strokeColor=#98A2AE;fontSize=8;horizontal=1;fontStyle=1" vertex="1" parent="1">
          <mxGeometry x="684.4599660801017" y="731.8499788000636" width="20" height="10" as="geometry" />
      </mxCell>
    </object><object id="label:clab-red-hospital-host_gamma_knife:eth1" label="eth1">
      <mxCell style="rounded=1;whiteSpace=wrap;html=1;fontFamily=Google Sans;fontSource=https%3A%2F%2Ffonts.googleapis.com%2Fcss%3Ffamily%3DGoogle%2BSans;arcSize=32;spacing=0;spacingBottom=1;fillColor=#f5f5f5;fontColor=#333333;strokeColor=#98A2AE;fontSize=8;horizontal=1;fontStyle=1" vertex="1" parent="1">
          <mxGeometry x="740.5400339198983" y="766.9000211999364" width="20" height="10" as="geometry" />
      </mxCell>
    </object><object id="link_id:link:clab-red-hospital-leaf4:e0/1:clab-red-hospital-spine1:e1/1" label="" source="clab-red-hospital-leaf4" target="clab-red-hospital-spine1">
      <mxCell style="endArrow=none;jumpStyle=gap;entryY=1;exitY=0;entryX=0.5;exitX=0.5;" edge="1" parent="1" source="clab-red-hospital-leaf4" target="clab-red-hospital-spine1">
          <mxGeometry relative="1" as="geometry" />
      </mxCell>
    </object><object id="label:clab-red-hospital-leaf4:e0/1" label="e0/1">
      <mxCell style="rounded=1;whiteSpace=wrap;html=1;fontFamily=Google Sans;fontSource=https%3A%2F%2Ffonts.googleapis.com%2Fcss%3Ffamily%3DGoogle%2BSans;arcSize=32;spacing=0;spacingBottom=1;fillColor=#f5f5f5;fontColor=#333333;strokeColor=#98A2AE;fontSize=8;horizontal=1;fontStyle=1" vertex="1" parent="1">
          <mxGeometry x="805.0690848351024" y="592.0890904029252" width="20" height="10" as="geometry" />
      </mxCell>
    </object><object id="label:clab-red-hospital-spine1:e1/1" label="e1/1">
      <mxCell style="rounded=1;whiteSpace=wrap;html=1;fontFamily=Google Sans;fontSource=https%3A%2F%2Ffonts.googleapis.com%2Fcss%3Ffamily%3DGoogle%2BSans;arcSize=32;spacing=0;spacingBottom=1;fillColor=#f5f5f5;fontColor=#333333;strokeColor=#98A2AE;fontSize=8;horizontal=1;fontStyle=1" vertex="1" parent="1">
          <mxGeometry x="484.9309151648976" y="565.4109095970748" width="20" height="10" as="geometry" />
      </mxCell>
    </object><object id="link_id:link:clab-red-hospital-leaf4:e0/2:clab-red-hospital-spine2:e1/1" label="" source="clab-red-hospital-leaf4" target="clab-red-hospital-spine2">
      <mxCell style="endArrow=none;jumpStyle=gap;entryY=1;exitY=0;entryX=0.5;exitX=0.5;" edge="1" parent="1" source="clab-red-hospital-leaf4" target="clab-red-hospital-spine2">
          <mxGeometry relative="1" as="geometry" />
      </mxCell>
    </object><object id="label:clab-red-hospital-leaf4:e0/2" label="e0/2">
      <mxCell style="rounded=1;whiteSpace=wrap;html=1;fontFamily=Google Sans;fontSource=https%3A%2F%2Ffonts.googleapis.com%2Fcss%3Ffamily%3DGoogle%2BSans;arcSize=32;spacing=0;spacingBottom=1;fillColor=#f5f5f5;fontColor=#333333;strokeColor=#98A2AE;fontSize=8;horizontal=1;fontStyle=1" vertex="1" parent="1">
          <mxGeometry x="805.476258796321" y="589.4113908436269" width="20" height="10" as="geometry" />
      </mxCell>
    </object><object id="label:clab-red-hospital-spine2:e1/1" label="e1/1">
      <mxCell style="rounded=1;whiteSpace=wrap;html=1;fontFamily=Google Sans;fontSource=https%3A%2F%2Ffonts.googleapis.com%2Fcss%3Ffamily%3DGoogle%2BSans;arcSize=32;spacing=0;spacingBottom=1;fillColor=#f5f5f5;fontColor=#333333;strokeColor=#98A2AE;fontSize=8;horizontal=1;fontStyle=1" vertex="1" parent="1">
          <mxGeometry x="709.523741203679" y="568.0886091563731" width="20" height="10" as="geometry" />
      </mxCell>
    </object><object id="link_id:link:clab-red-hospital-leaf4:e0/3:clab-red-hospital-camara4:eth1" label="" source="clab-red-hospital-leaf4" target="clab-red-hospital-camara4">
      <mxCell style="endArrow=none;jumpStyle=gap;entryY=0;exitY=1;entryX=0.5;exitX=0.5;" edge="1" parent="1" source="clab-red-hospital-leaf4" target="clab-red-hospital-camara4">
          <mxGeometry relative="1" as="geometry" />
      </mxCell>
    </object><object id="label:clab-red-hospital-leaf4:e0/3" label="e0/3">
      <mxCell style="rounded=1;whiteSpace=wrap;html=1;fontFamily=Google Sans;fontSource=https%3A%2F%2Ffonts.googleapis.com%2Fcss%3Ffamily%3DGoogle%2BSans;arcSize=32;spacing=0;spacingBottom=1;fillColor=#f5f5f5;fontColor=#333333;strokeColor=#98A2AE;fontSize=8;horizontal=1;fontStyle=1" vertex="1" parent="1">
          <mxGeometry x="843.4615384615385" y="676.4423076923077" width="20" height="10" as="geometry" />
      </mxCell>
    </object><object id="label:clab-red-hospital-camara4:eth1" label="eth1">
      <mxCell style="rounded=1;whiteSpace=wrap;html=1;fontFamily=Google Sans;fontSource=https%3A%2F%2Ffonts.googleapis.com%2Fcss%3Ffamily%3DGoogle%2BSans;arcSize=32;spacing=0;spacingBottom=1;fillColor=#f5f5f5;fontColor=#333333;strokeColor=#98A2AE;fontSize=8;horizontal=1;fontStyle=1" vertex="1" parent="1">
          <mxGeometry x="941.5384615384615" y="717.3076923076923" width="20" height="10" as="geometry" />
      </mxCell>
    </object><object id="link_id:link:clab-red-hospital-leaf4:e1/1:clab-red-hospital-host_electro:eth1" label="" source="clab-red-hospital-leaf4" target="clab-red-hospital-host_electro">
      <mxCell style="endArrow=none;jumpStyle=gap;entryY=0;exitY=1;entryX=0.5;exitX=0.5;" edge="1" parent="1" source="clab-red-hospital-leaf4" target="clab-red-hospital-host_electro">
          <mxGeometry relative="1" as="geometry" />
      </mxCell>
    </object><object id="label:clab-red-hospital-leaf4:e1/1" label="e1/1">
      <mxCell style="rounded=1;whiteSpace=wrap;html=1;fontFamily=Google Sans;fontSource=https%3A%2F%2Ffonts.googleapis.com%2Fcss%3Ffamily%3DGoogle%2BSans;arcSize=32;spacing=0;spacingBottom=1;fillColor=#f5f5f5;fontColor=#333333;strokeColor=#98A2AE;fontSize=8;horizontal=1;fontStyle=1" vertex="1" parent="1">
          <mxGeometry x="835.5472572355628" y="685.7428033239623" width="20" height="10" as="geometry" />
      </mxCell>
    </object><object id="label:clab-red-hospital-host_electro:eth1" label="eth1">
      <mxCell style="rounded=1;whiteSpace=wrap;html=1;fontFamily=Google Sans;fontSource=https%3A%2F%2Ffonts.googleapis.com%2Fcss%3Ffamily%3DGoogle%2BSans;arcSize=32;spacing=0;spacingBottom=1;fillColor=#f5f5f5;fontColor=#333333;strokeColor=#98A2AE;fontSize=8;horizontal=1;fontStyle=1" vertex="1" parent="1">
          <mxGeometry x="881.9527427644372" y="760.5071966760377" width="20" height="10" as="geometry" />
      </mxCell>
    </object><object id="link_id:link:clab-red-hospital-leaf4:e1/2:clab-red-hospital-host_pruebas_medicas:eth1" label="" source="clab-red-hospital-leaf4" target="clab-red-hospital-host_pruebas_medicas">
      <mxCell style="endArrow=none;jumpStyle=gap;entryY=0.5;exitY=0.5;entryX=0;exitX=1;" edge="1" parent="1" source="clab-red-hospital-leaf4" target="clab-red-hospital-host_pruebas_medicas">
          <mxGeometry relative="1" as="geometry" />
      </mxCell>
    </object><object id="label:clab-red-hospital-leaf4:e1/2" label="e1/2">
      <mxCell style="rounded=1;whiteSpace=wrap;html=1;fontFamily=Google Sans;fontSource=https%3A%2F%2Ffonts.googleapis.com%2Fcss%3Ffamily%3DGoogle%2BSans;arcSize=32;spacing=0;spacingBottom=1;fillColor=#f5f5f5;fontColor=#333333;strokeColor=#98A2AE;fontSize=8;horizontal=1;fontStyle=1" vertex="1" parent="1">
          <mxGeometry x="881.5585156002652" y="637.3140731455389" width="20" height="10" as="geometry" />
      </mxCell>
    </object><object id="label:clab-red-hospital-host_pruebas_medicas:eth1" label="eth1">
      <mxCell style="rounded=1;whiteSpace=wrap;html=1;fontFamily=Google Sans;fontSource=https%3A%2F%2Ffonts.googleapis.com%2Fcss%3Ffamily%3DGoogle%2BSans;arcSize=32;spacing=0;spacingBottom=1;fillColor=#f5f5f5;fontColor=#333333;strokeColor=#98A2AE;fontSize=8;horizontal=1;fontStyle=1" vertex="1" parent="1">
          <mxGeometry x="925.9414843997348" y="651.4359268544611" width="20" height="10" as="geometry" />
      </mxCell>
    </object><object id="link_id:link:clab-red-hospital-border-leaf1:e0/1:clab-red-hospital-spine1:e1/2" label="" source="clab-red-hospital-border-leaf1" target="clab-red-hospital-spine1">
      <mxCell style="endArrow=none;jumpStyle=gap;entryY=0;exitY=1;entryX=0.5;exitX=0.5;" edge="1" parent="1" source="clab-red-hospital-border-leaf1" target="clab-red-hospital-spine1">
          <mxGeometry relative="1" as="geometry" />
      </mxCell>
    </object><object id="label:clab-red-hospital-border-leaf1:e0/1" label="e0/1">
      <mxCell style="rounded=1;whiteSpace=wrap;html=1;fontFamily=Google Sans;fontSource=https%3A%2F%2Ffonts.googleapis.com%2Fcss%3Ffamily%3DGoogle%2BSans;arcSize=32;spacing=0;spacingBottom=1;fillColor=#f5f5f5;fontColor=#333333;strokeColor=#98A2AE;fontSize=8;horizontal=1;fontStyle=1" vertex="1" parent="1">
          <mxGeometry x="465.0" y="452.5" width="20" height="10" as="geometry" />
      </mxCell>
    </object><object id="label:clab-red-hospital-spine1:e1/2" label="e1/2">
      <mxCell style="rounded=1;whiteSpace=wrap;html=1;fontFamily=Google Sans;fontSource=https%3A%2F%2Ffonts.googleapis.com%2Fcss%3Ffamily%3DGoogle%2BSans;arcSize=32;spacing=0;spacingBottom=1;fillColor=#f5f5f5;fontColor=#333333;strokeColor=#98A2AE;fontSize=8;horizontal=1;fontStyle=1" vertex="1" parent="1">
          <mxGeometry x="465.0" y="468.75" width="20" height="10" as="geometry" />
      </mxCell>
    </object><object id="link_id:link:clab-red-hospital-border-leaf1:e0/2:clab-red-hospital-spine2:e1/2" label="" source="clab-red-hospital-border-leaf1" target="clab-red-hospital-spine2">
      <mxCell style="endArrow=none;jumpStyle=gap;entryY=0;exitY=1;entryX=0.5;exitX=0.5;" edge="1" parent="1" source="clab-red-hospital-border-leaf1" target="clab-red-hospital-spine2">
          <mxGeometry relative="1" as="geometry" />
      </mxCell>
    </object><object id="label:clab-red-hospital-border-leaf1:e0/2" label="e0/2">
      <mxCell style="rounded=1;whiteSpace=wrap;html=1;fontFamily=Google Sans;fontSource=https%3A%2F%2Ffonts.googleapis.com%2Fcss%3Ffamily%3DGoogle%2BSans;arcSize=32;spacing=0;spacingBottom=1;fillColor=#f5f5f5;fontColor=#333333;strokeColor=#98A2AE;fontSize=8;horizontal=1;fontStyle=1" vertex="1" parent="1">
          <mxGeometry x="484.40285000290663" y="437.3507125007267" width="20" height="10" as="geometry" />
      </mxCell>
    </object><object id="label:clab-red-hospital-spine2:e1/2" label="e1/2">
      <mxCell style="rounded=1;whiteSpace=wrap;html=1;fontFamily=Google Sans;fontSource=https%3A%2F%2Ffonts.googleapis.com%2Fcss%3Ffamily%3DGoogle%2BSans;arcSize=32;spacing=0;spacingBottom=1;fillColor=#f5f5f5;fontColor=#333333;strokeColor=#98A2AE;fontSize=8;horizontal=1;fontStyle=1" vertex="1" parent="1">
          <mxGeometry x="670.5971499970933" y="483.8992874992733" width="20" height="10" as="geometry" />
      </mxCell>
    </object><object id="link_id:link:clab-red-hospital-border-leaf1:e0/3:clab-red-hospital-fw_fortinet:eth1" label="" source="clab-red-hospital-border-leaf1" target="clab-red-hospital-fw_fortinet">
      <mxCell style="endArrow=none;jumpStyle=gap;entryY=0.5;exitY=0.5;entryX=0;exitX=1;" edge="1" parent="1" source="clab-red-hospital-border-leaf1" target="clab-red-hospital-fw_fortinet">
          <mxGeometry relative="1" as="geometry" />
      </mxCell>
    </object><object id="label:clab-red-hospital-border-leaf1:e0/3" label="e0/3">
      <mxCell style="rounded=1;whiteSpace=wrap;html=1;fontFamily=Google Sans;fontSource=https%3A%2F%2Ffonts.googleapis.com%2Fcss%3Ffamily%3DGoogle%2BSans;arcSize=32;spacing=0;spacingBottom=1;fillColor=#f5f5f5;fontColor=#333333;strokeColor=#98A2AE;fontSize=8;horizontal=1;fontStyle=1" vertex="1" parent="1">
          <mxGeometry x="518.8846384103808" y="383.5307531127334" width="20" height="10" as="geometry" />
      </mxCell>
    </object><object id="label:clab-red-hospital-fw_fortinet:eth1" label="eth1">
      <mxCell style="rounded=1;whiteSpace=wrap;html=1;fontFamily=Google Sans;fontSource=https%3A%2F%2Ffonts.googleapis.com%2Fcss%3Ffamily%3DGoogle%2BSans;arcSize=32;spacing=0;spacingBottom=1;fillColor=#f5f5f5;fontColor=#333333;strokeColor=#98A2AE;fontSize=8;horizontal=1;fontStyle=1" vertex="1" parent="1">
          <mxGeometry x="523.6153615896192" y="380.2192468872666" width="20" height="10" as="geometry" />
      </mxCell>
    </object><object id="link_id:link:clab-red-hospital-border-leaf2:e0/1:clab-red-hospital-spine1:e1/3" label="" source="clab-red-hospital-border-leaf2" target="clab-red-hospital-spine1">
      <mxCell style="endArrow=none;jumpStyle=gap;entryY=0;exitY=1;entryX=0.5;exitX=0.5;" edge="1" parent="1" source="clab-red-hospital-border-leaf2" target="clab-red-hospital-spine1">
          <mxGeometry relative="1" as="geometry" />
      </mxCell>
    </object><object id="label:clab-red-hospital-border-leaf2:e0/1" label="e0/1">
      <mxCell style="rounded=1;whiteSpace=wrap;html=1;fontFamily=Google Sans;fontSource=https%3A%2F%2Ffonts.googleapis.com%2Fcss%3Ffamily%3DGoogle%2BSans;arcSize=32;spacing=0;spacingBottom=1;fillColor=#f5f5f5;fontColor=#333333;strokeColor=#98A2AE;fontSize=8;horizontal=1;fontStyle=1" vertex="1" parent="1">
          <mxGeometry x="670.5971499970933" y="437.3507125007267" width="20" height="10" as="geometry" />
      </mxCell>
    </object><object id="label:clab-red-hospital-spine1:e1/3" label="e1/3">
      <mxCell style="rounded=1;whiteSpace=wrap;html=1;fontFamily=Google Sans;fontSource=https%3A%2F%2Ffonts.googleapis.com%2Fcss%3Ffamily%3DGoogle%2BSans;arcSize=32;spacing=0;spacingBottom=1;fillColor=#f5f5f5;fontColor=#333333;strokeColor=#98A2AE;fontSize=8;horizontal=1;fontStyle=1" vertex="1" parent="1">
          <mxGeometry x="484.40285000290663" y="483.8992874992733" width="20" height="10" as="geometry" />
      </mxCell>
    </object><object id="link_id:link:clab-red-hospital-border-leaf2:e0/2:clab-red-hospital-spine2:e1/3" label="" source="clab-red-hospital-border-leaf2" target="clab-red-hospital-spine2">
      <mxCell style="endArrow=none;jumpStyle=gap;entryY=0;exitY=1;entryX=0.5;exitX=0.5;" edge="1" parent="1" source="clab-red-hospital-border-leaf2" target="clab-red-hospital-spine2">
          <mxGeometry relative="1" as="geometry" />
      </mxCell>
    </object><object id="label:clab-red-hospital-border-leaf2:e0/2" label="e0/2">
      <mxCell style="rounded=1;whiteSpace=wrap;html=1;fontFamily=Google Sans;fontSource=https%3A%2F%2Ffonts.googleapis.com%2Fcss%3Ffamily%3DGoogle%2BSans;arcSize=32;spacing=0;spacingBottom=1;fillColor=#f5f5f5;fontColor=#333333;strokeColor=#98A2AE;fontSize=8;horizontal=1;fontStyle=1" vertex="1" parent="1">
          <mxGeometry x="690.0" y="452.5" width="20" height="10" as="geometry" />
      </mxCell>
    </object><object id="label:clab-red-hospital-spine2:e1/3" label="e1/3">
      <mxCell style="rounded=1;whiteSpace=wrap;html=1;fontFamily=Google Sans;fontSource=https%3A%2F%2Ffonts.googleapis.com%2Fcss%3Ffamily%3DGoogle%2BSans;arcSize=32;spacing=0;spacingBottom=1;fillColor=#f5f5f5;fontColor=#333333;strokeColor=#98A2AE;fontSize=8;horizontal=1;fontStyle=1" vertex="1" parent="1">
          <mxGeometry x="690.0" y="468.75" width="20" height="10" as="geometry" />
      </mxCell>
    </object><object id="link_id:link:clab-red-hospital-border-leaf2:e0/3:clab-red-hospital-fw_fortinet:eth2" label="" source="clab-red-hospital-border-leaf2" target="clab-red-hospital-fw_fortinet">
      <mxCell style="endArrow=none;jumpStyle=gap;entryY=0.5;exitY=0.5;entryX=1;exitX=0;" edge="1" parent="1" source="clab-red-hospital-border-leaf2" target="clab-red-hospital-fw_fortinet">
          <mxGeometry relative="1" as="geometry" />
      </mxCell>
    </object><object id="label:clab-red-hospital-border-leaf2:e0/3" label="e0/3">
      <mxCell style="rounded=1;whiteSpace=wrap;html=1;fontFamily=Google Sans;fontSource=https%3A%2F%2Ffonts.googleapis.com%2Fcss%3Ffamily%3DGoogle%2BSans;arcSize=32;spacing=0;spacingBottom=1;fillColor=#f5f5f5;fontColor=#333333;strokeColor=#98A2AE;fontSize=8;horizontal=1;fontStyle=1" vertex="1" parent="1">
          <mxGeometry x="636.1153615896192" y="383.5307531127334" width="20" height="10" as="geometry" />
      </mxCell>
    </object><object id="label:clab-red-hospital-fw_fortinet:eth2" label="eth2">
      <mxCell style="rounded=1;whiteSpace=wrap;html=1;fontFamily=Google Sans;fontSource=https%3A%2F%2Ffonts.googleapis.com%2Fcss%3Ffamily%3DGoogle%2BSans;arcSize=32;spacing=0;spacingBottom=1;fillColor=#f5f5f5;fontColor=#333333;strokeColor=#98A2AE;fontSize=8;horizontal=1;fontStyle=1" vertex="1" parent="1">
          <mxGeometry x="631.3846384103808" y="380.2192468872666" width="20" height="10" as="geometry" />
      </mxCell>
    </object><object id="link_id:link:clab-red-hospital-web_server_dmz:eth1:clab-red-hospital-fw_paloalto:Ethernet1/1" label="" source="clab-red-hospital-web_server_dmz" target="clab-red-hospital-fw_paloalto">
      <mxCell style="endArrow=none;jumpStyle=gap;entryY=0.5;exitY=0.5;entryX=0;exitX=1;" edge="1" parent="1" source="clab-red-hospital-web_server_dmz" target="clab-red-hospital-fw_paloalto">
          <mxGeometry relative="1" as="geometry" />
      </mxCell>
    </object><object id="label:clab-red-hospital-web_server_dmz:eth1" label="eth1">
      <mxCell style="rounded=1;whiteSpace=wrap;html=1;fontFamily=Google Sans;fontSource=https%3A%2F%2Ffonts.googleapis.com%2Fcss%3Ffamily%3DGoogle%2BSans;arcSize=32;spacing=0;spacingBottom=1;fillColor=#f5f5f5;fontColor=#333333;strokeColor=#98A2AE;fontSize=8;horizontal=1;fontStyle=1" vertex="1" parent="1">
          <mxGeometry x="573.7422421577999" y="270.3532286715505" width="20" height="10" as="geometry" />
      </mxCell>
    </object><object id="label:clab-red-hospital-fw_paloalto:Ethernet1/1" label="e1/1">
      <mxCell style="rounded=1;whiteSpace=wrap;html=1;fontFamily=Google Sans;fontSource=https%3A%2F%2Ffonts.googleapis.com%2Fcss%3Ffamily%3DGoogle%2BSans;arcSize=32;spacing=0;spacingBottom=1;fillColor=#f5f5f5;fontColor=#333333;strokeColor=#98A2AE;fontSize=8;horizontal=1;fontStyle=1" vertex="1" parent="1">
          <mxGeometry x="581.2577578422001" y="230.8967713284495" width="20" height="10" as="geometry" />
      </mxCell>
    </object><object id="link_id:link:clab-red-hospital-web_server_dmz:eth2:clab-red-hospital-fw_fortinet:eth3" label="" source="clab-red-hospital-web_server_dmz" target="clab-red-hospital-fw_fortinet">
      <mxCell style="endArrow=none;jumpStyle=gap;entryY=0.5;exitY=0.5;entryX=0;exitX=1;" edge="1" parent="1" source="clab-red-hospital-web_server_dmz" target="clab-red-hospital-fw_fortinet">
          <mxGeometry relative="1" as="geometry" />
      </mxCell>
    </object><object id="label:clab-red-hospital-web_server_dmz:eth2" label="eth2">
      <mxCell style="rounded=1;whiteSpace=wrap;html=1;fontFamily=Google Sans;fontSource=https%3A%2F%2Ffonts.googleapis.com%2Fcss%3Ffamily%3DGoogle%2BSans;arcSize=32;spacing=0;spacingBottom=1;fillColor=#f5f5f5;fontColor=#333333;strokeColor=#98A2AE;fontSize=8;horizontal=1;fontStyle=1" vertex="1" parent="1">
          <mxGeometry x="562.8800934481602" y="308.68975469857935" width="20" height="10" as="geometry" />
      </mxCell>
    </object><object id="label:clab-red-hospital-fw_fortinet:eth3" label="eth3">
      <mxCell style="rounded=1;whiteSpace=wrap;html=1;fontFamily=Google Sans;fontSource=https%3A%2F%2Ffonts.googleapis.com%2Fcss%3Ffamily%3DGoogle%2BSans;arcSize=32;spacing=0;spacingBottom=1;fillColor=#f5f5f5;fontColor=#333333;strokeColor=#98A2AE;fontSize=8;horizontal=1;fontStyle=1" vertex="1" parent="1">
          <mxGeometry x="547.1199065518398" y="350.06024530142065" width="20" height="10" as="geometry" />
      </mxCell>
    </object><object id="link_id:link:clab-red-hospital-host_externo:eth1:clab-red-hospital-fw_paloalto:Ethernet1/2" label="" source="clab-red-hospital-host_externo" target="clab-red-hospital-fw_paloalto">
      <mxCell style="endArrow=none;jumpStyle=gap;entryY=0.5;exitY=0.5;entryX=0;exitX=1;" edge="1" parent="1" source="clab-red-hospital-host_externo" target="clab-red-hospital-fw_paloalto">
          <mxGeometry relative="1" as="geometry" />
      </mxCell>
    </object><object id="label:clab-red-hospital-host_externo:eth1" label="eth1">
      <mxCell style="rounded=1;whiteSpace=wrap;html=1;fontFamily=Google Sans;fontSource=https%3A%2F%2Ffonts.googleapis.com%2Fcss%3Ffamily%3DGoogle%2BSans;arcSize=32;spacing=0;spacingBottom=1;fillColor=#f5f5f5;fontColor=#333333;strokeColor=#98A2AE;fontSize=8;horizontal=1;fontStyle=1" vertex="1" parent="1">
          <mxGeometry x="573.7422421577999" y="152.1467713284495" width="20" height="10" as="geometry" />
      </mxCell>
    </object><object id="label:clab-red-hospital-fw_paloalto:Ethernet1/2" label="e1/2">
      <mxCell style="rounded=1;whiteSpace=wrap;html=1;fontFamily=Google Sans;fontSource=https%3A%2F%2Ffonts.googleapis.com%2Fcss%3Ffamily%3DGoogle%2BSans;arcSize=32;spacing=0;spacingBottom=1;fillColor=#f5f5f5;fontColor=#333333;strokeColor=#98A2AE;fontSize=8;horizontal=1;fontStyle=1" vertex="1" parent="1">
          <mxGeometry x="581.2577578422001" y="191.6032286715505" width="20" height="10" as="geometry" />
      </mxCell>
    </object></root>
          </mxGraphModel>
        </diagram></mxfile>